<svg xmlns="http://www.w3.org/2000/svg" width="31" height="31" fill="none" viewBox="0 0 31 31"><path fill="#009688" d="M12.4385 13.9033C12.6934 13.7188 12.8164 13.4141 12.8164 12.9951C12.8252 12.7959 12.7842 12.5996 12.6963 12.4209C12.6172 12.2773 12.5 12.1572 12.3564 12.0723C12.2076 11.982 12.0423 11.9222 11.8701 11.8965C11.6826 11.8613 11.4922 11.8438 11.3047 11.8467H9.24512V14.1816H11.4746C11.8584 14.1846 12.1836 14.0908 12.4385 13.9033ZM12.7842 16.0127C12.4971 15.793 12.1133 15.6846 11.6357 15.6846H9.23926V18.4385H11.5889C11.8086 18.4385 12.0107 18.418 12.207 18.377C12.3927 18.3406 12.5698 18.269 12.7285 18.166C12.8779 18.0693 12.998 17.9375 13.0889 17.7676C13.1768 17.5977 13.2207 17.3809 13.2207 17.1201C13.2207 16.6016 13.0742 16.2354 12.7842 16.0127ZM15.125 2C7.87695 2 2 7.87695 2 15.125C2 22.373 7.87695 28.25 15.125 28.25C22.373 28.25 28.25 22.373 28.25 15.125C28.25 7.87695 22.373 2 15.125 2ZM17.6592 10.4053H21.7139V11.3926H17.6592V10.4053ZM15.125 18.5469C14.9354 18.9069 14.6645 19.2178 14.334 19.4551C13.9883 19.6953 13.6045 19.8711 13.1973 19.9736C12.7712 20.0878 12.3317 20.144 11.8906 20.1406H7.03906V10.1475H11.7559C12.2334 10.1475 12.667 10.1914 13.0625 10.2734C13.4551 10.3555 13.7891 10.4961 14.0703 10.6865C14.3486 10.877 14.5684 11.1318 14.7236 11.4482C14.876 11.7617 14.9551 12.1543 14.9551 12.6201C14.9551 13.124 14.8408 13.54 14.6123 13.877C14.3809 14.2139 14.0469 14.4863 13.5928 14.7002C14.2109 14.876 14.665 15.1895 14.9639 15.6289C15.2686 16.0742 15.418 16.6074 15.418 17.2344C15.418 17.7441 15.3213 18.1807 15.125 18.5469ZM23.293 17H18.0664C18.0664 17.5684 18.2627 18.1133 18.5586 18.4062C18.8574 18.6963 19.2852 18.8428 19.8447 18.8428C20.249 18.8428 20.5918 18.7402 20.8848 18.5381C21.1748 18.3359 21.3506 18.1221 21.415 17.8994H23.167C22.8857 18.7695 22.458 19.3906 21.8779 19.7656C21.3037 20.1406 20.6006 20.3281 19.7832 20.3281C19.2119 20.3281 18.6992 20.2344 18.2393 20.0557C17.7969 19.8828 17.3984 19.6191 17.0703 19.2793C16.7468 18.9303 16.4967 18.5198 16.335 18.0723C16.1562 17.5771 16.0684 17.0557 16.0742 16.5312C16.0742 15.9893 16.165 15.4854 16.3408 15.0166C16.6777 14.1055 17.3779 13.376 18.2715 12.998C18.749 12.7988 19.2617 12.6992 19.7803 12.7051C20.3955 12.7051 20.9287 12.8223 21.3916 13.0625C21.8372 13.2919 22.2241 13.6207 22.5225 14.0234C22.8184 14.4248 23.0264 14.8818 23.1582 15.3975C23.2842 15.9043 23.3281 16.4375 23.293 17ZM19.7188 14.1992C19.4023 14.1992 19.1357 14.2549 18.9307 14.3633C18.7256 14.4717 18.5557 14.6064 18.4268 14.7617C18.304 14.9116 18.2133 15.0851 18.1602 15.2715C18.1133 15.4268 18.0811 15.585 18.0693 15.7461H21.3066C21.2598 15.2393 21.084 14.8643 20.8496 14.6006C20.6035 14.3398 20.208 14.1992 19.7188 14.1992Z"/></svg>