<?xml version="1.0" encoding="UTF-8"?>
<svg xmlns="http://www.w3.org/2000/svg" xmlns:xlink="http://www.w3.org/1999/xlink" width="24pt" height="24pt" viewBox="0 0 24 24" version="1.1">
<g id="surface10112184">
<path style=" stroke:none;fill-rule:nonzero;fill:rgb(0%,0%,0%);fill-opacity:1;" d="M 12 24 C 5.371094 24 0 18.628906 0 12 C 0 5.371094 5.371094 0 12 0 C 18.628906 0 24 5.371094 24 12 C 24 18.628906 18.628906 24 12 24 Z M 12 24 "/>
<path style=" stroke:none;fill-rule:nonzero;fill:rgb(100%,100%,100%);fill-opacity:1;" d="M 6.292969 3.359375 C 6.117188 3.394531 5.988281 3.550781 5.988281 3.734375 L 5.988281 9.371094 L 4.109375 9.371094 L 4.109375 10.121094 L 2.609375 10.121094 L 2.609375 12.375 L 4.109375 12.375 L 4.109375 18.761719 C 4.109375 19.792969 4.957031 20.640625 5.988281 20.640625 L 18.011719 20.640625 C 19.042969 20.640625 19.890625 19.792969 19.890625 18.761719 L 19.890625 12.375 L 21.390625 12.375 L 21.390625 10.121094 L 19.890625 10.121094 L 19.890625 9.371094 L 18.011719 9.371094 L 18.011719 3.734375 C 18.011719 3.527344 17.839844 3.359375 17.636719 3.359375 L 6.363281 3.359375 C 6.351562 3.359375 6.339844 3.359375 6.328125 3.359375 C 6.316406 3.359375 6.304688 3.359375 6.292969 3.359375 Z M 6.742188 4.109375 L 17.257812 4.109375 L 17.257812 9.371094 L 14.066406 9.371094 C 13.34375 9.371094 12.75 9.964844 12.75 10.683594 C 12.75 11.40625 13.34375 12 14.066406 12 L 15.003906 12 C 15.21875 12 15.382812 12.164062 15.382812 12.375 C 15.382812 12.589844 15.21875 12.75 15.003906 12.75 L 8.996094 12.75 C 8.78125 12.75 8.617188 12.589844 8.617188 12.375 C 8.617188 12.164062 8.78125 12 8.996094 12 L 9.933594 12 C 10.65625 12 11.25 11.40625 11.25 10.683594 C 11.25 9.964844 10.65625 9.371094 9.933594 9.371094 L 6.765625 9.371094 C 6.757812 9.371094 6.75 9.371094 6.742188 9.371094 Z M 8.546875 5.613281 C 8.339844 5.632812 8.1875 5.816406 8.207031 6.023438 C 8.226562 6.230469 8.414062 6.382812 8.617188 6.363281 L 15.382812 6.363281 C 15.515625 6.367188 15.640625 6.296875 15.710938 6.179688 C 15.777344 6.0625 15.777344 5.917969 15.710938 5.800781 C 15.640625 5.683594 15.515625 5.613281 15.382812 5.613281 L 8.617188 5.613281 C 8.605469 5.613281 8.59375 5.613281 8.582031 5.613281 C 8.570312 5.613281 8.558594 5.613281 8.546875 5.613281 Z M 8.546875 7.117188 C 8.339844 7.136719 8.1875 7.320312 8.207031 7.527344 C 8.226562 7.734375 8.414062 7.886719 8.617188 7.867188 L 13.503906 7.867188 C 13.636719 7.871094 13.765625 7.800781 13.832031 7.679688 C 13.898438 7.5625 13.898438 7.421875 13.832031 7.304688 C 13.765625 7.183594 13.636719 7.113281 13.503906 7.117188 L 8.617188 7.117188 C 8.605469 7.117188 8.59375 7.117188 8.582031 7.117188 C 8.570312 7.117188 8.558594 7.117188 8.546875 7.117188 Z M 4.863281 10.121094 L 9.933594 10.121094 C 10.25 10.121094 10.496094 10.371094 10.496094 10.683594 C 10.496094 11 10.25 11.25 9.933594 11.25 L 8.996094 11.25 C 8.378906 11.25 7.867188 11.757812 7.867188 12.375 C 7.867188 12.992188 8.378906 13.503906 8.996094 13.503906 L 15.003906 13.503906 C 15.621094 13.503906 16.132812 12.992188 16.132812 12.375 C 16.132812 11.757812 15.621094 11.25 15.003906 11.25 L 14.066406 11.25 C 13.75 11.25 13.503906 11 13.503906 10.683594 C 13.503906 10.371094 13.75 10.121094 14.066406 10.121094 L 19.136719 10.121094 L 19.136719 18.761719 C 19.136719 19.386719 18.636719 19.890625 18.011719 19.890625 L 5.988281 19.890625 C 5.363281 19.890625 4.863281 19.386719 4.863281 18.761719 Z M 3.359375 10.871094 L 4.109375 10.871094 L 4.109375 11.625 L 3.359375 11.625 Z M 19.890625 10.871094 L 20.640625 10.871094 L 20.640625 11.625 L 19.890625 11.625 Z M 6.742188 15.003906 C 6.535156 15.003906 6.363281 15.175781 6.363281 15.382812 C 6.363281 15.585938 6.535156 15.757812 6.742188 15.757812 C 6.949219 15.757812 7.117188 15.585938 7.117188 15.382812 C 7.117188 15.175781 6.949219 15.003906 6.742188 15.003906 Z M 8.242188 15.003906 C 8.035156 15.003906 7.867188 15.175781 7.867188 15.382812 C 7.867188 15.585938 8.035156 15.757812 8.242188 15.757812 C 8.449219 15.757812 8.617188 15.585938 8.617188 15.382812 C 8.617188 15.175781 8.449219 15.003906 8.242188 15.003906 Z M 9.746094 15.003906 C 9.539062 15.003906 9.371094 15.175781 9.371094 15.382812 C 9.371094 15.585938 9.539062 15.757812 9.746094 15.757812 C 9.953125 15.757812 10.121094 15.585938 10.121094 15.382812 C 10.121094 15.175781 9.953125 15.003906 9.746094 15.003906 Z M 11.25 15.003906 C 11.042969 15.003906 10.871094 15.175781 10.871094 15.382812 C 10.871094 15.585938 11.042969 15.757812 11.25 15.757812 C 11.457031 15.757812 11.625 15.585938 11.625 15.382812 C 11.625 15.175781 11.457031 15.003906 11.25 15.003906 Z M 12.75 15.003906 C 12.542969 15.003906 12.375 15.175781 12.375 15.382812 C 12.375 15.585938 12.542969 15.757812 12.75 15.757812 C 12.957031 15.757812 13.128906 15.585938 13.128906 15.382812 C 13.128906 15.175781 12.957031 15.003906 12.75 15.003906 Z M 14.253906 15.003906 C 14.046875 15.003906 13.878906 15.175781 13.878906 15.382812 C 13.878906 15.585938 14.046875 15.757812 14.253906 15.757812 C 14.460938 15.757812 14.628906 15.585938 14.628906 15.382812 C 14.628906 15.175781 14.460938 15.003906 14.253906 15.003906 Z M 15.757812 15.003906 C 15.550781 15.003906 15.382812 15.175781 15.382812 15.382812 C 15.382812 15.585938 15.550781 15.757812 15.757812 15.757812 C 15.964844 15.757812 16.132812 15.585938 16.132812 15.382812 C 16.132812 15.175781 15.964844 15.003906 15.757812 15.003906 Z M 17.257812 15.003906 C 17.050781 15.003906 16.882812 15.175781 16.882812 15.382812 C 16.882812 15.585938 17.050781 15.757812 17.257812 15.757812 C 17.464844 15.757812 17.636719 15.585938 17.636719 15.382812 C 17.636719 15.175781 17.464844 15.003906 17.257812 15.003906 Z M 7.492188 16.507812 C 7.285156 16.507812 7.117188 16.675781 7.117188 16.882812 C 7.117188 17.089844 7.285156 17.257812 7.492188 17.257812 C 7.699219 17.257812 7.867188 17.089844 7.867188 16.882812 C 7.867188 16.675781 7.699219 16.507812 7.492188 16.507812 Z M 8.996094 16.507812 C 8.789062 16.507812 8.617188 16.675781 8.617188 16.882812 C 8.617188 17.089844 8.789062 17.257812 8.996094 17.257812 C 9.203125 17.257812 9.371094 17.089844 9.371094 16.882812 C 9.371094 16.675781 9.203125 16.507812 8.996094 16.507812 Z M 10.496094 16.507812 C 10.289062 16.507812 10.121094 16.675781 10.121094 16.882812 C 10.121094 17.089844 10.289062 17.257812 10.496094 17.257812 C 10.703125 17.257812 10.871094 17.089844 10.871094 16.882812 C 10.871094 16.675781 10.703125 16.507812 10.496094 16.507812 Z M 12 16.507812 C 11.792969 16.507812 11.625 16.675781 11.625 16.882812 C 11.625 17.089844 11.792969 17.257812 12 17.257812 C 12.207031 17.257812 12.375 17.089844 12.375 16.882812 C 12.375 16.675781 12.207031 16.507812 12 16.507812 Z M 13.503906 16.507812 C 13.296875 16.507812 13.128906 16.675781 13.128906 16.882812 C 13.128906 17.089844 13.296875 17.257812 13.503906 17.257812 C 13.710938 17.257812 13.878906 17.089844 13.878906 16.882812 C 13.878906 16.675781 13.710938 16.507812 13.503906 16.507812 Z M 15.003906 16.507812 C 14.796875 16.507812 14.628906 16.675781 14.628906 16.882812 C 14.628906 17.089844 14.796875 17.257812 15.003906 17.257812 C 15.210938 17.257812 15.382812 17.089844 15.382812 16.882812 C 15.382812 16.675781 15.210938 16.507812 15.003906 16.507812 Z M 16.507812 16.507812 C 16.300781 16.507812 16.132812 16.675781 16.132812 16.882812 C 16.132812 17.089844 16.300781 17.257812 16.507812 17.257812 C 16.714844 17.257812 16.882812 17.089844 16.882812 16.882812 C 16.882812 16.675781 16.714844 16.507812 16.507812 16.507812 Z M 8.617188 18.011719 C 8.414062 18.011719 8.242188 18.179688 8.242188 18.386719 C 8.242188 18.59375 8.414062 18.761719 8.617188 18.761719 L 15.382812 18.761719 C 15.585938 18.761719 15.757812 18.59375 15.757812 18.386719 C 15.757812 18.179688 15.585938 18.011719 15.382812 18.011719 Z M 8.617188 18.011719 "/>
</g>
</svg>
