<svg xmlns="http://www.w3.org/2000/svg" width="100" height="100" viewBox="0 0 100 100"><path fill="#c7ede6" d="M87.215,56.71C88.35,54.555,89,52.105,89,49.5c0-6.621-4.159-12.257-10.001-14.478 C78.999,35.015,79,35.008,79,35c0-11.598-9.402-21-21-21c-9.784,0-17.981,6.701-20.313,15.757C36.211,29.272,34.638,29,33,29 c-7.692,0-14.023,5.793-14.89,13.252C12.906,43.353,9,47.969,9,53.5C9,59.851,14.149,65,20.5,65c0.177,0,0.352-0.012,0.526-0.022 C21.022,65.153,21,65.324,21,65.5C21,76.822,30.178,86,41.5,86c6.437,0,12.175-2.972,15.934-7.614C59.612,80.611,62.64,82,66,82 c4.65,0,8.674-2.65,10.666-6.518C77.718,75.817,78.837,76,80,76c6.075,0,11-4.925,11-11C91,61.689,89.53,58.727,87.215,56.71z"/><path fill="#fdfcef" d="M79.5,62.5V63h3v-0.5c0,0,4.242,0,5.5,0c2.485,0,4.5-2.015,4.5-4.5 c0-2.333-1.782-4.229-4.055-4.455C88.467,53.364,88.5,53.187,88.5,53c0-2.485-2.015-4.5-4.5-4.5 c-1.438,0-2.703,0.686-3.527,1.736C80.333,47.6,78.171,45.5,75.5,45.5c-2.761,0-5,2.239-5,5c0,0.446,0.077,0.87,0.187,1.282 C70.045,51.005,69.086,50.5,68,50.5c-1.781,0-3.234,1.335-3.455,3.055C64.364,53.533,64.187,53.5,64,53.5 c-2.485,0-4.5,2.015-4.5,4.5s2.015,4.5,4.5,4.5s9.5,0,9.5,0H79.5z"/><path fill="#472b29" d="M75.5,45c-3.033,0-5.5,2.467-5.5,5.5c0,0.016,0,0.031,0,0.047C69.398,50.192,68.71,50,68,50 c-1.831,0-3.411,1.261-3.858,3.005C64.095,53.002,64.048,53,64,53c-2.757,0-5,2.243-5,5s2.243,5,5,5h15.5 c0.276,0,0.5-0.224,0.5-0.5S79.776,62,79.5,62H64c-2.206,0-4-1.794-4-4s1.794-4,4-4c0.117,0,0.23,0.017,0.343,0.032l0.141,0.019 c0.021,0.003,0.041,0.004,0.062,0.004c0.246,0,0.462-0.185,0.495-0.437C65.232,52.125,66.504,51,68,51 c0.885,0,1.723,0.401,2.301,1.1c0.098,0.118,0.241,0.182,0.386,0.182c0.078,0,0.156-0.018,0.228-0.056 c0.209-0.107,0.314-0.346,0.254-0.573C71.054,51.218,71,50.852,71,50.5c0-2.481,2.019-4.5,4.5-4.5 c2.381,0,4.347,1.872,4.474,4.263c0.011,0.208,0.15,0.387,0.349,0.45c0.05,0.016,0.101,0.024,0.152,0.024 c0.15,0,0.296-0.069,0.392-0.192C81.638,49.563,82.779,49,84,49c2.206,0,4,1.794,4,4c0,0.117-0.017,0.23-0.032,0.343 l-0.019,0.141c-0.016,0.134,0.022,0.268,0.106,0.373c0.084,0.105,0.207,0.172,0.34,0.185C90.451,54.247,92,55.949,92,58 c0,2.206-1.794,4-4,4h-5.5c-0.276,0-0.5,0.224-0.5,0.5s0.224,0.5,0.5,0.5H88c2.757,0,5-2.243,5-5 c0-2.397-1.689-4.413-4.003-4.877C88.999,53.082,89,53.041,89,53c0-2.757-2.243-5-5-5c-1.176,0-2.293,0.416-3.183,1.164 C80.219,46.76,78.055,45,75.5,45L75.5,45z"/><path fill="#472b29" d="M74 52c-1.403 0-2.609.999-2.913 2.341C70.72 54.119 70.301 54 69.875 54c-1.202 0-2.198.897-2.353 2.068C67.319 56.022 67.126 56 66.938 56c-1.529 0-2.811 1.2-2.918 2.732C64.01 58.87 64.114 58.99 64.251 59c.006 0 .012 0 .018 0 .13 0 .24-.101.249-.232.089-1.271 1.151-2.268 2.419-2.268.229 0 .47.042.738.127.022.007.045.01.067.01.055 0 .11-.02.156-.054C67.962 56.537 68 56.455 68 56.375c0-1.034.841-1.875 1.875-1.875.447 0 .885.168 1.231.473.047.041.106.063.165.063.032 0 .063-.006.093-.019.088-.035.148-.117.155-.212C71.623 53.512 72.712 52.5 74 52.5c.208 0 .425.034.682.107.023.007.047.01.07.01.109 0 .207-.073.239-.182.038-.133-.039-.271-.172-.309C74.517 52.04 74.256 52 74 52L74 52zM87.883 53.5c-1.326 0-2.508.897-2.874 2.182-.038.133.039.271.172.309C85.205 55.997 85.228 56 85.25 56c.109 0 .209-.072.24-.182C85.795 54.748 86.779 54 87.883 54c.117 0 .23.014.342.029.012.002.023.003.035.003.121 0 .229-.092.246-.217.019-.137-.077-.263-.214-.281C88.158 53.516 88.022 53.5 87.883 53.5L87.883 53.5z"/><path fill="#fff" d="M15.5 51h-10C5.224 51 5 50.776 5 50.5S5.224 50 5.5 50h10c.276 0 .5.224.5.5S15.777 51 15.5 51zM18.5 51h-1c-.276 0-.5-.224-.5-.5s.224-.5.5-.5h1c.276 0 .5.224.5.5S18.777 51 18.5 51zM23.491 53H14.5c-.276 0-.5-.224-.5-.5s.224-.5.5-.5h8.991c.276 0 .5.224.5.5S23.767 53 23.491 53zM12.5 53h-1c-.276 0-.5-.224-.5-.5s.224-.5.5-.5h1c.276 0 .5.224.5.5S12.777 53 12.5 53zM9.5 53h-2C7.224 53 7 52.776 7 52.5S7.224 52 7.5 52h2c.276 0 .5.224.5.5S9.777 53 9.5 53zM15.5 55h-2c-.276 0-.5-.224-.5-.5s.224-.5.5-.5h2c.276 0 .5.224.5.5S15.776 55 15.5 55zM18.5 46c-.177 0-.823 0-1 0-.276 0-.5.224-.5.5 0 .276.224.5.5.5.177 0 .823 0 1 0 .276 0 .5-.224.5-.5C19 46.224 18.776 46 18.5 46zM18.5 48c-.177 0-4.823 0-5 0-.276 0-.5.224-.5.5 0 .276.224.5.5.5.177 0 4.823 0 5 0 .276 0 .5-.224.5-.5C19 48.224 18.776 48 18.5 48zM23.5 50c-.177 0-2.823 0-3 0-.276 0-.5.224-.5.5 0 .276.224.5.5.5.177 0 2.823 0 3 0 .276 0 .5-.224.5-.5C24 50.224 23.776 50 23.5 50z"/><g><path fill="#fff" d="M72.5 24h-10c-.276 0-.5-.224-.5-.5s.224-.5.5-.5h10c.276 0 .5.224.5.5S72.776 24 72.5 24zM76.5 24h-2c-.276 0-.5-.224-.5-.5s.224-.5.5-.5h2c.276 0 .5.224.5.5S76.776 24 76.5 24zM81.5 26h-10c-.276 0-.5-.224-.5-.5s.224-.5.5-.5h10c.276 0 .5.224.5.5S81.777 26 81.5 26zM69.5 26h-1c-.276 0-.5-.224-.5-.5s.224-.5.5-.5h1c.276 0 .5.224.5.5S69.776 26 69.5 26zM66.47 26H64.5c-.276 0-.5-.224-.5-.5s.224-.5.5-.5h1.97c.276 0 .5.224.5.5S66.746 26 66.47 26zM75.5 22h-5c-.276 0-.5-.224-.5-.5s.224-.5.5-.5h5c.276 0 .5.224.5.5S75.777 22 75.5 22zM72.5 28h-2c-.276 0-.5-.224-.5-.5s.224-.5.5-.5h2c.276 0 .5.224.5.5S72.776 28 72.5 28z"/></g><g><path fill="#fdfcef" d="M33.5,71.5c0,0,1.567,0,3.5,0s3.5-1.567,3.5-3.5c0-1.781-1.335-3.234-3.055-3.455 C37.473,64.366,37.5,64.187,37.5,64c0-1.933-1.567-3.5-3.5-3.5c-1.032,0-1.95,0.455-2.59,1.165 c-0.384-1.808-1.987-3.165-3.91-3.165c-2.209,0-4,1.791-4,4c0,0.191,0.03,0.374,0.056,0.558C23.128,62.714,22.592,62.5,22,62.5 c-1.228,0-2.245,0.887-2.455,2.055C19.366,64.527,19.187,64.5,19,64.5c-1.933,0-3.5,1.567-3.5,3.5s1.567,3.5,3.5,3.5s7.5,0,7.5,0 V72h7V71.5z"/><path fill="#472b29" d="M35.25 67C35.112 67 35 66.888 35 66.75c0-1.223.995-2.218 2.218-2.218.034.009.737-.001 1.244.136.133.036.212.173.176.306-.036.134-.173.213-.306.176-.444-.12-1.1-.12-1.113-.118-.948 0-1.719.771-1.719 1.718C35.5 66.888 35.388 67 35.25 67zM28.5 71A.5.5 0 1 0 28.5 72 .5.5 0 1 0 28.5 71z"/><path fill="#472b29" d="M37,72h-3.5c-0.276,0-0.5-0.224-0.5-0.5s0.224-0.5,0.5-0.5H37c1.654,0,3-1.346,3-3 c0-1.496-1.125-2.768-2.618-2.959c-0.134-0.018-0.255-0.088-0.336-0.196s-0.115-0.244-0.094-0.377C36.975,64.314,37,64.16,37,64 c0-1.654-1.346-3-3-3c-0.85,0-1.638,0.355-2.219,1c-0.125,0.139-0.321,0.198-0.5,0.148c-0.182-0.049-0.321-0.195-0.36-0.379 C30.58,60.165,29.141,59,27.5,59c-1.93,0-3.5,1.57-3.5,3.5c0,0.143,0.021,0.28,0.041,0.418c0.029,0.203-0.063,0.438-0.242,0.54 c-0.179,0.102-0.396,0.118-0.556-0.01C22.878,63.155,22.449,63,22,63c-0.966,0-1.792,0.691-1.963,1.644 c-0.048,0.267-0.296,0.446-0.569,0.405C19.314,65.025,19.16,65,19,65c-1.654,0-3,1.346-3,3s1.346,3,3,3h7.5 c0.276,0,0.5,0.224,0.5,0.5S26.776,72,26.5,72H19c-2.206,0-4-1.794-4-4s1.794-4,4-4c0.059,0,0.116,0.002,0.174,0.006 C19.588,62.82,20.711,62,22,62c0.349,0,0.689,0.061,1.011,0.18C23.176,59.847,25.126,58,27.5,58c1.831,0,3.466,1.127,4.153,2.774 C32.333,60.276,33.155,60,34,60c2.206,0,4,1.794,4,4c0,0.048-0.001,0.095-0.004,0.142C39.739,64.59,41,66.169,41,68 C41,70.206,39.206,72,37,72z"/><path fill="#472b29" d="M31.5,71c-0.159,0-0.841,0-1,0c-0.276,0-0.5,0.224-0.5,0.5c0,0.276,0.224,0.5,0.5,0.5 c0.159,0,0.841,0,1,0c0.276,0,0.5-0.224,0.5-0.5C32,71.224,31.776,71,31.5,71z"/></g><g><path fill="#60be92" d="M47.75 74.25L47.75 36.938 37.227 46.531 32.976 42.516 50.583 25.75 68.039 42.516 63.788 46.531 53.167 36.924 53.167 74.25z"/><path fill="#472b29" d="M53.167,74.95H47.75c-0.387,0-0.7-0.313-0.7-0.7V38.522l-9.352,8.526 c-0.271,0.246-0.686,0.242-0.952-0.009l-4.25-4.015c-0.14-0.132-0.219-0.315-0.22-0.508c0-0.191,0.078-0.375,0.217-0.508 l17.607-16.767c0.272-0.258,0.699-0.256,0.968,0.002l17.455,16.767c0.138,0.133,0.216,0.316,0.215,0.508 c-0.001,0.191-0.08,0.374-0.22,0.506l-4.25,4.015c-0.265,0.249-0.679,0.254-0.95,0.011l-9.452-8.55V74.25 C53.867,74.637,53.553,74.95,53.167,74.95z M48.45,73.55h4.016V36.924c0-0.276,0.163-0.527,0.416-0.64 c0.253-0.113,0.549-0.064,0.754,0.12l10.142,9.174l3.246-3.065L50.582,26.719L33.993,42.515l3.242,3.062l10.043-9.156 c0.205-0.187,0.501-0.235,0.754-0.123s0.417,0.363,0.417,0.641V73.55z"/></g><g><path fill="#472b29" d="M44,74.901v-22c0-0.276,0.224-0.5,0.5-0.5s0.5,0.224,0.5,0.5v22c0,0.276-0.224,0.5-0.5,0.5 S44,75.177,44,74.901z"/></g><g><path fill="#472b29" d="M44,50.901v-1c0-0.276,0.224-0.5,0.5-0.5s0.5,0.224,0.5,0.5v1c0,0.276-0.224,0.5-0.5,0.5 S44,51.177,44,50.901z"/></g><g><path fill="#472b29" d="M44,47.901v-4c0-0.276,0.224-0.5,0.5-0.5s0.5,0.224,0.5,0.5v4c0,0.276-0.224,0.5-0.5,0.5 S44,48.177,44,47.901z"/></g></svg>