<svg width="20" height="20" viewBox="0 0 20 20" fill="none" xmlns="http://www.w3.org/2000/svg">
<path d="M10 0.4C4.69802 0.4 0.400024 4.698 0.400024 10C0.400024 15.302 4.69802 19.6 10 19.6C15.302 19.6 19.6 15.302 19.6 10C19.6 4.698 15.302 0.4 10 0.4ZM7.65002 13.979H5.70602V7.723H7.65002V13.979ZM6.66602 6.955C6.05202 6.955 5.65502 6.52 5.65502 5.982C5.65502 5.433 6.06402 5.011 6.69102 5.011C7.31802 5.011 7.70202 5.433 7.71402 5.982C7.71402 6.52 7.31802 6.955 6.66602 6.955ZM14.75 13.979H12.806V10.512C12.806 9.705 12.524 9.157 11.821 9.157C11.284 9.157 10.965 9.528 10.824 9.885C10.772 10.012 10.759 10.192 10.759 10.371V13.978H8.81402V9.718C8.81402 8.937 8.78902 8.284 8.76302 7.722H10.452L10.541 8.591H10.58C10.836 8.183 11.463 7.581 12.512 7.581C13.791 7.581 14.75 8.438 14.75 10.28V13.979V13.979Z" fill="black"/>
</svg>
