<svg xmlns="http://www.w3.org/2000/svg" width="30" height="30" fill="none" viewBox="0 0 30 30"><path fill="#0ACF83" d="M7.5 30C11.64 30 15 27.76 15 25V20H7.5C3.36 20 0 22.24 0 25C0 27.76 3.36 30 7.5 30Z"/><path fill="#A259FF" d="M0 15C0 12.24 3.36 10 7.5 10H15V20H7.5C3.36 20 0 17.76 0 15Z"/><path fill="#F24E1E" d="M0 5C0 2.24 3.36 0 7.5 0H15V10H7.5C3.36 10 0 7.76 0 5Z"/><path fill="#FF7262" d="M15 0H22.5C26.64 0 30 2.24 30 5C30 7.76 26.64 10 22.5 10H15V0Z"/><path fill="#1ABCFE" d="M30 15C30 17.76 26.64 20 22.5 20C18.36 20 15 17.76 15 15C15 12.24 18.36 10 22.5 10C26.64 10 30 12.24 30 15Z"/></svg>