<svg width="48" height="48" viewBox="0 0 48 48" fill="none" xmlns="http://www.w3.org/2000/svg">
<path d="M24 12.3896C11.3475 12.3896 1.08972 17.5879 1.08972 24C1.08972 30.4121 11.3475 35.6104 24 35.6104C36.6525 35.6104 46.9102 30.4121 46.9102 24C46.9102 17.5879 36.6525 12.3896 24 12.3896V12.3896ZM18.0386 26.262C17.4918 26.7735 16.8847 26.9846 16.2161 27.2021C15.5475 27.42 14.6966 27.375 13.662 27.375H11.3171L10.6672 31.125H7.92935L10.3725 18.375H15.6375C17.2215 18.375 18.3768 18.8306 19.1032 19.662C19.8296 20.4934 20.0478 21.6735 19.7583 23.1634C19.6387 23.7772 19.4373 24.348 19.1531 24.8565C18.8685 25.3654 18.4968 25.8405 18.0386 26.262V26.262ZM26.0302 27.375L27.1106 21.9675C27.2336 21.3345 27.1886 20.8642 26.9752 20.6344C26.7615 20.4041 26.307 20.25 25.6121 20.25H23.4408L22.0417 27.375H19.3252L21.7683 15H24.4848L23.8353 18.375H26.2552C27.7781 18.375 28.8281 18.6806 29.406 19.2116C29.9838 19.7426 30.1571 20.4701 29.9261 21.6596L28.7895 27.375H26.0302V27.375ZM41.1273 23.1832C41.0081 23.7971 40.8063 24.3581 40.5225 24.8662C40.2382 25.3751 39.867 25.8405 39.4083 26.262C38.8616 26.7735 38.2541 26.9846 37.5858 27.2021C36.9176 27.42 36.066 27.375 35.0313 27.375H32.6865L32.037 31.125H29.2991L31.7418 18.375H37.0072C38.5912 18.375 39.7466 18.8306 40.4726 19.662C41.1982 20.4934 41.4168 21.6937 41.1273 23.1832V23.1832ZM35.9696 20.25H34.0942L33.0716 25.5H34.7374C35.8406 25.5 36.6634 25.3912 37.2034 24.975C37.7441 24.5595 38.1082 23.9145 38.2976 22.9421C38.4791 22.008 38.3966 21.2794 38.0501 20.8954C37.7032 20.5114 37.0098 20.25 35.9696 20.25V20.25ZM14.6002 20.25H12.7245L11.7018 25.5H13.3672C14.4708 25.5 15.2932 25.3912 15.8336 24.975C16.374 24.5595 16.7385 23.9145 16.9275 22.9421C17.109 22.008 17.0265 21.2794 16.68 20.8954C16.3335 20.5114 15.6405 20.25 14.6002 20.25Z" fill="#6181B6"/>
</svg>
