<svg xmlns="http://www.w3.org/2000/svg" width="48" height="48" fill="none" viewBox="0 0 48 48"><g clip-path="url(#clip0)"><path fill="#F34E39" d="M48 7.84402C47.682 7.45802 47.27 6.93802 46.864 6.41202L46.74 6.24202V6.22202C46.24 5.54202 45.88 5.64202 45.48 5.74202C45.08 5.84202 35.94 7.48202 35.38 7.54202C34.82 7.64202 35 7.94202 35.24 8.26202L43.24 19.266L48 18.128V7.84402ZM0.04 29.652L8.7 27.572C9.4 27.412 9.22 27.332 8.88 26.712L0.04 11.444V29.652ZM6.4 48H20.78C18.9 44.938 13.78 35.694 11.12 30.872H11.1V30.852L0 33.754V41.618C0.012 45.144 2.872 48 6.4 48Z"/><path fill="#F34E39" d="M48 25.55V21.168L45.3 21.91L45.5 22.19L48 25.55Z"/><path fill="#F34E39" d="M40.32 19.968L31.26 7.122C30.5 6.062 31.26 5.582 32.5 5.382C33.7 5.162 44.18 3.402 45.1 3.282C45.84 3.162 46.46 2.922 47.5 3.882C46.54 1.6 44.28 0 41.64 0H6.40001C6.39801 0 6.39401 0 6.39001 0C3.29401 0 0.716015 2.212 0.140015 5.182L12.92 26.53L40.32 19.968ZM48 30.252L42.88 23.25C42.56 22.75 42.38 22.65 41.6 22.91L14.88 29.872C14.88 29.872 23.08 44.078 23.7 44.978C24.34 45.898 24.72 45.818 25.22 45.618C25.58 45.458 40.82 40.296 48 37.874V30.252ZM47.98 42.118L31.6 47.98H41.64C45 47.98 47.74 45.378 47.98 42.118Z"/></g><defs><clipPath id="clip0"><rect width="48" height="48" fill="#fff"/></clipPath></defs></svg>