<svg xmlns="http://www.w3.org/2000/svg" width="16" height="16" fill="none" viewBox="0 0 16 16"><path fill="#C69" fill-rule="evenodd" d="M8 1C9.38447 1 10.7378 1.41054 11.889 2.17971C13.0401 2.94888 13.9373 4.04213 14.4672 5.32122C14.997 6.6003 15.1356 8.00777 14.8655 9.36563C14.5954 10.7235 13.9287 11.9708 12.9497 12.9497C11.9708 13.9287 10.7235 14.5954 9.36563 14.8655C8.00777 15.1356 6.6003 14.997 5.32122 14.4672C4.04213 13.9373 2.94888 13.0401 2.17971 11.889C1.41054 10.7378 1 9.38447 1 8C1 6.14348 1.7375 4.36301 3.05025 3.05025C4.36301 1.7375 6.14348 1 8 1V1Z" clip-rule="evenodd"/><path fill="#fff" d="M12.391 3.996C12.074 2.753 10.0125 2.346 8.06147 3.037C6.83963 3.44757 5.71076 4.0951 4.73947 4.9425C3.66497 5.9475 3.49347 6.8225 3.56397 7.188C3.81397 8.478 5.58047 9.321 6.30697 9.9465V9.95C6.09297 10.0555 4.52497 10.85 4.15697 11.66C3.76997 12.516 4.21847 13.13 4.51597 13.2125C4.96263 13.32 5.43175 13.285 5.85751 13.1124C6.28327 12.9398 6.64431 12.6382 6.88997 12.25C7.093 11.9355 7.22002 11.578 7.26099 11.2058C7.30195 10.8337 7.25572 10.4572 7.12597 10.106C7.47591 10.0171 7.83966 9.9962 8.19747 10.0445C9.42547 10.188 9.66647 10.9545 9.62047 11.2755C9.59884 11.3898 9.55285 11.498 9.48564 11.5929C9.41843 11.6878 9.33157 11.7672 9.23097 11.8255C9.14497 11.879 9.11847 11.897 9.12597 11.937C9.13647 11.9945 9.17597 11.9925 9.24947 11.98C9.43401 11.9219 9.59661 11.8092 9.71586 11.6569C9.8351 11.5045 9.90539 11.3196 9.91747 11.1265C9.94697 10.3765 9.22647 9.5335 7.95047 9.555C7.57987 9.54442 7.21006 9.5951 6.85597 9.705C6.83825 9.68475 6.82025 9.66475 6.80197 9.645C6.01297 8.8035 4.55497 8.208 4.61647 7.0765C4.63897 6.665 4.78197 5.582 7.41647 4.268C9.57647 3.1915 11.3055 3.488 11.6045 4.1445C12.0315 5.0825 10.6805 6.825 8.43747 7.0765C8.18956 7.12683 7.9335 7.12069 7.68828 7.05854C7.44307 6.99639 7.21499 6.87983 7.02097 6.7175C6.90297 6.5875 6.88547 6.582 6.84147 6.606C6.76997 6.6455 6.81547 6.7605 6.84147 6.8285C6.92736 6.98329 7.04329 7.11937 7.18247 7.22875C7.32165 7.33814 7.48127 7.41863 7.65197 7.4655C8.53386 7.65712 9.4537 7.56615 10.281 7.2055C11.6415 6.681 12.7025 5.2185 12.391 3.996V3.996ZM6.60897 10.3315C6.70828 10.6738 6.70323 11.038 6.59447 11.3775C6.58281 11.4128 6.56997 11.4478 6.55597 11.4825C6.54197 11.5172 6.52681 11.5505 6.51047 11.5825C6.42633 11.7547 6.31733 11.9135 6.18697 12.054C5.78047 12.4975 5.21197 12.6655 4.96847 12.524C4.70547 12.3715 4.83697 11.746 5.30847 11.2475C5.67077 10.8892 6.08846 10.5918 6.54547 10.3665L6.60897 10.3315Z"/></svg>