<svg width="48" height="48" viewBox="0 0 48 48" fill="none" xmlns="http://www.w3.org/2000/svg">
<path d="M24 13.058C17.958 13.064 13.064 17.958 13.058 23.998C13.064 30.038 17.958 34.932 23.998 34.938C30.038 34.932 34.932 30.038 34.938 23.998C34.928 17.96 30.036 13.068 24 13.058Z" fill="#4E8FF6"/>
<path d="M39.7 14.032C42.4548 14.032 44.688 11.7988 44.688 9.04401C44.688 6.28922 42.4548 4.05602 39.7 4.05602C36.9452 4.05602 34.712 6.28922 34.712 9.04401C34.712 11.7988 36.9452 14.032 39.7 14.032Z" fill="#4E8FF6"/>
<path d="M24 48C37.238 48 48 37.238 48 24C48 20.54 47.278 17.194 45.844 14.054L45.842 14.052L45.636 13.592L45.298 13.968C44.482 14.896 43.442 15.608 42.288 16.04L41.97 16.162L42.102 16.472C43.05 18.686 43.602 21.264 43.602 23.97C43.602 23.978 43.602 23.984 43.602 23.99C43.602 34.8 34.808 43.602 23.99 43.602C13.172 43.602 4.386 34.808 4.386 23.998C4.386 13.188 13.19 4.386 23.998 4.386C26.932 4.386 29.764 5.024 32.398 6.28L32.708 6.43L32.84 6.12C33.348 4.956 34.1 3.98 35.038 3.226L35.052 3.214L35.446 2.896L34.996 2.662C31.82 0.984 28.052 0 24.056 0C24.038 0 24.018 0 24 0C10.762 0 0 10.762 0 24C0 37.238 10.762 48 24 48Z" fill="#4E8FF6"/>
</svg>
