<svg xmlns="http://www.w3.org/2000/svg" width="48" height="48" fill="none" viewBox="0 0 48 48"><path fill="#3B97CF" d="M36.7999 34.52C36.3999 34.32 35.6 34.12 35 33.72C34.4 36.12 33.8 38.92 33.2 41.92L45.7999 39.92L41.5999 11.72L41.4 11.92C40.6 12.72 39.5999 15.32 37.5999 22.92H37.7999L38.4 26.12L36.7999 26.32C36.5999 27.32 36.4 28.32 36 29.52C39.4 31.32 37.6 35.72 37.4 35.72C37.2 35.72 37.2 35.72 37.2 35.52C37.2 35.32 37.3999 34.72 36.7999 34.52Z"/><path fill="#CFD8DC" d="M47.4 8.52C47 9.72 46.4 11.12 46 11.12C45.4 11.12 44 10.72 43.6 10.12C43.4 9.72 42.8 9.12 41.8 9.12C41.2 9.12 40.8 9.52 40 9.92C38.76 10.9 37.22 15.34 35.72 20.78L32.76 20.28C34.08 16.2 35.08 12.82 35.2 11.52C35.2 10.92 35.4 8.12 33.6 5.92C32.4 4.72 31.2 4.32 30 4.32C29 4.32 27.8 4.72 27 4.72C26.6 4.72 26 4.92 26 4.92C26 4.92 25.8 4.92 25.8 4.72C25.8 4.4 26.42 4.08 26.68 3.96C26.44 4 25.96 4.12 25.8 4.12C25.6 4.12 25.6 3.92 25.8 3.72C26 3.72 26.6 3.52 26.8 3.32C27.6 2.92 28.2 2.72 29 2.52C30.8 1.92 32.8 1.92 34.6 2.12C35.8 2.12 37.2 2.12 38.4 2.52C39.6 2.92 40.8 3.32 41.8 4.32C42.4 4.92 43.2 5.52 44 5.52C44.8 5.52 45.2 5.32 45.4 5.12C45.8 5.12 47.4 5.52 47.6 5.72C47.8 5.92 47.8 7.32 47.4 8.52Z"/><path fill="#3B97CF" d="M20.2 12.52C20.8 12.12 21.6 12.12 22 12.72L29.6 21.52C31.2 16.72 32.6 12.52 32.6 11.12C32.8 10.72 32.8 9.31998 32.2 7.91998L0 12.92L5.2 46.32L22.4 43.52C22.2 42.12 26.8 30.12 27.6 27.92L18.8 29.32L20 25.72L26.2 24.72L27.8 26.72C27.8 26.72 28.2 25.72 28.2 25.32L19.6 14.72C19.2 14.12 19.2 13.32 19.8 12.92L20.2 12.52ZM8.2 27.72L13.6 26.72L12.2 30.32L8.6 30.92L8.2 27.72ZM19.8 17.52L20.4 17.72C21.2 17.92 21.4 18.72 21.2 19.52L15.2 35.52L11.6 40.32L12 34.32L18 18.32C18.2 17.52 19 17.32 19.8 17.52Z"/><path fill="#1F2228" d="M35.72 20.78C32.94 31.02 30.34 44.8 30.2 45.72C29.8 46.52 29 47.12 26.8 46.52C24.6 45.92 24.6 44.92 25 43.12C25.28 41.88 29.84 29.32 32.76 20.28L35.72 20.78Z"/></svg>