<?xml version="1.0" encoding="UTF-8"?>
<svg xmlns="http://www.w3.org/2000/svg" xmlns:xlink="http://www.w3.org/1999/xlink" width="18pt" height="18pt" viewBox="0 0 18 18" version="1.1">
<g id="surface25451863">
<path style=" stroke:none;fill-rule:nonzero;fill:rgb(100%,100%,100%);fill-opacity:1;" d="M 1.078125 2.519531 L 1.078125 14.039062 L 9.359375 14.039062 L 9.359375 13.320312 L 1.800781 13.320312 L 1.800781 12.59375 L 6.410156 8.945312 C 6.785156 9.273438 7.472656 9.871094 7.558594 9.949219 C 8.109375 10.425781 8.691406 10.546875 9.0625 10.546875 C 9.4375 10.546875 10.019531 10.425781 10.566406 9.949219 C 10.992188 9.578125 15.183594 5.921875 16.199219 5.039062 L 16.199219 11.160156 L 16.921875 11.878906 L 16.921875 2.519531 Z M 1.800781 3.238281 L 16.199219 3.238281 L 16.199219 4.082031 C 15.828125 4.410156 10.550781 9.007812 10.09375 9.40625 C 9.691406 9.757812 9.28125 9.828125 9.0625 9.828125 C 8.84375 9.828125 8.4375 9.753906 8.03125 9.40625 C 7.5625 8.996094 1.957031 4.113281 1.800781 3.972656 Z M 1.800781 4.925781 C 2.410156 5.460938 4.21875 7.035156 5.859375 8.464844 L 1.800781 11.675781 Z M 14.035156 10.796875 C 13.890625 10.796875 13.757812 10.886719 13.703125 11.019531 C 13.648438 11.15625 13.679688 11.3125 13.785156 11.414062 L 15.691406 13.320312 L 10.800781 13.320312 L 10.800781 14.039062 L 15.691406 14.039062 L 13.785156 15.945312 C 13.691406 16.035156 13.652344 16.171875 13.6875 16.296875 C 13.71875 16.421875 13.816406 16.519531 13.945312 16.554688 C 14.070312 16.585938 14.203125 16.546875 14.292969 16.453125 L 17.070312 13.679688 L 14.292969 10.90625 C 14.226562 10.835938 14.132812 10.796875 14.035156 10.796875 Z M 14.035156 10.796875 "/>
</g>
</svg>
