<?xml version="1.0" encoding="UTF-8"?>
<svg xmlns="http://www.w3.org/2000/svg" xmlns:xlink="http://www.w3.org/1999/xlink" width="24pt" height="24pt" viewBox="0 0 24 24" version="1.1">
<g id="surface25450508">
<path style=" stroke:none;fill-rule:nonzero;fill:rgb(100%,100%,100%);fill-opacity:1;" d="M 1.441406 3.359375 L 1.441406 18.71875 L 12.480469 18.71875 L 12.480469 17.761719 L 2.398438 17.761719 L 2.398438 16.789062 L 8.546875 11.929688 C 9.046875 12.363281 9.964844 13.164062 10.078125 13.265625 C 10.8125 13.902344 11.585938 14.0625 12.085938 14.0625 C 12.582031 14.0625 13.359375 13.902344 14.089844 13.265625 C 14.660156 12.769531 20.246094 7.898438 21.601562 6.71875 L 21.601562 14.878906 L 22.558594 15.839844 L 22.558594 3.359375 Z M 2.398438 4.320312 L 21.601562 4.320312 L 21.601562 5.445312 C 21.101562 5.878906 14.070312 12.007812 13.460938 12.539062 C 12.921875 13.007812 12.375 13.101562 12.085938 13.101562 C 11.792969 13.101562 11.25 13.007812 10.710938 12.539062 C 10.082031 11.996094 2.613281 5.484375 2.398438 5.296875 Z M 2.398438 6.570312 C 3.214844 7.28125 5.625 9.382812 7.8125 11.289062 L 2.398438 15.566406 Z M 18.714844 14.394531 C 18.519531 14.394531 18.34375 14.515625 18.269531 14.695312 C 18.195312 14.875 18.238281 15.082031 18.378906 15.21875 L 20.921875 17.761719 L 14.398438 17.761719 L 14.398438 18.71875 L 20.921875 18.71875 L 18.378906 21.261719 C 18.253906 21.378906 18.203125 21.5625 18.25 21.726562 C 18.292969 21.894531 18.421875 22.027344 18.59375 22.070312 C 18.757812 22.117188 18.9375 22.066406 19.058594 21.9375 L 22.757812 18.238281 L 19.058594 14.539062 C 18.96875 14.445312 18.84375 14.394531 18.714844 14.394531 Z M 18.714844 14.394531 "/>
</g>
</svg>
