<svg xmlns="http://www.w3.org/2000/svg" xmlns:xlink="http://www.w3.org/1999/xlink" id="c9110790-68f5-421a-bd61-01bf55405315" x="0" y="0" version="1.1" viewBox="0 0 915.35 848.79" xml:space="preserve" style="enable-background:new 0 0 915.35 848.79"><style type="text/css">.st0{fill:#5b9889}.st1{opacity:.4;enable-background:new}.st2{fill:#a0d1ca}.st3{fill:#720423}.st4{fill:#c47088}.st4,.st5,.st6{opacity:.1;enable-background:new}.st5{fill:#ceafba}.st6{display:none;fill:#c47088}.st7{fill:url(#SVGID_1_)}.st8{fill:url(#SVGID_2_)}.st9{fill:#e4c5a8}.st10{opacity:.1;enable-background:new}.st11{fill:#18181e}.st12{fill:#414142}.st13{opacity:.1}.st14{fill:#e4dea5}.st15{fill:#fff}.st16{fill:#3f3d56}.st17{fill:#ffd037}.st18{fill:#a8a8a8}.st19{opacity:.2;enable-background:new}.st20{fill:none;stroke:#535461;stroke-width:2;stroke-miterlimit:10}</style><ellipse cx="491.87" cy="831.88" class="st0" rx="221.12" ry="16.91"/><ellipse cx="491.87" cy="831.88" class="st1" rx="221.12" ry="16.91"/><path d="M282.67,82.47c31-27.67,79.77-33.31,124.15-31.08c139.37,6.92,265.19,74.21,374,150.32	c39.39,27.56,78.18,57.25,103.76,95.19c52.06,77.24,36.61,184.25-35.78,247.88c-24.63,21.65-54.48,38.25-85.13,53	c-54.5,26.16-113.31,47.16-175.16,53.13c-44.11,4.27-88.77,0.8-132.62-5.15c-122.5-16.68-242.76-53.37-343.56-116.29	C68.12,501.9,26.45,467.63,8.23,423.02S1.67,321.9,46.81,295.5c18.67-10.92,41-15.85,62.85-20.48	c32.17-6.82,64.86-13.54,93.89-27.39c30-14.32,65.48-42,59.55-73.67C256.73,139.97,251.67,110.11,282.67,82.47z" class="st2"/><path d="M282.67,82.47c31-27.67,79.77-33.31,124.15-31.08c139.37,6.92,265.19,74.21,374,150.32	c39.39,27.56,78.18,57.25,103.76,95.19c52.06,77.24,36.61,184.25-35.78,247.88c-24.63,21.65-54.48,38.25-85.13,53	c-54.5,26.16-113.31,47.16-175.16,53.13c-44.11,4.27-88.77,0.8-132.62-5.15c-122.5-16.68-242.76-53.37-343.56-116.29	C68.12,501.9,26.45,467.63,8.23,423.02S1.67,321.9,46.81,295.5c18.67-10.92,41-15.85,62.85-20.48	c32.17-6.82,64.86-13.54,93.89-27.39c30-14.32,65.48-42,59.55-73.67C256.73,139.97,251.67,110.11,282.67,82.47z" class="st1"/><path d="M590.15,72.95v0.62c0,0.17,0,0.35,0,0.53s0,0.43,0,0.64c0,0.51,0,1-0.07,1.54v0.32c0,0.43-0.05,0.86-0.09,1.28	v0.37c0,0.07,0,0.13,0,0.2c0,0.39-0.06,0.78-0.1,1.17s-0.07,0.62-0.1,0.94c-0.09,0.77-0.19,1.54-0.31,2.31	c-0.07,0.51-0.15,1-0.23,1.52c0,0.04,0,0.07,0,0.11c-0.05,0.25-0.09,0.5-0.14,0.76s-0.05,0.29-0.08,0.44s0,0.26-0.08,0.4	s-0.1,0.54-0.16,0.8s-0.11,0.53-0.17,0.8s-0.08,0.39-0.13,0.59s-0.15,0.67-0.23,1c0,0.02,0,0.04,0,0.06l-0.18,0.69l-0.21,0.84	c-0.09,0.34-0.19,0.68-0.28,1c0,0.1,0,0.18-0.08,0.27l-0.3,1c-0.32,1.06-0.67,2.12-1,3.17l-0.36,1l-0.21,0.55	c-2.4,6.27-5.69,12.17-9.75,17.52c-0.24,0.34-0.5,0.67-0.75,1c-1.9,2.46-3.96,4.8-6.15,7L466.74,225.65L364.5,123.39	c-2.93-2.94-5.61-6.12-8-9.52c-1.51-2.13-2.9-4.35-4.16-6.64c-6.92-12.54-9.96-26.84-8.74-41.11c0.11-1.31,0.26-2.62,0.44-3.92	c0.32-2.3,0.76-4.59,1.3-6.86c0.11-0.46,0.23-0.92,0.35-1.37c0.06-0.23,0.12-0.47,0.18-0.69s0.07-0.28,0.11-0.42l0.3-1l0,0l0,0	c0.24-0.79,0.48-1.58,0.74-2.37l0.37-1.08c0.54-1.53,1.12-3,1.76-4.54l0.39-0.89c0.2-0.45,0.4-0.9,0.61-1.35	c0.34-0.72,0.69-1.44,1-2.15l0.09-0.16l0,0l0,0c0.16-0.33,0.33-0.64,0.5-1l0.59-1.09c0.25-0.45,0.51-0.9,0.77-1.35	c0.12-0.21,0.25-0.42,0.37-0.64s0.15-0.23,0.22-0.36c0-0.02,0-0.05,0-0.07l0,0c0.16-0.26,0.32-0.52,0.49-0.78s0.37-0.59,0.56-0.88	c0.42-0.65,0.85-1.3,1.29-1.94l0.47-0.67l0.59-0.81c0.2-0.29,0.41-0.57,0.63-0.85l0.76-1c0.24-0.29,0.47-0.59,0.7-0.88l0.25-0.3	l0.51-0.62c0.26-0.32,0.53-0.63,0.8-0.94l0.35-0.41l0.06-0.07l0.61-0.68l0.68-0.75c0.64-0.69,1.3-1.38,2-2l0.79-0.78l1.23-1.16	c0.27-0.25,0.54-0.5,0.82-0.74c0.28-0.24,0.64-0.58,1-0.86l0.64-0.54c0.21-0.19,0.43-0.37,0.64-0.54c0.43-0.36,0.87-0.71,1.3-1	l0.66-0.52c1.1-0.84,2.21-1.65,3.35-2.43l0.68-0.46l0.69-0.45l0.65-0.42l1-0.6l0.48-0.29l0.7-0.41c0.94-0.55,1.88-1.08,2.83-1.58	l0.57-0.3l0.88-0.45l0.73-0.36L384.81,7l0.73-0.35l0.74-0.33L387.02,6c1-0.43,2-0.83,3-1.21l0.65-0.4l0.8-0.29l0.71-0.25l0.6-0.2	l1.38-0.44l0.71-0.22l0.57-0.16L396,2.67c0.33-0.1,0.67-0.19,1-0.27l1.32-0.34c1.36-0.33,2.73-0.63,4.1-0.88l0.56-0.1l0.78-0.13	l0.8-0.13l1-0.15l0.59-0.08c1.32-0.17,2.64-0.31,4-0.41h0.71h0.44h0.57l0,0h0.5h0.19h0.67h0.79h3.17h0.79h0.66h0.21h0.5h0.09	c0.32,0,0.65,0,1,0.06h0.11h0.57c1.06,0.08,2.12,0.19,3.17,0.31l1.42,0.19l1,0.14l0.79,0.13l0.79,0.13l0.52,0.09	c1.37,0.25,2.73,0.54,4.08,0.87l1.66,0.43l0.46,0.13l0.71,0.2c0.46,0.13,0.92,0.26,1.37,0.41l0.6,0.19c1,0.31,2,0.64,3,1l0.68,0.25	l0.89,0.34l1.34,0.54c0.52,0.22,1,0.44,1.53,0.67l0.6,0.26l0.82,0.39l0.73,0.34L448,7.61l0.91,0.46l0.72,0.38	c0.56,0.3,1.12,0.6,1.67,0.92l0.7,0.4c0.82,0.47,1.62,1,2.42,1.47l0.65,0.42l0.69,0.45l0.68,0.46l0,0l0.45,0.31	c1,0.67,1.91,1.37,2.85,2.09l0.66,0.52c0.43,0.34,0.87,0.69,1.3,1c0.21,0.17,0.43,0.35,0.64,0.54l0.64,0.54l1,0.86	c0.28,0.24,0.55,0.49,0.82,0.74l1.15,1.22l0.79,0.78l0.8-0.78l1.22-1.16c0.27-0.25,0.54-0.5,0.82-0.74s0.64-0.58,1-0.86l0.64-0.54	c0.21-0.19,0.43-0.37,0.64-0.54c0.43-0.36,0.87-0.71,1.3-1l0.66-0.52c1.1-0.84,2.21-1.65,3.35-2.43l0.68-0.46l0.69-0.45l0.65-0.42	l0.95-0.6l0.48-0.29l0.7-0.41c0.94-0.55,1.88-1.08,2.83-1.58l0.57-0.3l0.88-0.45l0.73-0.36l0.73-0.34l0.73-0.35l0.74-0.33l0.74-0.32	c1-0.43,2-0.83,3-1.21c0.24-0.09,0.49-0.19,0.74-0.27l0.79-0.29l0.72-0.25l0.59-0.2l1.38-0.44l0.71-0.22l0.57-0.16l0.56-0.16	c0.33-0.1,0.66-0.19,1-0.27l1.31-0.34c1.36-0.33,2.73-0.63,4.1-0.88l0.56-0.1l0.78-0.13l0.8-0.13l1-0.15l0.59-0.08	c1.32-0.17,2.64-0.31,4-0.41h0.71h0.44h0.57l0,0h0.49h0.2h0.66h0.79h3.17h0.79h0.66h0.21h0.5h0.01c0.32,0,0.65,0,1,0.06h0.11h0.57	c1.06,0.08,2.12,0.19,3.17,0.31l1.42,0.19l1,0.14l0.79,0.13l0.79,0.13l0.52,0.09c1.37,0.25,2.73,0.54,4.08,0.87l1.66,0.43l0.46,0.13	l0.71,0.2c0.46,0.13,0.92,0.26,1.38,0.41l0.59,0.19c1,0.31,2,0.65,3,1l0.67,0.25l0.89,0.34l1.34,0.54c0.52,0.22,1,0.44,1.53,0.67	l0.6,0.26l0.82,0.39l0.73,0.34l0.72,0.36l0.91,0.46l0.73,0.38c0.55,0.3,1.11,0.6,1.66,0.92l0.7,0.4c0.82,0.47,1.63,1,2.42,1.47	l0.65,0.42l0.69,0.45l0.68,0.46h0.05l0.45,0.31c1,0.67,1.91,1.37,2.85,2.09l0.66,0.52c0.43,0.34,0.87,0.69,1.3,1	c0.21,0.17,0.43,0.35,0.64,0.54l0.64,0.54l0.83,0.74c0.28,0.25,0.56,0.5,0.83,0.76l0.47,0.43l0,0c0.03,0.02,0.05,0.04,0.07,0.07	c0.27,0.24,0.53,0.5,0.8,0.75l0.36,0.35c0.14,0.15,0.28,0.29,0.43,0.43l0.79,0.81c0.4,0.41,0.8,0.83,1.19,1.26	c0.23,0.24,0.46,0.49,0.68,0.74c0.38,0.42,0.75,0.84,1.12,1.27l1.18,1.41c1.35,1.66,2.61,3.36,3.8,5.1l0.48,0.73	c0.18,0.26,0.34,0.52,0.51,0.78l0.43,0.67c0.24,0.39,0.48,0.77,0.71,1.16l0.63,1.08c0.13,0.22,0.26,0.44,0.38,0.66l0.29,0.52	l0.29,0.52l0.42,0.79l0.41,0.79c0.94,1.84,1.79,3.72,2.56,5.63l0.33,0.81c0.31,0.79,0.6,1.57,0.88,2.37l0.25,0.72	c0.11,0.34,0.23,0.68,0.33,1s0.2,0.61,0.29,0.92l0.18,0.58c0.09,0.28,0.17,0.56,0.25,0.84s0.19,0.69,0.29,1	c0.15,0.56,0.29,1.12,0.43,1.69l0.21,0.88c0.1,0.42,0.19,0.84,0.28,1.26c0,0.18,0.07,0.36,0.11,0.54s0.1,0.48,0.14,0.72	s0.08,0.38,0.11,0.57l0.09,0.48c0,0.15,0,0.3,0.08,0.45s0,0.29,0.07,0.44l0.15,0.9c0,0.3,0.08,0.6,0.13,0.9s0.09,0.67,0.13,1	s0.08,0.64,0.11,1l0.06,0.55c0,0.33,0.07,0.66,0.1,1c0,0.16,0,0.33,0,0.49c0,0.34,0.06,0.68,0.08,1c0.01,0.02,0.01,0.05,0,0.07	c0,0.21,0,0.42,0,0.63v0.66c0,0.36,0,0.72,0.05,1.08l0,0c0,0.37,0,0.73,0,1.11C590.16,71.53,590.16,72.24,590.15,72.95z" class="st3"/><path d="M590.15,72.95v0.62c0,0.17,0,0.35,0,0.53s0,0.43,0,0.64c0,0.51,0,1-0.07,1.54v0.32c0,0.43-0.05,0.86-0.09,1.28	v0.37c0,0.07,0,0.13,0,0.2c0,0.39-0.06,0.78-0.1,1.17s-0.07,0.62-0.1,0.94c-0.09,0.77-0.19,1.54-0.31,2.31	c-0.07,0.51-0.15,1-0.23,1.52c0,0.04,0,0.07,0,0.11c-0.05,0.25-0.09,0.5-0.14,0.76s-0.05,0.29-0.08,0.44s0,0.26-0.08,0.4	s-0.1,0.54-0.16,0.8s-0.11,0.53-0.17,0.8s-0.08,0.39-0.13,0.59s-0.15,0.67-0.23,1c0,0.02,0,0.04,0,0.06l-0.18,0.69l-0.21,0.84	c-0.09,0.34-0.19,0.68-0.28,1c0,0.1,0,0.18-0.08,0.27l-0.3,1c-0.32,1.06-0.67,2.12-1,3.17l-0.36,1l-0.21,0.55	c7.24-30.07-5.44-61.41-31.54-78c-1.3-0.83-2.61-1.61-3.94-2.34c-28.24-15.54-63.37-10.5-86.1,12.36c-2.74-2.73-5.69-5.24-8.83-7.5	l0,0c-2.39-1.73-4.89-3.32-7.48-4.74c-21.69-11.88-47.93-11.88-69.62,0c-3.61,1.99-7.05,4.28-10.27,6.86	c-5.34,4.26-10.05,9.24-14,14.81c-1.44,2.02-2.77,4.11-4,6.26c0,0.03,0,0.06,0,0.09c-1.13,2.01-2.16,4.08-3.09,6.19	c-0.52,1.16-1,2.34-1.45,3.52c0.11-0.46,0.23-0.92,0.35-1.37c0.06-0.23,0.12-0.47,0.18-0.69s0.07-0.28,0.11-0.42l0.3-1l0,0	c0.24-0.79,0.48-1.58,0.74-2.37l0.37-1.08c0.54-1.53,1.12-3,1.76-4.54l0.39-0.89c0.2-0.45,0.4-0.9,0.61-1.35	c0.34-0.72,0.69-1.44,1-2.15l0.09-0.16l0,0l0,0c0.16-0.33,0.33-0.64,0.5-1l0.59-1.09c0.25-0.45,0.51-0.9,0.77-1.35	c0.12-0.21,0.25-0.42,0.37-0.64s0.15-0.23,0.22-0.36c0-0.02,0-0.05,0-0.07l0,0c0.16-0.26,0.32-0.52,0.49-0.78s0.37-0.59,0.56-0.88	c0.42-0.65,0.85-1.3,1.29-1.94l0.47-0.67l0.59-0.81c0.2-0.29,0.41-0.57,0.63-0.85l0.76-1c0.24-0.29,0.47-0.59,0.7-0.88l0.25-0.3	l0.51-0.62c0.26-0.32,0.53-0.63,0.8-0.94l0.35-0.41l0.06-0.07l0.61-0.68l0.68-0.75c0.64-0.69,1.3-1.38,2-2l0.79-0.78l1.23-1.16	c0.27-0.25,0.54-0.5,0.82-0.74c0.28-0.24,0.64-0.58,1-0.86l0.64-0.54c0.21-0.19,0.43-0.37,0.64-0.54c0.43-0.36,0.87-0.71,1.3-1	l0.66-0.52c1.1-0.84,2.21-1.65,3.35-2.43l0.68-0.46l0.69-0.45l0.65-0.42l1-0.6l0.48-0.29l0.7-0.41c0.94-0.55,1.88-1.08,2.83-1.58	l0.57-0.3l0.88-0.45l0.73-0.36l0.73-0.34l0.73-0.35l0.74-0.33L387,6.04c1-0.43,2-0.83,3-1.21l0.67-0.44l0.8-0.29l0.71-0.25l0.6-0.2	l1.38-0.44l0.71-0.22l0.57-0.16L396,2.67c0.33-0.1,0.67-0.19,1-0.27l1.32-0.34c1.36-0.33,2.73-0.63,4.1-0.88l0.56-0.1l0.78-0.13	l0.8-0.13l1-0.15l0.59-0.08c1.32-0.17,2.64-0.31,4-0.41h0.71h0.44h0.57l0,0h0.5h0.19h0.67h0.79h3.17h0.79h0.66h0.21h0.5h0.09	c0.32,0,0.65,0,1,0.06h0.11h0.57c1.06,0.08,2.12,0.19,3.17,0.31l1.42,0.19l1,0.14l0.79,0.13l0.79,0.13l0.52,0.09	c1.37,0.25,2.73,0.54,4.08,0.87l1.66,0.43l0.46,0.13l0.71,0.2c0.46,0.13,0.92,0.26,1.37,0.41l0.6,0.19c1,0.31,2,0.64,3,1l0.68,0.25	l0.89,0.34l1.34,0.54c0.52,0.22,1,0.44,1.53,0.67l0.6,0.26l0.82,0.39l0.73,0.34L448,7.61l0.91,0.46l0.72,0.38	c0.56,0.3,1.12,0.6,1.67,0.92l0.7,0.4c0.82,0.47,1.62,1,2.42,1.47l0.65,0.42l0.69,0.45l0.68,0.46l0,0l0.45,0.31	c1,0.67,1.91,1.37,2.85,2.09l0.66,0.52c0.43,0.34,0.87,0.69,1.3,1c0.21,0.17,0.43,0.35,0.64,0.54l0.64,0.54l1,0.86	c0.28,0.24,0.55,0.49,0.82,0.74l1.15,1.22l0.79,0.78l0.8-0.78l1.22-1.16c0.27-0.25,0.54-0.5,0.82-0.74s0.64-0.58,1-0.86l0.64-0.54	c0.21-0.19,0.43-0.37,0.64-0.54c0.43-0.36,0.87-0.71,1.3-1l0.66-0.52c1.1-0.84,2.21-1.65,3.35-2.43l0.68-0.46l0.69-0.45l0.65-0.42	l0.95-0.6l0.48-0.29l0.7-0.41c0.94-0.55,1.88-1.08,2.83-1.58l0.57-0.3l0.88-0.45l0.73-0.36l0.73-0.34l0.73-0.35l0.74-0.33l0.74-0.32	c1-0.43,2-0.83,3-1.21c0.24-0.09,0.49-0.19,0.74-0.27l0.79-0.29l0.72-0.25l0.59-0.2l1.38-0.44l0.71-0.22l0.57-0.16l0.56-0.16	c0.33-0.1,0.66-0.19,1-0.27l1.31-0.34c1.36-0.33,2.73-0.63,4.1-0.88l0.56-0.1l0.78-0.13l0.8-0.13l1-0.15l0.59-0.08	c1.32-0.17,2.64-0.31,4-0.41h0.71h0.44h0.57l0,0h0.49h0.2h0.66h0.79h3.17h0.79h0.66h0.21h0.5h0.01c0.32,0,0.65,0,1,0.06h0.11h0.57	c1.06,0.08,2.12,0.19,3.17,0.31l1.42,0.19l1,0.14l0.79,0.13l0.79,0.13l0.52,0.09c1.37,0.25,2.73,0.54,4.08,0.87l1.66,0.43l0.46,0.13	l0.71,0.2c0.46,0.13,0.92,0.26,1.38,0.41l0.59,0.19c1,0.31,2,0.65,3,1l0.67,0.25l0.89,0.34l1.34,0.54c0.52,0.22,1,0.44,1.53,0.67	l0.6,0.26l0.82,0.39l0.73,0.34l0.72,0.36l0.91,0.46l0.73,0.38c0.55,0.3,1.11,0.6,1.66,0.92l0.7,0.4c0.82,0.47,1.63,1,2.42,1.47	l0.65,0.42l0.69,0.45l0.68,0.46h0.05l0.45,0.31c1,0.67,1.91,1.37,2.85,2.09l0.66,0.52c0.43,0.34,0.87,0.69,1.3,1	c0.21,0.17,0.43,0.35,0.64,0.54l0.64,0.54l0.83,0.74c0.28,0.25,0.56,0.5,0.83,0.76l0.47,0.43l0,0c0.03,0.02,0.05,0.04,0.07,0.07	c0.27,0.24,0.53,0.5,0.8,0.75l0.36,0.35c0.14,0.15,0.28,0.29,0.43,0.43l0.79,0.81c0.4,0.41,0.8,0.83,1.19,1.26	c0.23,0.24,0.46,0.49,0.68,0.74c0.38,0.42,0.75,0.84,1.12,1.27l1.18,1.41c1.35,1.66,2.61,3.36,3.8,5.1l0.48,0.73	c0.18,0.26,0.34,0.52,0.51,0.78l0.43,0.67c0.24,0.39,0.48,0.77,0.71,1.16l0.63,1.08c0.13,0.22,0.26,0.44,0.38,0.66l0.29,0.52	l0.29,0.52l0.42,0.79l0.41,0.79c0.94,1.84,1.79,3.72,2.56,5.63l0.33,0.81c0.31,0.79,0.6,1.57,0.88,2.37l0.25,0.72	c0.11,0.34,0.23,0.68,0.33,1s0.2,0.61,0.29,0.92l0.18,0.58c0.09,0.28,0.17,0.56,0.25,0.84s0.19,0.69,0.29,1	c0.15,0.56,0.29,1.12,0.43,1.69l0.21,0.88c0.1,0.42,0.19,0.84,0.28,1.26c0,0.18,0.07,0.36,0.11,0.54s0.1,0.48,0.14,0.72	s0.08,0.38,0.11,0.57l0.09,0.48c0,0.15,0,0.3,0.08,0.45s0,0.29,0.07,0.44l0.15,0.9c0,0.3,0.08,0.6,0.13,0.9s0.09,0.67,0.13,1	s0.08,0.64,0.11,1l0.06,0.55c0,0.33,0.07,0.66,0.1,1c0,0.16,0,0.33,0,0.49c0,0.34,0.06,0.68,0.08,1c0.01,0.02,0.01,0.05,0,0.07	c0,0.21,0,0.42,0,0.63v0.66c0,0.36,0,0.72,0.05,1.08l0,0c0,0.37,0,0.73,0,1.11C590.16,71.53,590.16,72.24,590.15,72.95z" class="st4"/><path d="M757.48,295.8v0.35c0,0.06,0,0.13,0,0.19s0,0.32,0,0.48v0.09v0.39v0.09c0,0.02,0,0.04,0,0.06v0.35v0.29	l-0.09,0.71c0,0.15-0.05,0.31-0.07,0.46l0,0c0,0.08,0,0.16,0,0.23v0.14c0,0.04,0,0.08,0,0.12c0,0.08,0,0.17,0,0.25	c-0.01,0.08-0.03,0.16-0.05,0.24c0,0.06,0,0.12,0,0.18s0,0.21-0.07,0.31l0,0l-0.06,0.21l-0.06,0.25l-0.09,0.31c0,0,0,0.06,0,0.09	s-0.06,0.21-0.1,0.31c-0.09,0.33-0.2,0.65-0.31,1c0,0.11-0.08,0.21-0.11,0.31c-0.02,0.06-0.04,0.12-0.07,0.17	c-0.72,1.91-1.7,3.7-2.92,5.33l-0.23,0.31c-0.58,0.75-1.21,1.46-1.88,2.13l-31.55,31.24l-31.21-31.21c-0.9-0.9-1.72-1.87-2.45-2.9	c-0.46-0.64-0.88-1.31-1.27-2c-2.11-3.83-3.04-8.19-2.67-12.55c0-0.4,0.08-0.8,0.14-1.2c0.1-0.7,0.23-1.4,0.4-2.09	c0-0.14,0.06-0.28,0.1-0.42l0.06-0.21v-0.13l0.09-0.31l0,0c0.07-0.24,0.15-0.48,0.23-0.72s0.07-0.22,0.11-0.33	c0.16-0.47,0.34-0.93,0.54-1.38l0.12-0.28l0.18-0.41c0.11-0.22,0.21-0.44,0.33-0.65v-0.05l0,0l0.16-0.29l0.18-0.33	c0.07-0.14,0.15-0.28,0.23-0.42l0.12-0.19l0.06-0.11l0,0l0,0c0-0.08,0.09-0.16,0.14-0.24s0.12-0.18,0.17-0.27s0.26-0.4,0.4-0.59	l0.14-0.21l0.18-0.25l0.19-0.25l0.24-0.31l0.21-0.27l0.08-0.09l0.15-0.19l0.25-0.29l0.1-0.12l0,0l0.19-0.21	c0.06-0.08,0.14-0.15,0.21-0.23s0.39-0.42,0.6-0.63l0.24-0.23l0.37-0.36l0.25-0.23l0.3-0.26l0.19-0.16l0.2-0.17l0.39-0.32l0.21-0.16	c0.33-0.25,0.67-0.5,1-0.74l0.21-0.14l0.2-0.14l0.2-0.12l0.3-0.19l0.14-0.08l0.22-0.13c0.28-0.17,0.57-0.33,0.86-0.48l0.17-0.09	l0.27-0.14l0.22-0.11l0.23-0.11l0.22-0.1l0.22-0.1l0.23-0.1l0.91-0.37l0.23-0.08l0.24-0.09l0.22-0.08l0.18-0.06l0.42-0.13l0.22-0.07	l0.17-0.05l0.17-0.05l0.31-0.08l0.4-0.1c0.41-0.11,0.83-0.2,1.25-0.27h0.17h0.24h0.24h0.31h0.18c0.4-0.05,0.8-0.1,1.21-0.13h2.84	h0.3h0.21l1,0.1l0.44,0.06h0.29h0.24h0.24h0.16c0.42,0.07,0.83,0.16,1.25,0.26l0.5,0.13h0.14l0.22,0.06l0.42,0.13l0.18,0.05	c0.31,0.1,0.61,0.2,0.91,0.32l0.21,0.07l0.27,0.11l0.41,0.16l0.46,0.2l0.19,0.09l0.25,0.11l0.22,0.11l0.22,0.11l0.28,0.14l0.22,0.12	l0.51,0.27l0.21,0.13c0.25,0.14,0.5,0.29,0.74,0.45l0.2,0.12l0.21,0.14l0.21,0.14l0,0l0.14,0.1l0.87,0.63	c0.06,0.06,0.13,0.11,0.2,0.16l0.4,0.32l0.19,0.17l0.2,0.16l0.29,0.26l0.25,0.23l0.37,0.36c0.09,0.07,0.17,0.15,0.25,0.23	c0.07-0.08,0.15-0.16,0.24-0.23l0.37-0.36l0.25-0.23l0.29-0.26l0.2-0.16l0.19-0.17l0.4-0.32c0.07-0.05,0.14-0.1,0.2-0.16l1-0.74	l0.21-0.14l0.21-0.14l0.2-0.12l0.29-0.19l0.15-0.08l0.21-0.13c0.29-0.17,0.58-0.33,0.87-0.48l0.17-0.09l0.27-0.14l0.22-0.11	l0.22-0.11l0.23-0.1l0.22-0.1l0.23-0.1l0.91-0.37l0.23-0.08l0.24-0.09l0.22-0.08l0.18-0.06l0.42-0.13l0.22-0.07l0.17-0.05l0.17-0.05	l0.3-0.08l0.4-0.1c0.42-0.11,0.84-0.2,1.26-0.27h0.17h0.24h0.24h0.3h0.18c0.41-0.05,0.81-0.1,1.21-0.13h2.85h0.3h0.2l1,0.1	c0.15,0,0.29,0,0.43,0.06h0.3h0.24h0.24h0.16c0.41,0.07,0.83,0.16,1.24,0.26l0.51,0.13h0.14l0.22,0.06l0.42,0.13l0.18,0.05	c0.3,0.1,0.61,0.2,0.91,0.32l0.2,0.07l0.27,0.11l0.41,0.16l0.47,0.2l0.18,0.09l0.25,0.11l0.23,0.11l0.22,0.11l0.27,0.14l0.23,0.12	l0.5,0.27l0.22,0.13c0.25,0.14,0.49,0.29,0.74,0.45l0.2,0.12l0.2,0.14l0.21,0.14l0,0l0.13,0.1c0.3,0.2,0.59,0.41,0.87,0.63	l0.21,0.16l0.39,0.32l0.2,0.17l0.19,0.16l0.26,0.23l0.25,0.23l0.14,0.13l0,0l0,0l0.24,0.23l0.11,0.1l0.13,0.13l0.24,0.25l0.37,0.38	c0.07,0.08,0.14,0.15,0.2,0.23l0.35,0.39l0.36,0.43c0.41,0.5,0.8,1,1.16,1.56l0.15,0.22l0.15,0.24l0.13,0.2l0.22,0.36l0.19,0.32	l0.12,0.21l0.09,0.16l0.08,0.16c0.05,0.07,0.09,0.15,0.13,0.23l0.12,0.25c0.29,0.56,0.55,1.13,0.79,1.71c0,0.09,0.07,0.17,0.1,0.25	l0.27,0.72c0,0.08,0,0.15,0.07,0.23s0.07,0.2,0.11,0.31c0.03,0.09,0.06,0.19,0.08,0.28l0.06,0.17c0,0.09,0.05,0.17,0.07,0.26	l0.09,0.32c0.05,0.17,0.09,0.34,0.13,0.51c0.03,0.09,0.05,0.18,0.07,0.27c0,0.13,0.06,0.26,0.08,0.39s0,0.11,0,0.16s0,0.15,0,0.22	v0.18v0.14v0.14v0.13c0,0.1,0,0.19,0,0.28s0,0.18,0,0.27s0,0.21,0,0.31s0,0.19,0,0.29v0.17v0.3c0,0.05,0,0.1,0,0.16s0,0.2,0,0.31	l0,0c0,0.06,0,0.13,0,0.19c-0.01,0.07-0.01,0.13,0,0.2c0,0.11,0,0.22,0,0.33l0,0c0,0.11,0,0.23,0,0.34S757.49,295.58,757.48,295.8z" class="st3"/><path d="M757.48,295.8v0.35c0,0.06,0,0.13,0,0.19s0,0.32,0,0.48v0.09v0.39v0.09c0,0.02,0,0.04,0,0.06v0.35v0.29	l-0.09,0.71c0,0.15-0.05,0.31-0.07,0.46l0,0c0,0.08,0,0.16,0,0.23v0.14c0,0.04,0,0.08,0,0.12c0,0.08,0,0.17,0,0.25	c-0.01,0.08-0.03,0.16-0.05,0.24c0,0.06,0,0.12,0,0.18s0,0.21-0.07,0.31l0,0l-0.06,0.21l-0.06,0.25l-0.09,0.31c0,0,0,0.06,0,0.09	s-0.06,0.21-0.1,0.31c-0.09,0.33-0.2,0.65-0.31,1c0,0.11-0.08,0.21-0.11,0.31c-0.02,0.06-0.04,0.12-0.07,0.17	c0.43-1.75,0.63-3.55,0.61-5.35c-0.07-7.48-3.92-14.43-10.23-18.45c-0.4-0.26-0.8-0.49-1.21-0.72c-6.62-3.62-14.62-3.62-21.24,0	c-0.72,0.4-1.42,0.84-2.1,1.31c-1.03,0.73-1.99,1.55-2.88,2.44c-0.84-0.84-1.74-1.61-2.7-2.3l0,0c-0.73-0.53-1.49-1.01-2.28-1.45	c-7.8-4.31-17.44-3.48-24.39,2.1c-0.64,0.52-1.26,1.07-1.84,1.65c-0.89,0.89-1.7,1.85-2.42,2.87c-0.44,0.62-0.85,1.26-1.22,1.91l0,0	c-0.35,0.61-0.66,1.24-0.94,1.89c-0.16,0.36-0.31,0.72-0.44,1.08c0-0.14,0.06-0.28,0.1-0.42l0.06-0.21v-0.13l0.09-0.31l0,0	c0.07-0.24,0.15-0.48,0.23-0.72s0.07-0.22,0.11-0.33c0.16-0.47,0.34-0.93,0.54-1.38l0.12-0.28l0.18-0.41	c0.11-0.22,0.21-0.44,0.33-0.65v-0.05l0,0l0.16-0.29l0.18-0.33c0.07-0.14,0.15-0.28,0.23-0.42l0.12-0.19l0.06-0.11l0,0l0,0	c0-0.08,0.09-0.16,0.14-0.24s0.12-0.18,0.17-0.27s0.26-0.4,0.4-0.59l0.14-0.21l0.18-0.25l0.19-0.25l0.24-0.31l0.21-0.27l0.08-0.09	l0.15-0.19l0.25-0.29l0.1-0.12l0,0l0.19-0.21c0.06-0.08,0.14-0.15,0.21-0.23s0.39-0.42,0.6-0.63l0.24-0.23l0.37-0.36l0.25-0.23	l0.3-0.26l0.19-0.16l0.2-0.17l0.39-0.32l0.21-0.16c0.33-0.25,0.67-0.5,1-0.74l0.21-0.14l0.2-0.14l0.2-0.12l0.3-0.19l0.14-0.08	l0.22-0.13c0.28-0.17,0.57-0.33,0.86-0.48l0.17-0.09l0.27-0.14l0.22-0.11l0.23-0.11l0.22-0.1l0.22-0.1l0.23-0.1l0.91-0.37l0.23-0.08	l0.24-0.09l0.22-0.08l0.18-0.06l0.42-0.13l0.22-0.07l0.17-0.05l0.17-0.05l0.31-0.08l0.4-0.1c0.41-0.11,0.83-0.2,1.25-0.27h0.17h0.24	h0.24h0.31h0.18c0.4-0.05,0.8-0.1,1.21-0.13h2.84h0.3h0.21l1,0.1l0.44,0.06h0.29h0.24h0.24h0.16c0.42,0.07,0.83,0.16,1.25,0.26	l0.5,0.13h0.14l0.22,0.06l0.42,0.13l0.18,0.05c0.31,0.1,0.61,0.2,0.91,0.32l0.21,0.07l0.27,0.11l0.41,0.16l0.46,0.2l0.19,0.09	l0.25,0.11l0.22,0.11l0.22,0.11l0.28,0.14l0.22,0.12l0.51,0.27l0.21,0.13c0.25,0.14,0.5,0.29,0.74,0.45l0.2,0.12l0.21,0.14	l0.21,0.14l0,0l0.14,0.1l0.87,0.63c0.06,0.06,0.13,0.11,0.2,0.16l0.4,0.32l0.19,0.17l0.2,0.16l0.29,0.26l0.25,0.23l0.37,0.36	c0.09,0.07,0.17,0.15,0.25,0.23c0.07-0.08,0.15-0.16,0.24-0.23l0.37-0.36l0.25-0.23l0.29-0.26l0.2-0.16l0.19-0.17l0.4-0.32	c0.07-0.05,0.14-0.1,0.2-0.16l1-0.74l0.21-0.14l0.21-0.14l0.2-0.12l0.29-0.19l0.15-0.08l0.21-0.13c0.29-0.17,0.58-0.33,0.87-0.48	l0.17-0.09l0.27-0.14l0.22-0.11l0.22-0.11l0.23-0.1l0.22-0.1l0.23-0.1l0.91-0.37l0.23-0.08l0.24-0.09l0.22-0.08l0.18-0.06l0.42-0.13	l0.22-0.07l0.17-0.05l0.17-0.05l0.3-0.08l0.4-0.1c0.42-0.11,0.84-0.2,1.26-0.27h0.17h0.24h0.24h0.3h0.18	c0.41-0.05,0.81-0.1,1.21-0.13h2.85h0.3h0.2l1,0.1c0.15,0,0.29,0,0.43,0.06h0.3h0.24h0.24h0.16c0.41,0.07,0.83,0.16,1.24,0.26	l0.51,0.13h0.14l0.22,0.06l0.42,0.13l0.18,0.05c0.3,0.1,0.61,0.2,0.91,0.32l0.2,0.07l0.27,0.11l0.41,0.16l0.47,0.2l0.18,0.09	l0.25,0.11l0.23,0.11l0.22,0.11l0.27,0.14l0.23,0.12l0.5,0.27l0.22,0.13c0.25,0.14,0.49,0.29,0.74,0.45l0.2,0.12l0.2,0.14l0.21,0.14	l0,0l0.13,0.1c0.3,0.2,0.59,0.41,0.87,0.63l0.21,0.16l0.39,0.32l0.2,0.17l0.19,0.16l0.26,0.23l0.25,0.23l0.14,0.13l0,0l0,0	l0.24,0.23l0.11,0.1l0.13,0.13l0.24,0.25l0.37,0.38c0.07,0.08,0.14,0.15,0.2,0.23l0.35,0.39l0.36,0.43c0.41,0.5,0.8,1,1.16,1.56	l0.15,0.22l0.15,0.24l0.13,0.2l0.22,0.36l0.19,0.32l0.12,0.21l0.09,0.16l0.08,0.16c0.05,0.07,0.09,0.15,0.13,0.23l0.12,0.25	c0.29,0.56,0.55,1.13,0.79,1.71c0,0.09,0.07,0.17,0.1,0.25l0.27,0.72c0,0.08,0,0.15,0.07,0.23s0.07,0.2,0.11,0.31	c0.03,0.09,0.06,0.19,0.08,0.28l0.06,0.17c0,0.09,0.05,0.17,0.07,0.26l0.09,0.32c0.05,0.17,0.09,0.34,0.13,0.51	c0.03,0.09,0.05,0.18,0.07,0.27c0,0.13,0.06,0.26,0.08,0.39s0,0.11,0,0.16s0,0.15,0,0.22v0.18v0.14v0.14v0.13c0,0.1,0,0.19,0,0.28	s0,0.18,0,0.27s0,0.21,0,0.31s0,0.19,0,0.29v0.17v0.3c0,0.05,0,0.1,0,0.16s0,0.2,0,0.31l0,0c0,0.06,0,0.13,0,0.19	c-0.01,0.07-0.01,0.13,0,0.2c0,0.11,0,0.22,0,0.33l0,0c0,0.11,0,0.23,0,0.34S757.49,295.58,757.48,295.8z" class="st4"/><path d="M612.81,254.39v0.19c0,0.06,0,0.11,0,0.16v0.2c0,0.16,0,0.31,0,0.47v0.1v0.39v0.17v0.36c0,0.09,0,0.19,0,0.28	c0,0.24,0,0.48-0.09,0.71s0,0.31-0.07,0.46l0,0c0,0.08,0,0.15,0,0.23c0,0.05,0,0.09,0,0.14v0.12c0,0.08,0,0.16,0,0.24l-0.06,0.24	c0,0.06,0,0.12,0,0.18c-0.02,0.1-0.04,0.21-0.07,0.31l0,0c0,0.07,0,0.14,0,0.21c-0.03,0.09-0.05,0.17-0.07,0.26l-0.09,0.31	c0,0.03,0,0.05,0,0.08l-0.09,0.32c-0.1,0.32-0.2,0.65-0.32,1c0,0.1-0.07,0.2-0.11,0.3l-0.06,0.17c-0.72,1.91-1.71,3.7-2.93,5.34	l-0.23,0.3c-0.58,0.75-1.2,1.47-1.87,2.14l-31.21,31.2l-31.21-31.2c-0.9-0.9-1.71-1.87-2.44-2.91c-0.46-0.64-0.89-1.31-1.28-2	c-2.11-3.82-3.04-8.19-2.66-12.54c0-0.41,0.08-0.8,0.13-1.2c0.1-0.71,0.23-1.4,0.4-2.1c0-0.14,0.07-0.28,0.11-0.41	c0.01-0.07,0.03-0.15,0.05-0.22c0-0.04,0-0.08,0-0.12l0.09-0.32l0,0c0.07-0.24,0.14-0.48,0.22-0.72l0.12-0.33	c0.16-0.47,0.34-0.93,0.53-1.39l0.12-0.27c0.06-0.14,0.12-0.28,0.19-0.41s0.21-0.44,0.32-0.66v-0.05l0,0l0.15-0.3l0.18-0.33	l0.24-0.41c0.03-0.07,0.07-0.14,0.11-0.2l0.07-0.11l0,0l0,0l0.15-0.24c0.05-0.09,0.11-0.18,0.17-0.27l0.39-0.59l0.15-0.2l0.18-0.25	l0.19-0.26l0.23-0.31c0.07-0.09,0.14-0.18,0.22-0.26c0.02-0.03,0.04-0.07,0.07-0.1l0.16-0.18l0.24-0.29l0.11-0.13l0,0l0.18-0.21	l0.21-0.23l0.6-0.62l0.24-0.24l0.38-0.35c0.08-0.08,0.16-0.16,0.25-0.23l0.29-0.26l0.2-0.17l0.19-0.16l0.4-0.32l0.2-0.16	c0.33-0.26,0.68-0.51,1-0.74l0.21-0.14l0.21-0.14l0.2-0.13l0.29-0.18l0.14-0.09l0.22-0.13c0.28-0.16,0.57-0.33,0.86-0.48l0.18-0.09	l-0.02-0.23l0.22-0.11l0.22-0.1l0.22-0.11l0.23-0.1l0.22-0.1l0.92-0.37l0.22-0.08l0.24-0.09l0.22-0.07l0.19-0.06l0.42-0.14	l0.21-0.06l0.18-0.05l0.17-0.05l0.3-0.09l0.4-0.1l1.25-0.27h0.18h0.23h0.25h0.3h0.18c0.4-0.05,0.81-0.09,1.21-0.12h0.22h3.13	c0.32,0,0.65,0.05,1,0.09l0.43,0.06h0.3h0.24h0.24h0.15c0.42,0.08,0.84,0.17,1.25,0.27l0.51,0.13h0.14	c0.07,0.02,0.14,0.04,0.21,0.06l0.42,0.12l0.19,0.06l0.9,0.31l0.21,0.08l0.27,0.1l0.41,0.17l0.47,0.2l0.18,0.08l0.25,0.12l0.22,0.1	l0.22,0.11l0.28,0.14l0.22,0.12l0.51,0.28l0.22,0.12l0.73,0.45l0.2,0.13l0.21,0.14l0.21,0.14l0,0l0.14,0.09	c0.3,0.21,0.59,0.42,0.87,0.64c0.07,0.05,0.14,0.1,0.2,0.16c0.14,0.1,0.27,0.21,0.4,0.32l0.2,0.16l0.19,0.17l0.29,0.26	c0.09,0.07,0.17,0.15,0.25,0.23l0.38,0.35l0.24,0.24l0.24-0.24l0.37-0.35l0.25-0.23l0.3-0.26l0.19-0.17l0.2-0.16	c0.13-0.11,0.26-0.22,0.4-0.32c0.06-0.06,0.13-0.11,0.2-0.16c0.33-0.26,0.67-0.51,1-0.74l0.21-0.14l0.21-0.14l0.19-0.13l0.3-0.18	l0.14-0.09l0.22-0.13c0.28-0.16,0.57-0.33,0.86-0.48l0.17-0.09l0.27-0.14l0.23-0.11l0.22-0.1l0.22-0.11l0.23-0.1l0.22-0.1l0.91-0.37	l0.23-0.08l0.24-0.09l0.22-0.07l0.18-0.06l0.42-0.14l0.22-0.06l0.17-0.05l0.17-0.05l0.31-0.09l0.4-0.1c0.42-0.1,0.83-0.19,1.25-0.27	h0.17h0.24h0.24h0.31h0.18c0.4-0.05,0.8-0.09,1.21-0.12h0.22h3.13l1,0.09l0.43,0.06h0.29h0.24h0.24h0.16	c0.42,0.08,0.83,0.17,1.25,0.27l0.51,0.13h0.13c0.07,0.01,0.15,0.03,0.22,0.06l0.42,0.12l0.18,0.06l0.91,0.31l0.21,0.08l0.27,0.1	l0.41,0.17l0.47,0.2l0.18,0.08l0.25,0.12l0.22,0.1l0.22,0.11l0.28,0.14l0.22,0.12l0.51,0.28l0.21,0.12l0.74,0.45l0.2,0.13l0.21,0.14	l0.21,0.14l0,0l0.14,0.09l0.87,0.64l0.2,0.16l0.4,0.32l0.19,0.16l0.2,0.17l0.25,0.22l0.26,0.23l0.14,0.14l0,0l0,0l0.25,0.23	l0.11,0.11l0.13,0.13l0.24,0.24l0.36,0.39l0.21,0.23c0.12,0.12,0.23,0.25,0.34,0.38l0.36,0.43c0.41,0.51,0.8,1,1.16,1.56l0.15,0.22	l0.15,0.24c0.05,0.07,0.09,0.14,0.13,0.21c0.08,0.11,0.15,0.23,0.22,0.35s0.13,0.22,0.19,0.33l0.12,0.2l0.09,0.16l0.09,0.16	l0.12,0.24c0,0.08,0.09,0.16,0.13,0.24c0.29,0.56,0.55,1.14,0.78,1.72c0.04,0.08,0.07,0.16,0.1,0.25c0.1,0.24,0.19,0.48,0.27,0.72	c0,0.07,0.05,0.15,0.08,0.22l0.1,0.31l0.09,0.28c0,0.06,0,0.12,0.05,0.18s0,0.17,0.08,0.25l0.09,0.32c0,0.17,0.09,0.35,0.13,0.52	l0.06,0.27l0.09,0.38v0.17c0.01,0.07,0.01,0.15,0,0.22c0,0.06,0,0.11,0,0.17c0,0.05,0,0.1,0,0.15v0.13c0,0.05,0,0.09,0,0.14	c0,0.09,0,0.18,0,0.27c0,0.09,0,0.19,0,0.28c0,0.1,0,0.2,0.05,0.3v0.3v0.16v0.31c0,0.05,0,0.1,0,0.15v0.31l0,0c0,0.07,0,0.13,0,0.2	s0,0.13,0,0.2s0,0.22,0,0.33l0,0v0.33C612.81,253.93,612.81,254.15,612.81,254.39z" class="st3"/><path d="M612.81,254.39v0.19c0,0.06,0,0.11,0,0.16v0.2c0,0.16,0,0.31,0,0.47v0.1v0.39v0.17v0.36c0,0.09,0,0.19,0,0.28	c0,0.24,0,0.48-0.09,0.71s0,0.31-0.07,0.46l0,0c0,0.08,0,0.15,0,0.23c0,0.05,0,0.09,0,0.14v0.12c0,0.08,0,0.16,0,0.24l-0.06,0.24	c0,0.06,0,0.12,0,0.18c-0.02,0.1-0.04,0.21-0.07,0.31l0,0c0,0.07,0,0.14,0,0.21c-0.03,0.09-0.05,0.17-0.07,0.26l-0.09,0.31	c0,0.03,0,0.05,0,0.08l-0.09,0.32c-0.1,0.32-0.2,0.65-0.32,1c0,0.1-0.07,0.2-0.11,0.3l-0.06,0.17c0.86-3.59,0.81-7.34-0.15-10.9	c-1.43-5.34-4.82-9.94-9.48-12.9c-0.39-0.25-0.79-0.49-1.2-0.71c-6.62-3.63-14.63-3.63-21.25,0c-0.72,0.39-1.42,0.83-2.09,1.31	c-1.03,0.72-2,1.54-2.89,2.43c-0.84-0.84-1.74-1.61-2.7-2.3l0,0c-0.73-0.53-1.49-1.01-2.28-1.44c-8.6-4.71-19.29-3.19-26.23,3.74	c-1.03,0.87-1.98,1.83-2.84,2.87c-0.44,0.62-0.84,1.26-1.21,1.91l0,0c-0.34,0.62-0.66,1.25-0.94,1.89c-0.16,0.35-0.3,0.71-0.44,1.07	c0-0.14,0.07-0.28,0.11-0.41c0.01-0.07,0.03-0.15,0.05-0.22c0-0.04,0-0.08,0-0.12l0.09-0.32l0,0c0.07-0.24,0.14-0.48,0.22-0.72	l0.12-0.33c0.16-0.47,0.34-0.93,0.53-1.39l0.12-0.27c0.06-0.14,0.12-0.28,0.19-0.41s0.21-0.44,0.32-0.66v-0.05l0,0l0.15-0.3	l0.18-0.33l0.24-0.41c0.03-0.07,0.07-0.14,0.11-0.2l0.07-0.11l0,0l0,0l0.15-0.24c0.05-0.09,0.11-0.18,0.17-0.27l0.39-0.59l0.15-0.2	l0.18-0.25l0.19-0.26l0.23-0.31c0.07-0.09,0.14-0.18,0.22-0.26c0.02-0.03,0.04-0.07,0.07-0.1l0.16-0.18l0.24-0.29l0.11-0.13l0,0	l0.18-0.21l0.21-0.23l0.6-0.62l0.24-0.24l0.38-0.35c0.08-0.08,0.16-0.16,0.25-0.23l0.29-0.26l0.2-0.17l0.19-0.16l0.4-0.32l0.2-0.16	c0.33-0.26,0.68-0.51,1-0.74l0.21-0.14l0.21-0.14l0.2-0.13l0.29-0.18l0.14-0.09l0.22-0.13c0.28-0.16,0.57-0.33,0.86-0.48l0.18-0.09	l0.38-0.17l0.22-0.11l0.22-0.1l0.22-0.11l0.23-0.1l0.22-0.1l0.92-0.37l0.22-0.08l0.24-0.09l0.22-0.07l0.19-0.06l0.42-0.14l0.21-0.06	l0.18-0.05l0.17-0.05l0.3-0.09l0.4-0.1l1.25-0.27h0.18h0.23h0.25h0.3h0.18c0.4-0.05,0.81-0.09,1.21-0.12h0.22h3.13	c0.32,0,0.65,0.05,1,0.09l0.43,0.06h0.3h0.24h0.24h0.15c0.42,0.08,0.84,0.17,1.25,0.27l0.51,0.13h0.14	c0.07,0.02,0.14,0.04,0.21,0.06l0.42,0.12l0.19,0.06l0.9,0.31l0.21,0.08l0.27,0.1l0.41,0.17l0.47,0.2l0.18,0.08l0.25,0.12l0.22,0.1	l0.22,0.11l0.28,0.14l0.22,0.12l0.51,0.28l0.22,0.12l0.73,0.45l0.2,0.13l0.21,0.14l0.21,0.14l0,0l0.14,0.09	c0.3,0.21,0.59,0.42,0.87,0.64c0.07,0.05,0.14,0.1,0.2,0.16c0.14,0.1,0.27,0.21,0.4,0.32l0.2,0.16l0.19,0.17l0.29,0.26	c0.09,0.07,0.17,0.15,0.25,0.23l0.38,0.35l0.24,0.24l0.24-0.24l0.37-0.35l0.25-0.23l0.3-0.26l0.19-0.17l0.2-0.16	c0.13-0.11,0.26-0.22,0.4-0.32c0.06-0.06,0.13-0.11,0.2-0.16c0.33-0.26,0.67-0.51,1-0.74l0.21-0.14l0.21-0.14l0.19-0.13l0.3-0.18	l0.14-0.09l0.22-0.13c0.28-0.16,0.57-0.33,0.86-0.48l0.17-0.09l0.27-0.14l0.23-0.11l0.22-0.1l0.22-0.11l0.23-0.1l0.22-0.1l0.91-0.37	l0.23-0.08l0.24-0.09l0.22-0.07l0.18-0.06l0.42-0.14l0.22-0.06l0.17-0.05l0.17-0.05l0.31-0.09l0.4-0.1c0.42-0.1,0.83-0.19,1.25-0.27	h0.17h0.24h0.24h0.31h0.18c0.4-0.05,0.8-0.09,1.21-0.12h0.22h3.13l1,0.09l0.43,0.06h0.29h0.24h0.24h0.16	c0.42,0.08,0.83,0.17,1.25,0.27l0.51,0.13h0.13c0.07,0.01,0.15,0.03,0.22,0.06l0.42,0.12l0.18,0.06l0.91,0.31l0.21,0.08l0.27,0.1	l0.41,0.17l0.47,0.2l0.18,0.08l0.25,0.12l0.22,0.1l0.22,0.11l0.28,0.14l0.22,0.12l0.51,0.28l0.21,0.12l0.74,0.45l0.2,0.13l0.21,0.14	l0.21,0.14l0,0l0.14,0.09l0.87,0.64l0.2,0.16l0.4,0.32l0.19,0.16l0.2,0.17l0.25,0.22l0.26,0.23l0.14,0.14l0,0l0,0l0.25,0.23	l0.11,0.11l0.13,0.13l0.24,0.24l0.36,0.39l0.21,0.23c0.12,0.12,0.23,0.25,0.34,0.38l0.36,0.43c0.41,0.51,0.8,1,1.16,1.56l0.15,0.22	l0.15,0.24c0.05,0.07,0.09,0.14,0.13,0.21c0.08,0.11,0.15,0.23,0.22,0.35s0.13,0.22,0.19,0.33l0.12,0.2l0.09,0.16l0.09,0.16	l0.12,0.24c0,0.08,0.09,0.16,0.13,0.24c0.29,0.56,0.55,1.14,0.78,1.72c0.04,0.08,0.07,0.16,0.1,0.25c0.1,0.24,0.19,0.48,0.27,0.72	c0,0.07,0.05,0.15,0.08,0.22l0.1,0.31l0.09,0.28c0,0.06,0,0.12,0.05,0.18s0,0.17,0.08,0.25l0.09,0.32c0,0.17,0.09,0.35,0.13,0.52	l0.06,0.27l0.09,0.38v0.17c0.01,0.07,0.01,0.15,0,0.22c0,0.06,0,0.11,0,0.17c0,0.05,0,0.1,0,0.15v0.13c0,0.05,0,0.09,0,0.14	c0,0.09,0,0.18,0,0.27c0,0.09,0,0.19,0,0.28c0,0.1,0,0.2,0.05,0.3v0.3v0.16v0.31c0,0.05,0,0.1,0,0.15v0.31l0,0c0,0.07,0,0.13,0,0.2	s0,0.13,0,0.2s0,0.22,0,0.33l0,0v0.33C612.81,253.93,612.81,254.15,612.81,254.39z" class="st5"/><path d="M317.76,276.31c0,0.06,0,0.13,0,0.19v0.35v0.48v0.06v0.39v0.18v0.35c0,0.1,0,0.19,0,0.29	c0,0.24-0.05,0.47-0.09,0.71c-0.04,0.24,0,0.31-0.07,0.46l0,0c0.01,0.08,0.01,0.15,0,0.23c0,0.05,0,0.09,0,0.14v0.12	c0,0.08,0,0.17,0,0.25l-0.06,0.24c0,0.06,0,0.12,0,0.18c0,0.1,0,0.21-0.07,0.31l0,0c-0.02,0.07-0.04,0.14-0.05,0.21	c-0.03,0.08-0.05,0.17-0.07,0.25l-0.09,0.31c0,0.03,0,0.06,0,0.09l-0.09,0.31c-0.1,0.33-0.2,0.65-0.32,1	c-0.03,0.11-0.07,0.21-0.11,0.31l-0.06,0.17c-0.72,1.9-1.71,3.7-2.93,5.33l-0.23,0.31c-0.58,0.75-1.2,1.46-1.87,2.13l-31.21,31.21	l-31.21-31.21c-0.9-0.9-1.72-1.87-2.45-2.9c-0.46-0.66-0.88-1.34-1.27-2c-2.11-3.83-3.04-8.2-2.66-12.55c0-0.4,0.08-0.8,0.13-1.2	c0.1-0.7,0.23-1.4,0.4-2.09c0-0.14,0.07-0.28,0.1-0.42l0.06-0.21c0-0.04,0-0.09,0-0.13c0-0.1,0.05-0.21,0.08-0.31l0,0	c0.07-0.24,0.14-0.48,0.22-0.72s0.08-0.22,0.11-0.33c0.17-0.47,0.35-0.93,0.54-1.38l0.12-0.28c0.06-0.13,0.12-0.27,0.19-0.41	s0.21-0.44,0.32-0.65v-0.05l0,0l0.15-0.29l0.18-0.33l0.24-0.42l0.11-0.19l0.07-0.11l0,0l0,0l0.15-0.24	c0.05-0.09,0.11-0.18,0.17-0.27l0.39-0.59l0.15-0.21l0.18-0.25c0.06-0.08,0.12-0.17,0.19-0.25c0.07-0.11,0.15-0.21,0.23-0.31	l0.22-0.27l0.07-0.09l0.15-0.19l0.25-0.29l0.11-0.12l0,0l0.18-0.21l0.21-0.23l0.6-0.63l0.24-0.23l0.38-0.36l0.25-0.23l0.29-0.26	l0.2-0.16l0.19-0.17l0.4-0.32l0.2-0.16c0.33-0.25,0.67-0.5,1-0.74l0.21-0.14l0.21-0.14l0.2-0.12c0.09-0.07,0.19-0.13,0.29-0.19	l0.14-0.08l0.22-0.13c0.28-0.17,0.57-0.33,0.86-0.48l0.18-0.1l0.09-0.14l0.22-0.11l0.22-0.11l0.22-0.1l0.23-0.1l0.22-0.1l0.92-0.37	l0.22-0.08l0.24-0.09l0.22-0.08l0.19-0.06l0.42-0.13l0.21-0.07l0.18-0.05h0.17l0.3-0.08l0.4-0.1c0.42-0.11,0.83-0.2,1.25-0.27h0.18	h0.23h0.25l0.3-0.05h0.18c0.4,0,0.81-0.1,1.21-0.13h2.82h0.29h0.21l1,0.1l0.43,0.05l0.29,0.05h0.25h0.24h0.15	c0.42,0.07,0.84,0.16,1.25,0.26l0.51,0.13h0.14l0.21,0.06l0.42,0.13l0.18,0.05c0.31,0.1,0.61,0.2,0.91,0.32l0.21,0.07l0.27,0.11	l0.41,0.16l0.47,0.2l0.18,0.09l0.25,0.11l0.22,0.11l0.22,0.11l0.28,0.14l0.22,0.12l0.51,0.27l0.21,0.13	c0.25,0.14,0.5,0.29,0.74,0.45l0.2,0.12l0.21,0.14l0.21,0.14l0,0c0.05,0.03,0.1,0.06,0.14,0.1c0.29,0.2,0.58,0.41,0.87,0.63	l0.2,0.16l0.4,0.32l0.19,0.17l0.2,0.16l0.29,0.26l0.25,0.23l0.38,0.36l0.24,0.23l0.24-0.23l0.37-0.36l0.25-0.23l0.3-0.26l0.19-0.16	l0.2-0.17l0.4-0.32l0.2-0.16c0.33-0.25,0.67-0.5,1-0.74l0.21-0.14l0.21-0.14l0.19-0.12l0.3-0.19l0.14-0.08l0.22-0.13	c0.28-0.17,0.57-0.33,0.86-0.48c0.06-0.03,0.12-0.06,0.17-0.1l0.27-0.13l0.22-0.11l0.23-0.11l0.22-0.1l0.23-0.1l0.22-0.1l0.91-0.37	l0.23-0.08l0.24-0.09l0.22-0.08l0.18-0.06l0.42-0.13l0.22-0.07l0.17-0.05h0.17l0.31-0.08l0.4-0.1c0.41-0.11,0.83-0.2,1.25-0.27h0.17	h0.24h0.24l0.31-0.05h0.18c0.4,0,0.8-0.1,1.21-0.13h2.84h0.3h0.21l1,0.1l0.44,0.05l0.29,0.05h0.24h0.24h0.16	c0.42,0.07,0.83,0.16,1.25,0.26l0.5,0.13h0.14l0.22,0.06l0.42,0.13l0.18,0.05c0.31,0.1,0.61,0.2,0.91,0.32l0.21,0.07l0.27,0.11	l0.41,0.16l0.46,0.2l0.19,0.09l0.25,0.11l0.22,0.11l0.22,0.11l0.28,0.14l0.22,0.12l0.51,0.27l0.21,0.13	c0.25,0.14,0.5,0.29,0.74,0.45l0.2,0.12l0.21,0.14l0.21,0.14l0,0l0.14,0.1l0.87,0.63l0.2,0.16l0.4,0.32l0.19,0.17l0.2,0.16	l0.25,0.23c0.09,0.07,0.17,0.15,0.25,0.23l0.15,0.13l0,0l0,0l0.25,0.23l0.1,0.1l0.14,0.13l0.24,0.25l0.36,0.38l0.21,0.23l0.34,0.39	l0.36,0.43c0.41,0.5,0.8,1,1.16,1.56l0.15,0.22l0.15,0.24c0.05,0.06,0.09,0.13,0.13,0.2c0.08,0.12,0.15,0.24,0.22,0.36	s0.13,0.22,0.19,0.32l0.12,0.21l0.09,0.16l0.09,0.16l0.12,0.23c0.05,0.08,0.09,0.17,0.13,0.25c0.29,0.56,0.55,1.13,0.78,1.71	l0.1,0.25c0.1,0.24,0.19,0.48,0.27,0.72l0.08,0.23c0,0.1,0.07,0.2,0.1,0.31l0.09,0.28c0,0.06,0,0.12,0.05,0.17l0.08,0.26	c0.03,0.11,0.06,0.21,0.08,0.32c0.05,0.17,0.09,0.34,0.14,0.51l0.06,0.27l0.09,0.39v0.16c0,0.07,0,0.15,0,0.22c0,0.06,0,0.12,0,0.18	c0.01,0.05,0.01,0.09,0,0.14v0.14c0,0,0,0.09,0,0.13s0,0.19,0,0.28c0,0.09,0,0.18,0,0.27c0,0.1,0,0.21,0,0.31c0,0.1,0,0.19,0,0.29	v0.17v0.3c0,0.05,0,0.1,0,0.16c0.01,0.1,0.01,0.21,0,0.31l0,0c-0.01,0.06-0.01,0.13,0,0.19c0,0.07,0,0.14,0,0.2s0,0.22,0,0.33l0,0	c0,0.11,0,0.23,0,0.34S317.76,276.09,317.76,276.31z" class="st3"/><path d="M317.76,276.31c0,0.06,0,0.13,0,0.19v0.35v0.48v0.06v0.39v0.18v0.35c0,0.1,0,0.19,0,0.29	c0,0.24-0.05,0.47-0.09,0.71c-0.04,0.24,0,0.31-0.07,0.46l0,0c0.01,0.08,0.01,0.15,0,0.23c0,0.05,0,0.09,0,0.14v0.12	c0,0.08,0,0.17,0,0.25l-0.06,0.24c0,0.06,0,0.12,0,0.18c0,0.1,0,0.21-0.07,0.31l0,0c-0.02,0.07-0.04,0.14-0.05,0.21	c-0.03,0.08-0.05,0.17-0.07,0.25l-0.09,0.31c0,0.03,0,0.06,0,0.09l-0.09,0.31c-0.1,0.33-0.2,0.65-0.32,1	c-0.03,0.11-0.07,0.21-0.11,0.31l-0.06,0.17c0.86-3.59,0.81-7.34-0.15-10.91c-1.54-5.37-5.07-9.96-9.86-12.84	c-0.39-0.26-0.8-0.49-1.2-0.72c-6.62-3.62-14.63-3.62-21.25,0c-0.72,0.4-1.42,0.83-2.09,1.31c-1.03,0.73-2,1.55-2.89,2.44	c-0.84-0.84-1.74-1.61-2.7-2.3l0,0c-0.73-0.53-1.49-1.01-2.28-1.45c-6.62-3.62-14.63-3.62-21.25,0c-1.1,0.61-2.15,1.31-3.13,2.1	c-0.65,0.51-1.26,1.07-1.85,1.65c-0.89,0.89-1.7,1.85-2.42,2.87c-0.44,0.62-0.84,1.26-1.21,1.91l0,0c-0.34,0.62-0.66,1.25-0.94,1.89	c-0.16,0.36-0.3,0.72-0.44,1.08c0-0.14,0.07-0.28,0.1-0.42l0.06-0.21c0-0.04,0-0.09,0-0.13c0-0.1,0.05-0.21,0.08-0.31l0,0	c0.07-0.24,0.14-0.48,0.22-0.72s0.08-0.22,0.11-0.33c0.17-0.47,0.35-0.93,0.54-1.38l0.12-0.28c0.06-0.13,0.12-0.27,0.19-0.41	s0.21-0.44,0.32-0.65v-0.05l0,0l0.15-0.29l0.18-0.33l0.24-0.42l0.11-0.19l0.07-0.11l0,0l0,0l0.15-0.24	c0.05-0.09,0.11-0.18,0.17-0.27l0.39-0.59l0.15-0.21l0.18-0.25c0.06-0.08,0.12-0.17,0.19-0.25c0.07-0.11,0.15-0.21,0.23-0.31	l0.22-0.27l0.07-0.09l0.15-0.19l0.25-0.29l0.11-0.12l0,0l0.18-0.21l0.21-0.23l0.6-0.63l0.24-0.23l0.38-0.36l0.25-0.23l0.29-0.26	l0.2-0.16l0.19-0.17l0.4-0.32l0.2-0.16c0.33-0.25,0.67-0.5,1-0.74l0.21-0.14l0.21-0.14l0.2-0.12c0.09-0.07,0.19-0.13,0.29-0.19	l0.14-0.08l0.22-0.13c0.28-0.17,0.57-0.33,0.86-0.48l0.18-0.1l0.45-0.14l0.22-0.11l0.22-0.11l0.22-0.1l0.23-0.1l0.22-0.1l0.92-0.37	l0.22-0.08l0.24-0.09l0.22-0.08l0.19-0.06l0.42-0.13l0.21-0.07l0.18-0.05h0.17l0.3-0.08l0.4-0.1c0.42-0.11,0.83-0.2,1.25-0.27h0.18	h0.23h0.25l0.3-0.05h0.18c0.4,0,0.81-0.1,1.21-0.13h2.82h0.29h0.21l1,0.1l0.43,0.05l0.29,0.05h0.25h0.24h0.15	c0.42,0.07,0.84,0.16,1.25,0.26l0.51,0.13h0.14l0.21,0.06l0.42,0.13l0.18,0.05c0.31,0.1,0.61,0.2,0.91,0.32l0.21,0.07l0.27,0.11	l0.41,0.16l0.47,0.2l0.18,0.09l0.25,0.11l0.22,0.11l0.22,0.11l0.28,0.14l0.22,0.12l0.51,0.27l0.21,0.13	c0.25,0.14,0.5,0.29,0.74,0.45l0.2,0.12l0.21,0.14l0.21,0.14l0,0c0.05,0.03,0.1,0.06,0.14,0.1c0.29,0.2,0.58,0.41,0.87,0.63	l0.2,0.16l0.4,0.32l0.19,0.17l0.2,0.16l0.29,0.26l0.25,0.23l0.38,0.36l0.24,0.23l0.24-0.23l0.37-0.36l0.25-0.23l0.3-0.26l0.19-0.16	l0.2-0.17l0.4-0.32l0.2-0.16c0.33-0.25,0.67-0.5,1-0.74l0.21-0.14l0.21-0.14l0.19-0.12l0.3-0.19l0.14-0.08l0.22-0.13	c0.28-0.17,0.57-0.33,0.86-0.48c0.06-0.03,0.12-0.06,0.17-0.1l0.27-0.13l0.22-0.11l0.23-0.11l0.22-0.1l0.23-0.1l0.22-0.1l0.91-0.37	l0.23-0.08l0.24-0.09l0.22-0.08l0.18-0.06l0.42-0.13l0.22-0.07l0.17-0.05h0.17l0.31-0.08l0.4-0.1c0.41-0.11,0.83-0.2,1.25-0.27h0.17	h0.24h0.24l0.31-0.05h0.18c0.4,0,0.8-0.1,1.21-0.13h2.84h0.3h0.21l1,0.1l0.44,0.05l0.29,0.05h0.24h0.24h0.16	c0.42,0.07,0.83,0.16,1.25,0.26l0.5,0.13h0.14l0.22,0.06l0.42,0.13l0.18,0.05c0.31,0.1,0.61,0.2,0.91,0.32l0.21,0.07l0.27,0.11	l0.41,0.16l0.46,0.2l0.19,0.09l0.25,0.11l0.22,0.11l0.22,0.11l0.28,0.14l0.22,0.12l0.51,0.27l0.21,0.13	c0.25,0.14,0.5,0.29,0.74,0.45l0.2,0.12l0.21,0.14l0.21,0.14l0,0l0.14,0.1l0.87,0.63l0.2,0.16l0.4,0.32l0.19,0.17l0.2,0.16	l0.25,0.23c0.09,0.07,0.17,0.15,0.25,0.23l0.15,0.13l0,0l0,0l0.25,0.23l0.1,0.1l0.14,0.13l0.24,0.25l0.36,0.38l0.21,0.23l0.34,0.39	l0.36,0.43c0.41,0.5,0.8,1,1.16,1.56l0.15,0.22l0.15,0.24c0.05,0.06,0.09,0.13,0.13,0.2c0.08,0.12,0.15,0.24,0.22,0.36	s0.13,0.22,0.19,0.32l0.12,0.21l0.09,0.16l0.09,0.16l0.12,0.23c0.05,0.08,0.09,0.17,0.13,0.25c0.29,0.56,0.55,1.13,0.78,1.71	l0.1,0.25c0.1,0.24,0.19,0.48,0.27,0.72l0.08,0.23c0,0.1,0.07,0.2,0.1,0.31l0.09,0.28c0,0.06,0,0.12,0.05,0.17l0.08,0.26	c0.03,0.11,0.06,0.21,0.08,0.32c0.05,0.17,0.09,0.34,0.14,0.51l0.06,0.27l0.09,0.39v0.16c0,0.07,0,0.15,0,0.22c0,0.06,0,0.12,0,0.18	c0.01,0.05,0.01,0.09,0,0.14v0.14c0,0,0,0.09,0,0.13s0,0.19,0,0.28c0,0.09,0,0.18,0,0.27c0,0.1,0,0.21,0,0.31c0,0.1,0,0.19,0,0.29	v0.17v0.3c0,0.05,0,0.1,0,0.16c0.01,0.1,0.01,0.21,0,0.31l0,0c-0.01,0.06-0.01,0.13,0,0.19c0,0.07,0,0.14,0,0.2s0,0.22,0,0.33l0,0	c0,0.11,0,0.23,0,0.34S317.76,276.09,317.76,276.31z" class="st4"/><path d="M308.11,435.55v0.35c0.01,0.07,0.01,0.13,0,0.2c0,0.15,0,0.31,0,0.47v0.1v0.39v0.11c0,0.02,0,0.04,0,0.06v0.36	v0.28l-0.09,0.71c0,0.15,0,0.31-0.07,0.46l0,0c0,0.07,0,0.15,0,0.23v0.13c0,0.04,0,0.08,0,0.12c-0.01,0.08-0.03,0.17-0.05,0.25	c-0.01,0.08-0.03,0.16-0.05,0.24c0,0.06,0,0.12,0,0.18s0,0.21-0.07,0.31l0,0l-0.06,0.21l-0.06,0.26l-0.09,0.31c0,0,0,0.05,0,0.08	s-0.06,0.21-0.1,0.32c-0.09,0.32-0.2,0.65-0.31,1l-0.11,0.3c-0.02,0.06-0.04,0.12-0.07,0.17c-0.72,1.91-1.7,3.71-2.92,5.34	l-0.23,0.3c-0.58,0.75-1.21,1.46-1.88,2.13l-31.2,31.21l-31.21-31.21c-0.9-0.9-1.72-1.87-2.45-2.9c-0.46-0.64-0.88-1.31-1.27-2	c-2.11-3.83-3.04-8.2-2.66-12.55c0-0.4,0.07-0.8,0.13-1.19c0.1-0.71,0.23-1.4,0.4-2.1c0-0.14,0.06-0.28,0.1-0.42l0.06-0.21v-0.12	l0.09-0.32l0,0c0.08-0.24,0.15-0.48,0.23-0.72l0.11-0.33c0.17-0.47,0.34-0.93,0.54-1.39l-0.15-0.28l0.18-0.41	c0.11-0.22,0.21-0.44,0.33-0.66v-0.05l0,0l0.16-0.29l0.18-0.33c0.07-0.14,0.15-0.28,0.23-0.41l0.12-0.2l0.06-0.11l0,0l0,0	c0-0.08,0.09-0.16,0.14-0.24s0.12-0.18,0.17-0.27l0.4-0.59c0.05-0.07,0.09-0.14,0.14-0.2l0.18-0.25l0.19-0.26l0.24-0.31l0.21-0.27	l0.08-0.09l0.15-0.19l0.25-0.29l0.11-0.12l0,0l0.19-0.21l0.29-0.25c0.19-0.21,0.39-0.42,0.6-0.62l0.24-0.24l0.37-0.36l0.25-0.22	l0.3-0.26l0.19-0.17l0.2-0.16c0.13-0.11,0.26-0.22,0.4-0.32c0.06-0.06,0.13-0.11,0.2-0.16c0.33-0.26,0.67-0.51,1-0.74l0.21-0.14	c0.07-0.05,0.14-0.1,0.21-0.14l0.19-0.13l0.3-0.18l0.14-0.09l0.22-0.13c0.28-0.17,0.57-0.33,0.86-0.48l0.17-0.09l0.27-0.14	l0.22-0.11l0.23-0.1l0.22-0.11l0.22-0.1l0.23-0.1l0.91-0.37l0.23-0.08l0.24-0.09l0.22-0.07l0.18-0.06l0.42-0.14l0.22-0.07l0.17-0.05	h0.17l0.31-0.09l0.4-0.1c0.41-0.1,0.83-0.19,1.25-0.27H251h0.24h0.24h0.31h0.18c0.4-0.05,0.8-0.09,1.21-0.12h0.21h2.63h0.3l0,0h0.18	l1,0.09l0.44,0.06h0.29h0.24h0.24h0.16c0.42,0.07,0.83,0.16,1.25,0.26l0.5,0.14h0.14l0.22,0.07l0.42,0.12l0.18,0.06	c0.31,0.09,0.61,0.2,0.91,0.31l0.21,0.08l0.27,0.1l0.41,0.17l0.46,0.2l0.19,0.08l0.25,0.12l0.22,0.1l0.22,0.11l0.28,0.14l0.22,0.12	l0.51,0.28l0.21,0.12c0.25,0.15,0.5,0.29,0.74,0.45l0.2,0.13l0.21,0.14l0.21,0.14l0,0l0.14,0.09l0.87,0.64l0.2,0.16l0.4,0.32	l0.19,0.16l0.2,0.17l0.29,0.26l0.25,0.22l0.37,0.36l0.25,0.24l0.24-0.24l0.37-0.36l0.25-0.22l0.29-0.26l0.2-0.17l0.19-0.16l0.4-0.32	l0.2-0.16c0.34-0.26,0.68-0.51,1-0.74l0.21-0.14l0.21-0.14l0.2-0.13l0.29-0.18l0.15-0.09l0.21-0.13l0.87-0.48l0.17-0.09l0.27-0.14	l0.22-0.11l0.22-0.1l0.23-0.11l0.22-0.1l0.23-0.1l0.91-0.37l0.23-0.08l0.24-0.09l0.22-0.07l0.18-0.06l0.42-0.14l0.22-0.07l0.17-0.05	h0.17l0.3-0.09l0.41-0.1c0.41-0.1,0.83-0.19,1.25-0.27h0.17h0.24h0.24h0.3h0.18l1.21-0.12h0.22h2.63h0.3l0,0h0.17	c0.33,0,0.65,0.05,1,0.09l0.43,0.06h0.3h0.24h0.24h0.16c0.42,0.07,0.83,0.16,1.24,0.26l0.51,0.14h0.14l0.22,0.07l0.42,0.12	l0.18,0.06c0.3,0.09,0.61,0.2,0.91,0.31l0.2,0.08l0.27,0.1l0.41,0.17l0.47,0.2l0.18,0.08l0.25,0.12l0.23,0.1l0.22,0.11l0.28,0.14	l0.22,0.12c0.17,0.09,0.34,0.18,0.5,0.28l0.22,0.12l0.74,0.45l0.2,0.13l0.21,0.14l0.2,0.14l0,0l0.13,0.09	c0.3,0.21,0.59,0.42,0.87,0.64l0.21,0.16l0.39,0.32l0.2,0.16l0.19,0.17l0.26,0.22l0.25,0.23l0.14,0.14l0,0l0,0l0.24,0.23l0.11,0.11	l0.13,0.13l0.24,0.24l0.37,0.39l0.21,0.22l0.34,0.39l0.36,0.43c0.41,0.51,0.8,1,1.16,1.56l0.15,0.22l0.15,0.24l0.13,0.21l0.22,0.35	l0.19,0.33l0.12,0.2l0.09,0.16c0,0.05,0.05,0.11,0.08,0.16c0.03,0.05,0.09,0.16,0.13,0.24c0.04,0.08,0.08,0.16,0.13,0.24	c0.28,0.56,0.54,1.14,0.78,1.72c0,0.08,0.07,0.16,0.1,0.25l0.27,0.72l0.07,0.22c0,0.1,0.07,0.21,0.11,0.31s0.06,0.19,0.08,0.28	l0.06,0.18l0.07,0.25l0.09,0.32c0.05,0.17,0.09,0.34,0.13,0.52c0.03,0.09,0.05,0.18,0.07,0.27c0,0.12,0.06,0.25,0.08,0.38v0.16	c0,0.08,0,0.15,0,0.23v0.17v0.15v0.13v0.14c0,0.09,0,0.18,0,0.27s0,0.18,0,0.28s0,0.2,0,0.3s0,0.2,0,0.29v0.17v0.31	c0,0.05,0,0.1,0,0.15s0,0.21,0,0.31l0,0c0,0.07,0,0.13,0,0.2c0,0.07,0,0.13,0,0.2c0,0.11,0,0.22,0,0.33l0,0c0,0.12,0,0.23,0,0.34	S308.12,435.33,308.11,435.55z" class="st3"/><path d="M308.11,435.55v0.35c0.01,0.07,0.01,0.13,0,0.2c0,0.15,0,0.31,0,0.47v0.1v0.39v0.11c0,0.02,0,0.04,0,0.06v0.36	v0.28l-0.09,0.71c0,0.15,0,0.31-0.07,0.46l0,0c0,0.07,0,0.15,0,0.23v0.13c0,0.04,0,0.08,0,0.12c-0.01,0.08-0.03,0.17-0.05,0.25	c-0.01,0.08-0.03,0.16-0.05,0.24c0,0.06,0,0.12,0,0.18s0,0.21-0.07,0.31l0,0l-0.06,0.21l-0.06,0.26l-0.09,0.31c0,0,0,0.05,0,0.08	s-0.06,0.21-0.1,0.32c-0.09,0.32-0.2,0.65-0.31,1l-0.11,0.3c-0.02,0.06-0.04,0.12-0.07,0.17c0.43-1.75,0.63-3.55,0.61-5.35	c-0.01-1.87-0.26-3.74-0.75-5.55c-1.44-5.33-4.82-9.93-9.48-12.9c-0.4-0.25-0.8-0.49-1.21-0.71c-6.61-3.63-14.63-3.63-21.24,0	c-0.73,0.39-1.43,0.83-2.1,1.31c-1.12,0.71-2.17,1.53-3.14,2.44c-0.84-0.84-1.74-1.61-2.7-2.3l0,0c-0.73-0.52-1.49-1.01-2.28-1.44	c-7.81-4.28-17.42-3.46-24.39,2.09c-0.64,0.52-1.26,1.07-1.84,1.65c-0.89,0.89-1.7,1.85-2.42,2.87c-0.44,0.61-0.84,1.25-1.21,1.91	l0,0c-0.35,0.61-0.66,1.24-0.94,1.89c-0.16,0.35-0.31,0.71-0.44,1.07c0-0.14,0.06-0.28,0.1-0.42l0.06-0.21v-0.12l0.09-0.32l0,0	c0.08-0.24,0.15-0.48,0.23-0.72l0.11-0.33c0.17-0.47,0.34-0.93,0.54-1.39l0.09-0.23l0.18-0.41l0.33-0.66v-0.05l0,0l0.16-0.29	l0.18-0.33c0.07-0.14,0.15-0.28,0.23-0.41l0.12-0.2l0.06-0.11l0,0l0,0c0-0.08,0.09-0.16,0.14-0.24s0.12-0.18,0.17-0.27l0.4-0.59	c0.05-0.07,0.09-0.14,0.14-0.2l0.18-0.25l0.19-0.26l0.24-0.31l0.21-0.27l0.08-0.09l0.15-0.19l0.25-0.29l0.11-0.12l0,0l0.19-0.21	l0.29-0.25c0.19-0.21,0.39-0.42,0.6-0.62l0.24-0.24l0.37-0.36l0.25-0.22l0.3-0.26l0.19-0.17l0.2-0.16c0.13-0.11,0.26-0.22,0.4-0.32	c0.06-0.06,0.13-0.11,0.2-0.16c0.33-0.26,0.67-0.51,1-0.74l0.21-0.14c0.07-0.05,0.14-0.1,0.21-0.14l0.19-0.13l0.3-0.18l0.14-0.09	l0.22-0.13c0.28-0.17,0.57-0.33,0.86-0.48l0.17-0.09l0.27-0.14l0.22-0.11l0.23-0.1l0.22-0.11l0.22-0.1l0.23-0.1l0.91-0.37l0.23-0.08	l0.24-0.09l0.22-0.07l0.18-0.06l0.42-0.14l0.22-0.07l0.17-0.05h0.17l0.31-0.09l0.4-0.1c0.41-0.1,0.83-0.19,1.25-0.27H251h0.24h0.24	h0.31h0.18c0.4-0.05,0.8-0.09,1.21-0.12h0.21h2.63h0.3l0,0h0.18l1,0.09l0.44,0.06h0.29h0.24h0.24h0.16	c0.42,0.07,0.83,0.16,1.25,0.26l0.5,0.14h0.14l0.22,0.07l0.42,0.12l0.18,0.06c0.31,0.09,0.61,0.2,0.91,0.31l0.21,0.08l0.27,0.1	l0.41,0.17l0.46,0.2l0.19,0.08l0.25,0.12l0.22,0.1l0.22,0.11l0.28,0.14l0.22,0.12l0.51,0.28l0.21,0.12c0.25,0.15,0.5,0.29,0.74,0.45	l0.2,0.13l0.21,0.14l0.21,0.14l0,0l0.14,0.09l0.87,0.64l0.2,0.16l0.4,0.32l0.19,0.16l0.2,0.17l0.29,0.26l0.25,0.22l0.37,0.36	l0.25,0.24l0.24-0.24l0.37-0.36l0.25-0.22l0.29-0.26l0.2-0.17l0.19-0.16l0.4-0.32l0.2-0.16c0.34-0.26,0.68-0.51,1-0.74l0.21-0.14	l0.21-0.14l0.2-0.13l0.29-0.18l0.15-0.09l0.21-0.13l0.87-0.48l0.17-0.09l0.27-0.14l0.22-0.11l0.22-0.1l0.23-0.11l0.22-0.1l0.23-0.1	l0.91-0.37l0.23-0.08l0.24-0.09l0.22-0.07l0.18-0.06l0.42-0.14l0.22-0.07l0.17-0.05h0.17l0.3-0.09l0.41-0.1	c0.41-0.1,0.83-0.19,1.25-0.27h0.17h0.24h0.24h0.3h0.18l1.21-0.12h0.22h2.63h0.3l0,0h0.17c0.33,0,0.65,0.05,1,0.09l0.43,0.06h0.3	h0.24h0.24h0.16c0.42,0.07,0.83,0.16,1.24,0.26l0.51,0.14h0.14l0.22,0.07l0.42,0.12l0.18,0.06c0.3,0.09,0.61,0.2,0.91,0.31l0.2,0.08	l0.27,0.1l0.41,0.17l0.47,0.2l0.18,0.08l0.25,0.12l0.23,0.1l0.22,0.11l0.28,0.14l0.22,0.12c0.17,0.09,0.34,0.18,0.5,0.28l0.22,0.12	l0.74,0.45l0.2,0.13l0.21,0.14l0.2,0.14l0,0l0.13,0.09c0.3,0.21,0.59,0.42,0.87,0.64l0.21,0.16l0.39,0.32l0.2,0.16l0.19,0.17	l0.26,0.22l0.25,0.23l0.14,0.14l0,0l0,0l0.24,0.23l0.11,0.11l0.13,0.13l0.24,0.24l0.37,0.39l0.21,0.22l0.34,0.39l0.36,0.43	c0.41,0.51,0.8,1,1.16,1.56l0.15,0.22l0.15,0.24l0.13,0.21l0.22,0.35l0.19,0.33l0.12,0.2l0.09,0.16c0,0.05,0.05,0.11,0.08,0.16	c0.03,0.05,0.09,0.16,0.13,0.24c0.04,0.08,0.08,0.16,0.13,0.24c0.28,0.56,0.54,1.14,0.78,1.72c0,0.08,0.07,0.16,0.1,0.25l0.27,0.72	l0.07,0.22c0,0.1,0.07,0.21,0.11,0.31s0.06,0.19,0.08,0.28l0.06,0.18l0.07,0.25l0.09,0.32c0.05,0.17,0.09,0.34,0.13,0.52	c0.03,0.09,0.05,0.18,0.07,0.27c0,0.12,0.06,0.25,0.08,0.38v0.16c0,0.08,0,0.15,0,0.23v0.17v0.15v0.13v0.14c0,0.09,0,0.18,0,0.27	s0,0.18,0,0.28s0,0.2,0,0.3s0,0.2,0,0.29v0.17v0.31c0,0.05,0,0.1,0,0.15s0,0.21,0,0.31l0,0c0,0.07,0,0.13,0,0.2c0,0.07,0,0.13,0,0.2	c0,0.11,0,0.22,0,0.33l0,0c0,0.12,0,0.23,0,0.34S308.12,435.33,308.11,435.55z" class="st4"/><path d="M391.21,333.22v0.25c0,0.04,0,0.09,0,0.13c0,0.11,0,0.23,0,0.34v0.07c0,0.09,0,0.18,0,0.27v0.11v0.26	c0,0.07,0,0.13,0,0.2l-0.06,0.5l-0.06,0.32l0,0v0.16c0,0.03,0,0.07,0,0.1c0,0,0,0.05,0,0.08s0,0.12,0,0.18v0.17v0.12	c0,0.07,0,0.15,0,0.22l0,0v0.14c0,0.06,0,0.13-0.05,0.19l-0.06,0.22c0,0,0,0,0,0.05l-0.06,0.23c-0.07,0.23-0.15,0.46-0.23,0.68	s0,0.15-0.07,0.22l-0.05,0.12c-0.51,1.34-1.2,2.61-2.06,3.77l-0.17,0.21c-0.4,0.53-0.85,1.04-1.32,1.51l-22.05,22.05l-22.05-22.05	c-3.24-3.25-4.89-7.77-4.51-12.35c0-0.28,0.06-0.56,0.1-0.85c0.07-0.49,0.16-0.99,0.28-1.47c0-0.1,0.05-0.2,0.07-0.3	c0-0.05,0-0.1,0-0.15v-0.09l0.06-0.22l0,0c0.05-0.18,0.11-0.35,0.16-0.51l0.08-0.24c0.12-0.33,0.24-0.65,0.38-1l0.09-0.19	c0-0.1,0.08-0.19,0.13-0.29l0.22-0.46l0,0l0,0c0.04-0.07,0.08-0.14,0.11-0.21l0.13-0.23c0.05-0.1,0.11-0.2,0.17-0.29	c0.02-0.05,0.05-0.1,0.08-0.14v-0.08l0,0l0,0l0.11-0.16l0.12-0.19l0.28-0.42l0.1-0.15l0.12-0.17l0.14-0.19l0.17-0.21	c0.04-0.07,0.09-0.13,0.15-0.19l0.05-0.07l0.11-0.13c0.06-0.07,0.11-0.14,0.17-0.2l0.08-0.09l0,0l0.13-0.14l0.15-0.17l0.42-0.44	l0.17-0.17l0.27-0.25c0.06-0.05,0.12-0.1,0.17-0.16l0.21-0.18l0.14-0.12l0.14-0.11l0.28-0.23l0.14-0.11l0.72-0.53l0.15-0.1	l0.15-0.09l0.14-0.09l0.2-0.13l0.11-0.06l0.15-0.09c0.2-0.12,0.4-0.24,0.61-0.34l0.12-0.07l0.19-0.1l0.16-0.07l0.16-0.08l0.15-0.07	l0.16-0.07l0.16-0.07l0.65-0.26l0.16-0.06l0.17-0.06l0.15-0.06h0.13l0.3-0.1h0.15h0.12h0.12l0.22-0.06l0.28-0.07	c0.3-0.08,0.59-0.14,0.89-0.19h0.12h0.17h0.17h0.21h0.13c0.28,0,0.57-0.07,0.85-0.09h2.37l0.68,0.07h0.31h0.21h0.17h0.17h0.11	c0.29,0.05,0.59,0.11,0.88,0.18l0.36,0.1h0.1h0.15l0.3,0.08h0.12l0.65,0.22l0.14,0.06l0.19,0.07l0.29,0.12l0.33,0.14l0.13,0.06	l0.18,0.08l0.16,0.08l0.15,0.07l0.2,0.1l0.15,0.09l0.36,0.19l0.15,0.09l0.53,0.32l0.14,0.09l0.14,0.09l0.15,0.1l0,0l0.1,0.07	c0.21,0.14,0.41,0.29,0.61,0.45l0.14,0.11l0.29,0.23l0.13,0.11l0.14,0.12l0.21,0.18l0.18,0.16c0.08,0.09,0.17,0.17,0.26,0.25	l0.17,0.17l0.17-0.17c0.09-0.08,0.18-0.16,0.26-0.25l0.18-0.16l0.21-0.18l0.14-0.12l0.13-0.11l0.29-0.23l0.14-0.11	c0.23-0.18,0.47-0.36,0.72-0.53l0.15-0.1l0.14-0.09l0.14-0.09l0.21-0.13l0.1-0.06l0.15-0.09c0.21-0.12,0.41-0.24,0.62-0.34	l0.12-0.07l0.19-0.1l0.15-0.07l0.16-0.08l0.16-0.07l0.16-0.07l0.16-0.07l0.64-0.26l0.16-0.06l0.17-0.06l0.16-0.06h0.13l0.29-0.1	h0.16h0.12h0.12l0.21-0.06l0.29-0.07c0.29-0.08,0.59-0.14,0.88-0.19h0.12h0.17h0.17h0.22h0.13c0.28,0,0.56-0.07,0.85-0.09h2.37	l0.68,0.07h0.31h0.2h0.17h0.17h0.12l0.87,0.18l0.36,0.1h0.1h0.16l0.29,0.08h0.13l0.64,0.22l0.15,0.06l0.19,0.07l0.29,0.12l0.33,0.14	l0.13,0.06l0.17,0.08l0.16,0.08l0.16,0.07l0.19,0.1l0.16,0.09l0.36,0.19l0.15,0.09c0.18,0.1,0.35,0.21,0.52,0.32l0.14,0.09	l0.15,0.09l0.15,0.1l0,0l0.09,0.07c0.21,0.14,0.42,0.29,0.62,0.45l0.14,0.11c0.1,0.07,0.19,0.15,0.28,0.23l0.14,0.11l0.14,0.12	l0.18,0.16l0.18,0.16l0.1,0.1l0,0l0.17,0.17l0.07,0.07l0.1,0.09l0.17,0.18l0.26,0.27l0.14,0.16l0.24,0.27l0.26,0.31	c0.29,0.35,0.56,0.72,0.82,1.1l0.1,0.15c0,0.06,0.07,0.12,0.11,0.17l0.09,0.15c0.05,0.08,0.11,0.16,0.16,0.25l0.13,0.23	c0.03,0.04,0.06,0.09,0.08,0.14l0.07,0.11l0.06,0.12l0.09,0.17l0.09,0.17c0.2,0.39,0.38,0.8,0.55,1.21l0.07,0.18	c0.07,0.17,0.13,0.33,0.19,0.51c0.02,0.05,0.04,0.1,0.05,0.15c0,0.08,0,0.15,0.08,0.22l0.06,0.2c0,0.04,0,0.09,0,0.13	c0,0.06,0,0.12,0.05,0.18l0.06,0.22c0,0.12,0.07,0.24,0.1,0.36s0,0.13,0,0.2l0.06,0.27v0.11v0.16c0,0.04,0,0.08,0,0.12	c0,0,0,0.07,0,0.1v0.1c0,0,0,0.06,0,0.1v0.19v0.19v0.22c0,0.07,0,0.14,0,0.21v0.11c-0.01,0.07-0.01,0.15,0,0.22	c0,0.04,0,0.07,0,0.11c0,0.07,0,0.14,0,0.22l0,0c0,0.05,0,0.09,0,0.14c0,0.05,0,0.09,0,0.14c0.01,0.08,0.01,0.16,0,0.24l0,0	c0.01,0.08,0.01,0.16,0,0.24L391.21,333.22z" class="st3"/><path d="M391.21,333.22v0.25c0,0.04,0,0.09,0,0.13c0,0.11,0,0.23,0,0.34v0.07c0,0.09,0,0.18,0,0.27v0.11v0.26	c0,0.07,0,0.13,0,0.2l-0.06,0.5l-0.06,0.32l0,0v0.16c0,0.03,0,0.07,0,0.1c0,0,0,0.05,0,0.08s0,0.12,0,0.18v0.17v0.12	c0,0.07,0,0.15,0,0.22l0,0v0.14c0,0.06,0,0.13-0.05,0.19l-0.06,0.22c0,0,0,0,0,0.05l-0.06,0.23c-0.07,0.23-0.15,0.46-0.23,0.68	s0,0.15-0.07,0.22l-0.05,0.12c0.3-1.24,0.44-2.51,0.43-3.78c-0.01-1.33-0.19-2.65-0.53-3.93c-0.7-2.64-2.08-5.06-4-7	c-0.81-0.81-1.71-1.53-2.67-2.14c-0.28-0.17-0.56-0.34-0.85-0.5c-4.67-2.56-10.33-2.56-15,0c-0.51,0.28-1,0.59-1.48,0.92	c-0.71,0.52-1.38,1.09-2,1.72c-0.59-0.59-1.23-1.13-1.9-1.62l0,0c-0.52-0.37-1.06-0.7-1.62-1c-4.67-2.56-10.33-2.56-15,0	c-0.78,0.43-1.52,0.92-2.21,1.48c-0.45,0.36-0.89,0.75-1.3,1.16c-0.63,0.62-1.2,1.29-1.72,2c-0.31,0.44-0.59,0.89-0.85,1.35l0,0	c-0.25,0.43-0.47,0.88-0.67,1.34c-0.11,0.25-0.21,0.5-0.31,0.76c0-0.1,0.05-0.2,0.07-0.3c0-0.05,0-0.1,0-0.15v-0.09l0.06-0.22l0,0	c0.05-0.18,0.11-0.35,0.16-0.51l0.08-0.24c0.12-0.33,0.24-0.65,0.38-1l0.09-0.19c0-0.1,0.08-0.19,0.13-0.29l0.22-0.46l0,0l0,0	c0.04-0.07,0.08-0.14,0.11-0.21l0.13-0.23c0.05-0.1,0.11-0.2,0.17-0.29c0.02-0.05,0.05-0.1,0.08-0.14v-0.08l0,0l0,0l0.11-0.16	l0.12-0.19l0.28-0.42l0.1-0.15l0.12-0.17l0.14-0.19l0.17-0.21c0.04-0.07,0.09-0.13,0.15-0.19l0.05-0.07l0.11-0.13	c0.06-0.07,0.11-0.14,0.17-0.2l0.08-0.09l0,0l0.13-0.14l0.15-0.17l0.42-0.44l0.17-0.17l0.27-0.25c0.06-0.05,0.12-0.1,0.17-0.16	l0.21-0.18l0.14-0.12l0.14-0.11l0.28-0.23l0.14-0.11l0.72-0.53l0.15-0.1l0.15-0.09l0.14-0.09l0.2-0.13l0.11-0.06l0.15-0.09	c0.2-0.12,0.4-0.24,0.61-0.34l0.12-0.07l0.19-0.1l0.16-0.07l0.16-0.08l0.15-0.07l0.16-0.07l0.16-0.07l0.65-0.26l0.16-0.06l0.17-0.06	l0.15-0.06h0.13l0.3-0.1h0.15h0.12h0.12l0.22-0.06l0.28-0.07c0.3-0.08,0.59-0.14,0.89-0.19h0.12h0.17h0.17h0.21h0.13	c0.28,0,0.57-0.07,0.85-0.09h2.37l0.68,0.07h0.31h0.21h0.17h0.17h0.11c0.29,0.05,0.59,0.11,0.88,0.18l0.36,0.1h0.1h0.15l0.3,0.08	h0.12l0.65,0.22l0.14,0.06l0.19,0.07l0.29,0.12l0.33,0.14l0.13,0.06l0.18,0.08l0.16,0.08l0.15,0.07l0.2,0.1l0.15,0.09l0.36,0.19	l0.15,0.09l0.53,0.32l0.14,0.09l0.14,0.09l0.15,0.1l0,0l0.1,0.07c0.21,0.14,0.41,0.29,0.61,0.45l0.14,0.11l0.29,0.23l0.13,0.11	l0.14,0.12l0.21,0.18l0.18,0.16c0.08,0.09,0.17,0.17,0.26,0.25l0.17,0.17l0.17-0.17c0.09-0.08,0.18-0.16,0.26-0.25l0.18-0.16	l0.21-0.18l0.14-0.12l0.13-0.11l0.29-0.23l0.14-0.11c0.23-0.18,0.47-0.36,0.72-0.53l0.15-0.1l0.14-0.09l0.14-0.09l0.21-0.13	l0.1-0.06l0.15-0.09c0.21-0.12,0.41-0.24,0.62-0.34l0.12-0.07l0.19-0.1l0.15-0.07l0.16-0.08l0.16-0.07l0.16-0.07l0.16-0.07	l0.64-0.26l0.16-0.06l0.17-0.06l0.16-0.06h0.13l0.29-0.1h0.16h0.12h0.12l0.21-0.06l0.29-0.07c0.29-0.08,0.59-0.14,0.88-0.19h0.12	h0.17h0.17h0.22h0.13c0.28,0,0.56-0.07,0.85-0.09h2.37l0.68,0.07h0.31h0.2h0.17h0.17h0.12l0.87,0.18l0.36,0.1h0.1h0.16l0.29,0.08	h0.13l0.64,0.22l0.15,0.06l0.19,0.07l0.29,0.12l0.33,0.14l0.13,0.06l0.17,0.08l0.16,0.08l0.16,0.07l0.19,0.1l0.16,0.09l0.36,0.19	l0.15,0.09c0.18,0.1,0.35,0.21,0.52,0.32l0.14,0.09l0.15,0.09l0.15,0.1l0,0l0.09,0.07c0.21,0.14,0.42,0.29,0.62,0.45l0.14,0.11	c0.1,0.07,0.19,0.15,0.28,0.23l0.14,0.11l0.14,0.12l0.18,0.16l0.18,0.16l0.1,0.1l0,0l0.17,0.17l0.07,0.07l0.1,0.09l0.17,0.18	l0.26,0.27l0.14,0.16l0.24,0.27l0.26,0.31c0.29,0.35,0.56,0.72,0.82,1.1l0.1,0.15c0,0.06,0.07,0.12,0.11,0.17l0.09,0.15	c0.05,0.08,0.11,0.16,0.16,0.25l0.13,0.23c0.03,0.04,0.06,0.09,0.08,0.14l0.07,0.11l0.06,0.12l0.09,0.17l0.09,0.17	c0.2,0.39,0.38,0.8,0.55,1.21l0.07,0.18c0.07,0.17,0.13,0.33,0.19,0.51c0.02,0.05,0.04,0.1,0.05,0.15c0,0.08,0,0.15,0.08,0.22	l0.06,0.2c0,0.04,0,0.09,0,0.13c0,0.06,0,0.12,0.05,0.18l0.06,0.22c0,0.12,0.07,0.24,0.1,0.36s0,0.13,0,0.2l0.06,0.27v0.11v0.16	c0,0.04,0,0.08,0,0.12c0,0,0,0.07,0,0.1v0.1c0,0,0,0.06,0,0.1v0.19v0.19v0.22c0,0.07,0,0.14,0,0.21v0.11	c-0.01,0.07-0.01,0.15,0,0.22c0,0.04,0,0.07,0,0.11c0,0.07,0,0.14,0,0.22l0,0c0,0.05,0,0.09,0,0.14c0,0.05,0,0.09,0,0.14	c0.01,0.08,0.01,0.16,0,0.24l0,0c0.01,0.08,0.01,0.16,0,0.24L391.21,333.22z" class="st6"/><path d="M627.2,417.7v0.25c0,0.05,0,0.09,0,0.14c0,0.11,0,0.22,0,0.33v0.07c0,0.09,0,0.18,0,0.27v0.13v0.25	c0,0.07,0,0.13,0,0.2l-0.06,0.5c0,0.11,0,0.22,0,0.33l0,0v0.16c0.01,0.03,0.01,0.07,0,0.1c0,0,0,0.06,0,0.09c0,0.06,0,0.11,0,0.17	v0.17v0.13c0,0.07,0,0.14,0,0.22l0,0c0,0.05,0,0.1,0,0.15c0,0.06,0,0.12,0,0.18l-0.06,0.22c0,0,0,0,0,0.06	c-0.03,0.07-0.05,0.15-0.07,0.22c-0.07,0.23-0.14,0.46-0.22,0.69c-0.03,0.07-0.06,0.14-0.08,0.21l-0.05,0.12	c-0.51,1.35-1.2,2.61-2.06,3.77l-0.16,0.21c-0.41,0.53-0.86,1.04-1.33,1.51l-22.05,22.05l-22-22.05c-0.64-0.63-1.22-1.31-1.73-2.05	c-0.33-0.46-0.63-0.94-0.9-1.43c-1.49-2.71-2.14-5.79-1.88-8.87c0-0.28,0.03-0.56,0.09-0.84c0.07-0.5,0.16-0.99,0.28-1.48	c0-0.1,0-0.2,0.08-0.3c0-0.05,0-0.1,0-0.15c0-0.03,0-0.06,0-0.09l0.06-0.22l0,0c0-0.17,0.11-0.34,0.16-0.51	c0.03-0.08,0.06-0.16,0.08-0.24c0.12-0.33,0.25-0.65,0.38-1l0.09-0.2c0-0.09,0.08-0.19,0.13-0.29s0.15-0.31,0.23-0.46l0,0l0,0	l0.1-0.21l0.13-0.23c0.06-0.1,0.11-0.2,0.17-0.29c0.02-0.05,0.05-0.1,0.08-0.14c0,0,0-0.05,0-0.08l0,0c0-0.06,0.07-0.12,0.11-0.17	l0.12-0.19l0.28-0.42l0.1-0.14l0.13-0.18l0.13-0.18l0.17-0.22l0.15-0.19v-0.07l0.11-0.13l0.17-0.2l0.08-0.09l0,0l0.13-0.15	l0.15-0.16c0.14-0.15,0.28-0.3,0.43-0.44c0.05-0.06,0.11-0.12,0.17-0.17c0.08-0.09,0.17-0.17,0.26-0.25l0.18-0.16	c0.06-0.07,0.13-0.13,0.2-0.19l0.14-0.12l0.14-0.11l0.28-0.23l0.14-0.11c0.24-0.18,0.48-0.36,0.72-0.52l0.15-0.1l0.15-0.1l0.14-0.09	l0.21-0.13l0.1-0.06l0.15-0.09l0.61-0.34l0.12-0.07l0.19-0.09l0.16-0.08l0.16-0.07l0.16-0.08l0.15-0.07l0.16-0.07l0.65-0.26	l0.16-0.06l0.17-0.06l0.15-0.05l0.13-0.05l0.3-0.09h0.15h0.12h0.12l0.22-0.06l0.28-0.07c0.3-0.07,0.59-0.14,0.89-0.19h0.12h0.17	h0.17h0.21h0.13l0.86-0.09h2.36l0.69,0.07h0.3h0.21h0.17h0.17h0.11c0.3,0.05,0.59,0.11,0.88,0.19l0.36,0.09h0.1h0.15l0.3,0.09h0.13	l0.64,0.22h0.14l0.19,0.07l0.29,0.12l0.33,0.14l0.13,0.06l0.18,0.09l0.16,0.07l0.15,0.08l0.2,0.1l0.16,0.08l0.35,0.2l0.16,0.08	l0.52,0.32l0.14,0.09l0.15,0.1l0.14,0.1l0,0l0.1,0.07l0.61,0.45l0.15,0.11l0.28,0.23l0.14,0.11l0.13,0.12l0.21,0.19l0.18,0.16	l0.26,0.25c0.06,0.05,0.12,0.11,0.17,0.17c0.06-0.06,0.11-0.12,0.17-0.17l0.27-0.25c0.05-0.06,0.11-0.11,0.17-0.16l0.21-0.19	l0.14-0.12l0.14-0.11l0.28-0.23l0.14-0.11c0.24-0.18,0.48-0.36,0.72-0.52l0.15-0.1l0.15-0.1l0.14-0.09l0.2-0.13l0.11-0.06l0.15-0.09	l0.61-0.34l0.12-0.07l0.19-0.09l0.16-0.08l0.15-0.07l0.16-0.08l0.16-0.07l0.16-0.07l0.64-0.26l0.16-0.06l0.17-0.06l0.16-0.05	l0.13-0.05l0.3-0.09h0.15h0.12h0.12l0.22-0.06l0.28-0.07c0.29-0.07,0.59-0.14,0.88-0.19h0.13h0.16h0.18h0.21h0.13l0.85-0.09h2.37	l0.68,0.07h0.31h0.21h0.17h0.17h0.11c0.29,0.05,0.59,0.11,0.88,0.19l0.36,0.09h0.09h0.16l0.29,0.09h0.13l0.64,0.22h0.15l0.19,0.07	l0.29,0.12l0.33,0.14l0.13,0.06l0.18,0.09l0.15,0.07l0.16,0.08l0.2,0.1l0.15,0.08l0.36,0.2l0.15,0.08c0.18,0.1,0.35,0.21,0.52,0.32	l0.14,0.09l0.15,0.1l0.15,0.1l0,0l0.1,0.07l0.61,0.45l0.14,0.11l0.28,0.23l0.14,0.11l0.14,0.12l0.18,0.16l0.18,0.16	c0.03,0.04,0.06,0.07,0.1,0.1l0,0c0,0.06,0.11,0.11,0.17,0.17l0.08,0.07l0.09,0.1l0.17,0.17l0.26,0.27l0.14,0.16	c0.09,0.09,0.17,0.18,0.24,0.28l0.26,0.3c0.29,0.36,0.56,0.72,0.82,1.1c0,0.05,0.07,0.1,0.1,0.16l0.11,0.16l0.09,0.15	c0.06,0.08,0.11,0.17,0.16,0.25l0.13,0.23l0.09,0.14l0.06,0.12l0.06,0.11l0.09,0.17l0.09,0.17c0.2,0.4,0.39,0.8,0.55,1.21	c0.03,0.06,0.05,0.12,0.07,0.18c0.07,0.17,0.13,0.34,0.19,0.51l0.06,0.16c0.02,0.07,0.04,0.14,0.07,0.21l0.06,0.2v0.13	c0,0.06,0,0.12,0,0.18l0.06,0.22c0,0.12,0.07,0.25,0.1,0.37s0,0.12,0,0.19l0.06,0.27v0.11v0.16c0,0,0,0.08,0,0.12s0,0.07,0,0.11	v0.09c0,0,0,0.07,0,0.1v0.19v0.2v0.21v0.21v0.12c0,0.07,0,0.14,0,0.21s0,0.07,0,0.11s0,0.15,0,0.22l0,0c0,0.04,0,0.09,0,0.13v0.14	c0.01,0.08,0.01,0.16,0,0.24l0,0c0.01,0.08,0.01,0.16,0,0.24L627.2,417.7z" class="st3"/><path d="M627.2,417.7v0.25c0,0.05,0,0.09,0,0.14c0,0.11,0,0.22,0,0.33v0.07c0,0.09,0,0.18,0,0.27v0.13v0.25	c0,0.07,0,0.13,0,0.2l-0.06,0.5c0,0.11,0,0.22,0,0.33l0,0v0.16c0.01,0.03,0.01,0.07,0,0.1c0,0,0,0.06,0,0.09c0,0.06,0,0.11,0,0.17	v0.17v0.13c0,0.07,0,0.14,0,0.22l0,0c0,0.05,0,0.1,0,0.15c0,0.06,0,0.12,0,0.18l-0.06,0.22c0,0,0,0,0,0.06	c-0.03,0.07-0.05,0.15-0.07,0.22c-0.07,0.23-0.14,0.46-0.22,0.69c-0.03,0.07-0.06,0.14-0.08,0.21l-0.05,0.12	c0.3-1.24,0.44-2.51,0.43-3.78c-0.05-5.28-2.77-10.17-7.23-13c-0.28-0.18-0.56-0.35-0.85-0.51c-4.67-2.56-10.33-2.56-15,0	c-0.51,0.28-1,0.59-1.48,0.93c-0.71,0.52-1.38,1.09-2,1.72c-0.59-0.59-1.22-1.14-1.9-1.63l0,0c-0.52-0.36-1.06-0.69-1.61-1	c-4.67-2.55-10.33-2.55-15,0c-0.78,0.43-1.52,0.93-2.21,1.48c-0.46,0.36-0.89,0.75-1.3,1.17c-0.63,0.61-1.2,1.28-1.71,2	c-0.31,0.44-0.6,0.89-0.86,1.36l0,0c-0.25,0.44-0.47,0.89-0.67,1.34c-0.11,0.25-0.21,0.5-0.31,0.76c0-0.1,0-0.2,0.08-0.3	c0-0.05,0-0.1,0-0.15c0-0.03,0-0.06,0-0.09l0.06-0.22l0,0c0-0.17,0.11-0.34,0.16-0.51c0.03-0.08,0.06-0.16,0.08-0.24	c0.12-0.33,0.25-0.65,0.38-1l0.09-0.2c0-0.09,0.08-0.19,0.13-0.29s0.15-0.31,0.23-0.46l0,0l0,0l0.1-0.21l0.13-0.23	c0.06-0.1,0.11-0.2,0.17-0.29c0.02-0.05,0.05-0.1,0.08-0.14c0,0,0-0.05,0-0.08l0,0c0-0.06,0.07-0.12,0.11-0.17l0.12-0.19l0.28-0.42	l0.1-0.14l0.13-0.18l0.13-0.18l0.17-0.22l0.15-0.19v-0.07l0.11-0.13l0.17-0.2l0.08-0.09l0,0l0.13-0.15l0.15-0.16	c0.14-0.15,0.28-0.3,0.43-0.44c0.05-0.06,0.11-0.12,0.17-0.17c0.08-0.09,0.17-0.17,0.26-0.25l0.18-0.16	c0.06-0.07,0.13-0.13,0.2-0.19l0.14-0.12l0.14-0.11l0.28-0.23l0.14-0.11c0.24-0.18,0.48-0.36,0.72-0.52l0.15-0.1l0.15-0.1l0.14-0.09	l0.21-0.13l0.1-0.06l0.15-0.09l0.61-0.34l0.12-0.07l0.19-0.09l0.16-0.08l0.16-0.07l0.16-0.08l0.15-0.07l0.16-0.07l0.65-0.26	l0.16-0.06l0.17-0.06l0.15-0.05l0.13-0.05l0.3-0.09h0.15h0.12h0.12l0.22-0.06l0.28-0.07c0.3-0.07,0.59-0.14,0.89-0.19h0.12h0.17	h0.17h0.21h0.13l0.86-0.09h2.36l0.69,0.07h0.3h0.21h0.17h0.17h0.11c0.3,0.05,0.59,0.11,0.88,0.19l0.36,0.09h0.1h0.15l0.3,0.09h0.13	l0.64,0.22h0.14l0.19,0.07l0.29,0.12l0.33,0.14l0.13,0.06l0.18,0.09l0.16,0.07l0.15,0.08l0.2,0.1l0.16,0.08l0.35,0.2l0.16,0.08	l0.52,0.32l0.14,0.09l0.15,0.1l0.14,0.1l0,0l0.1,0.07l0.61,0.45l0.15,0.11l0.28,0.23l0.14,0.11l0.13,0.12l0.21,0.19l0.18,0.16	l0.26,0.25c0.06,0.05,0.12,0.11,0.17,0.17c0.06-0.06,0.11-0.12,0.17-0.17l0.27-0.25c0.05-0.06,0.11-0.11,0.17-0.16l0.21-0.19	l0.14-0.12l0.14-0.11l0.28-0.23l0.14-0.11c0.24-0.18,0.48-0.36,0.72-0.52l0.15-0.1l0.15-0.1l0.14-0.09l0.2-0.13l0.11-0.06l0.15-0.09	l0.61-0.34l0.12-0.07l0.19-0.09l0.16-0.08l0.15-0.07l0.16-0.08l0.16-0.07l0.16-0.07l0.64-0.26l0.16-0.06l0.17-0.06l0.16-0.05	l0.13-0.05l0.3-0.09h0.15h0.12h0.12l0.22-0.06l0.28-0.07c0.29-0.07,0.59-0.14,0.88-0.19h0.13h0.16h0.18h0.21h0.13l0.85-0.09h2.37	l0.68,0.07h0.31h0.21h0.17h0.17h0.11c0.29,0.05,0.59,0.11,0.88,0.19l0.36,0.09h0.09h0.16l0.29,0.09h0.13l0.64,0.22h0.15l0.19,0.07	l0.29,0.12l0.33,0.14l0.13,0.06l0.18,0.09l0.15,0.07l0.16,0.08l0.2,0.1l0.15,0.08l0.36,0.2l0.15,0.08c0.18,0.1,0.35,0.21,0.52,0.32	l0.14,0.09l0.15,0.1l0.15,0.1l0,0l0.1,0.07l0.61,0.45l0.14,0.11l0.28,0.23l0.14,0.11l0.14,0.12l0.18,0.16l0.18,0.16	c0.03,0.04,0.06,0.07,0.1,0.1l0,0c0,0.06,0.11,0.11,0.17,0.17l0.08,0.07l0.09,0.1l0.17,0.17l0.26,0.27l0.14,0.16	c0.09,0.09,0.17,0.18,0.24,0.28l0.26,0.3c0.29,0.36,0.56,0.72,0.82,1.1c0,0.05,0.07,0.1,0.1,0.16l0.11,0.16l0.09,0.15	c0.06,0.08,0.11,0.17,0.16,0.25l0.13,0.23l0.09,0.14l0.06,0.12l0.06,0.11l0.09,0.17l0.09,0.17c0.2,0.4,0.39,0.8,0.55,1.21	c0.03,0.06,0.05,0.12,0.07,0.18c0.07,0.17,0.13,0.34,0.19,0.51l0.06,0.16c0.02,0.07,0.04,0.14,0.07,0.21l0.06,0.2v0.13	c0,0.06,0,0.12,0,0.18l0.06,0.22c0,0.12,0.07,0.25,0.1,0.37s0,0.12,0,0.19l0.06,0.27v0.11v0.16c0,0,0,0.08,0,0.12s0,0.07,0,0.11	v0.09c0,0,0,0.07,0,0.1v0.19v0.2v0.21v0.21v0.12c0,0.07,0,0.14,0,0.21s0,0.07,0,0.11s0,0.15,0,0.22l0,0c0,0.04,0,0.09,0,0.13v0.14	c0.01,0.08,0.01,0.16,0,0.24l0,0c0.01,0.08,0.01,0.16,0,0.24L627.2,417.7z" class="st4"/><linearGradient id="SVGID_1_" x1="597.131" x2="597.131" y1="-19.035" y2="645.464" gradientTransform="matrix(1 0 0 -1 -142.33 822.2798)" gradientUnits="userSpaceOnUse"><stop offset="0" style="stop-color:gray;stop-opacity:.25"/><stop offset=".54" style="stop-color:gray;stop-opacity:.12"/><stop offset="1" style="stop-color:gray;stop-opacity:.1"/></linearGradient><path d="M561.09,422.39L561.09,422.39c-3.2-3.25-6.59-6.3-10.16-9.15c0.43-5.36,1.43-18.19,1.52-20.66	c0.1-3.13-4.51-7.13-14.37-10.82s-7,13.52-6.86,15.07s2.29,6.24,6,7.78c1.33,0.55,1.69,1.24,1.6,1.89l-0.31-0.05	c-8.11-1-11.77-2.88-11.77-2.88s-3,9-3,13.32c0,0.24,0,0.47,0,0.68c-0.1,0.78-0.02,1.58,0.24,2.32h0.69	c0.08,1.17-0.1,2.34-0.55,3.42l0,0c-0.29,0.84-0.63,1.66-1,2.46c-0.29-2.46-0.45-4.93-0.47-7.41c0.16-2.4-3.66-12.15-3.66-12.15	s-1.59-0.64-4.93-4.48s-6-5.44-8.27-6.24s-10.5-11.51-13.89-14c-2.7-2-3.79-0.82-4.12-0.26l-0.2,0.14	c-1.57-2.18-2.69-4.26-2.69-5.74c0-1.09,0.11-3.33,0.31-6.17c1.18,0.9,2.27,1.91,3.28,3c2.3,2.55,4,5.59,6.51,7.94	c1.9,1.93,4.47,3.05,7.18,3.14c0.89,0.04,1.77-0.1,2.6-0.41c3.34-1.29,5.49-5.36,9-5.52c2.76,0.14,4.79,2.69,7.05,4.37	c1.66,1.3,3.7,2,5.81,2c0.83,0.03,1.67-0.11,2.45-0.39c2.6-1,4.38-4.17,3.19-6.68c-1.84-3.88-8.1-3-10.77-6.38	c-0.62-0.66-0.85-1.6-0.62-2.48c0.23-0.7,0.88-1.17,1.62-1.18c1.27,0.14,2.45,0.7,3.35,1.6c1.3,1.32,3,3,4.61,2.82	c0.45,0.05,0.91-0.03,1.31-0.25c0.05-1.19,0.11-2.38,0.16-3.57c1.7,0.96,3.61,1.5,5.56,1.58c0.36,0.01,0.72,0,1.08-0.05	c2.11-0.28,4.12-2.24,3.88-4.28c0.93,0.77,2.12,1.17,3.33,1.11c0.54,0.03,1.08-0.04,1.6-0.2c1.81-0.63,3.08-2.26,3.24-4.16	c0.16-2.22-1.21-4.22-2.53-6l-6.54-8.94c-0.66-0.69-1.02-1.62-1-2.58c0.23-0.74,0.61-1.42,1.12-2c1.78-2.6,0.91-6.41-1.36-8.6	s-5.58-2.95-8.72-2.89c-2.37,0.05-5,0.45-6.91-0.9c-1.51-1-2.22-2.92-2.7-4.71c-1.39-5.26-1.47-10.78-2.44-16.13	s-3.06-10.85-7.4-14.11c-0.98-0.81-2.17-1.33-3.43-1.5c-1.06,0.02-2.13,0.1-3.18,0.26c-3.6,0.2-6.81-2.28-9.08-5.1s-4-6.1-6.61-8.57	c-3.85-3.87-10.22-5-15.34-3.55c-2.34,0.65-4.2,2.55-6.62,2.65c-3.55,0.16-7.4-0.65-10.94-1c-3.33-0.3-6.73-0.59-10,0.22	c-2.97,0.65-5.51,2.54-7,5.19l-0.85-7.21c0,0-1.76-13.6-2.55-14.71c-0.57-0.81-0.32-1.94,0.1-3.21l0.16,0.15	c0.12-0.36,0.25-0.73,0.38-1.1c0.05-0.28,0.05-0.56,0-0.84c0.31-2.73-4.65-20.11-4.65-20.11h-4.46c0-0.21-0.07-0.43-0.11-0.64	c-1.3-7.07-3.49-18.12-5-20.78c-1-1.83-1.11-4.44-0.9-6.72c0.26-2.63,0.33-5.29,0.21-7.93c-0.05-1.28,0.01-2.55,0.18-3.82	c0.25-1.93-0.57-3.84-2.13-5c-5.85-4.34-20.07-14.22-28.39-14.47c-10.66-0.32,3.34,18.39,3.18,20.15s10.66,3.36,10.66,3.36	s0.64,5.43,1.28,8.47c0.44,2.11,1.18,17.76,1.6,27.15c-2.61-0.32-7.17-2.69-7.17-2.69s-12.41-3.35-13.53,0s15.12,19.51,15.12,19.51	s5.73,15.19,4,20s-0.48,27.5-0.48,27.5s0.16,27,1.35,33.9s-2.15,10.71-2.15,10.71s-1.43,16.95,0,18.55c1.46,2,2.77,4.1,3.92,6.29	l0.42,0.76c-4.7,5.74-9.37,11.23-11.82,12c-4.77,1.44-37.38,15-37.38,15s-10.65,10.18-12.26,10.18s9.7,10.88,9.7,10.88	s10.18,8.15,11.3,9.43s29,16.47,29,16.47s4.78,1.44,5.25,2.88s6.84,5.43,6.84,5.43s4.88,5.64,6.16,9.24c0,0.26,0,0.48,0.07,0.69	c0.06,1,0.13,1.46,0.19,1.22c0.85,2.34,6.58,8.31,3.82,12.57c-1.28,2,0,5.59,2.47,8.49c-0.67,3.58-1.6,7.66-2.6,9	c-1.91,2.56-1.06,6.18-3,6.61s-2.55,9.81-2.55,9.81l-1.65,20.67c0,0-0.43,4.26-2.76,5.33s0,6.82,0,6.82s-2.5,4.9-1,7.67	s-3,15.57-3,15.57s-1.91,24.73,0,28.14c1.73,3.38,2.75,7.08,3,10.87c0,2.13,1.06,42,1.06,42s-2.55,16.2-3.4,19.18s2.34,9.6,0.22,13	s-1.7,11.08-1.7,11.08s-3.18,30.06-1.27,41.15s-0.61,13.43-0.61,13.43c1.31,0.74,2.69,1.35,4.12,1.82c0.05,0.42,0.1,0.87,0.15,1.33	c1,9.3,2.47,25.32,1.13,29s-1.72,10.62-1.85,14.56c0,0.23,0,0.44,0,0.65l0,0l-3.71,6c0,0-0.74,5.29-1.7,6.14s-8.93,15.32-10,17.18	l-0.11,0.2c0,0-8.06,14.82,11.88,15.24s17.39-9.8,17.39-9.8s0.06-2,0.25-4.45c0.24-3,0.68-6.65,1.45-7.6c1.38-1.7,5.41-9.7,5.41-9.7	v-11.74h-1.28c0-0.2,0-0.42,0.07-0.64c0.17-2.44,0.54-4.87,1.11-7.25c0.63-1.49-1.38-10.45-1.38-10.45s0.44-17.23,2.41-28.12	c0.09-0.48,0.18-0.95,0.27-1.4c1.48-0.64,2.91-1.39,4.29-2.24c0,0,0-21.74,2.55-25.58s2.01-14.71,2.01-14.71s0.63-9.59,2.54-11.51	s1.46-10.45,1.46-10.45s1.69-5.54,3.6-10s3-17.05,3-17.05c0.66-2.21,1.68-4.3,3-6.19c2.13-3,0-9.59,0-9.59s-2.33-4.26-0.84-8.53	s9.75-38.8,9.75-38.8l3.19-12.36l4.66,15.77c0,0-0.63,11.3,0,14.5s5.09,10,5.09,10v33.47c0,0,0.43,22.6,2.13,26.22	s2.54,17.06,2.54,17.06s5.73,39.44,2.12,45.19c1.84,1.26,3.81,2.33,5.86,3.21v23.23c0,0-4.16,14.06-2.74,23.63	c0,0.19,0.06,0.38,0.09,0.57c-0.38,0.28-0.8,0.52-1.06,0.42l0.67,16c0,0,0.18,8.88-1.52,13.55c-0.56,1.64-0.9,3.35-1,5.08	c-0.37,6.33,2.07,15,16,14.1c18.55-1.18,15.69-13,15.69-13s0-0.46-0.07-1.27c-0.43-6.03-1.99-11.93-4.6-17.38	c-4.45-8.74-3.81-19.62-3.81-19.62c-0.37,0.13-0.75,0.23-1.13,0.3c0-0.21,0-0.43,0.05-0.65c0.24-3,0.61-6.89,1-8.71	c0.63-3.2,0-10.65,0-10.65l2.39-23.35l0.13-1.3c1.16-0.55,2.26-1.22,3.29-2l0,0l0,0c-0.71-2.1-1.12-4.29-1.23-6.5	c-0.14-1.48,0.3-2.95,1.23-4.11c2.76-2.77,4.66-37.52,4.66-37.52s1.5-12.23,1.51-16.36c0-0.29,0-0.54,0-0.74	c-0.17-2.49-1.49-12.24-1.47-17.93c-0.05-1.2,0.08-2.4,0.41-3.56c1.27-3.2,3-63.32,3-63.32l2.12-26.64v-21.88	c0-10.47-1.27-20.91-3.79-31.07c5.78,3,15.69,9.82,17.5,8c2.23-2.24,3.34-40.62,2.7-44.45c0-0.21-0.08-0.48-0.15-0.78	c-0.15-0.7-0.37-1.64-0.64-2.73l0.88-1.53c4.35-7.53,11-19.49,11.53-23c0.6-4,1.39-14.39,2.89-18.94c0.12-0.37,0.26-0.72,0.43-1.07	l0,0c0.39-0.79,0.81-1.22,1.29-1.1c2.71,0.64,4.46,2.72,5.89,1.92c0.07-0.04,0.14-0.1,0.19-0.16l0,0c0.14-0.15,0.26-0.33,0.36-0.51	l0,0c0.13-0.23,0.24-0.48,0.33-0.73l0,0c0.1-0.26,0.19-0.55,0.28-0.86v-0.09c0-0.13,0.07-0.26,0.1-0.39c0-0.04,0-0.09,0-0.13	c0-0.11,0.05-0.23,0.08-0.34l0.06-0.25v-0.13c0.25-1.13,0.44-2.3,0.56-3.12c0-0.3,0.07-0.55,0.1-0.74v-0.4L561.09,422.39z" class="st7"/><linearGradient id="SVGID_2_" x1="559.388" x2="559.388" y1="357.03" y2="358.9" gradientTransform="matrix(1 0 0 -1 -142.33 822.2798)" gradientUnits="userSpaceOnUse"><stop offset="0" style="stop-color:gray;stop-opacity:.25"/><stop offset=".54" style="stop-color:gray;stop-opacity:.12"/><stop offset="1" style="stop-color:gray;stop-opacity:.1"/></linearGradient><path d="M417.15,465.17c0.09-0.61,0.01-1.22-0.22-1.79C417,464.82,417.08,465.48,417.15,465.17z" class="st8"/><path d="M537.11,410.86c0,0,3.78-2.58,0.09-4.1s-5.86-6.2-6-7.74s-3-18.66,6.86-15s14.47,7.64,14.37,10.76	s-1.7,22.9-1.7,22.9L537.11,410.86z" class="st9"/><path d="M561.09,424.45c0,0,0,0.46-0.15,1.14c-0.29,2-1,6.12-2.08,6.71c-1.43,0.8-3.18-1.27-5.89-1.91	c-0.48-0.11-0.9,0.31-1.29,1.1c-0.16,0.34-0.31,0.7-0.43,1.06c-1.5,4.54-2.29,14.88-2.89,18.86c-0.54,3.51-7.18,15.42-11.53,22.91	c-0.65,1.13-1.26,2.16-1.78,3c-1.2,2-2,3.31-2,3.31l-11-20.62V429.6c0.79-1.34,1.46-2.75,2-4.21l0,0c0.45-1.07,0.64-2.24,0.55-3.4	c-0.04-0.38-0.21-0.73-0.47-1c-0.09-0.09-0.16-0.2-0.21-0.31c-0.04-0.08-0.07-0.17-0.1-0.26c-0.08-0.25-0.12-0.52-0.14-0.78	c0-0.2,0-0.43,0-0.66c0-4.29,3-13.26,3-13.26s3.66,1.91,11.77,2.86S561.09,424.45,561.09,424.45z" class="st0"/><path d="M560.94,425.59c-0.29,2-1,6.12-2.08,6.71c-1.43,0.8-3.18-1.27-5.89-1.91c-0.48-0.11-0.9,0.31-1.29,1.1	c-0.16,0.34-0.31,0.7-0.43,1.06c-5.47-2.66-15-7.48-15.61-8.84s-7.25-1.67-11-1.73h-0.68c-0.26-0.74-0.34-1.53-0.24-2.31	c0.28-4.47,3-12.64,3-12.64s3.66,1.91,11.77,2.86C546.14,410.77,559.42,424.05,560.94,425.59z" class="st10"/><path d="M561.09,424.46c0,0-0.8,7.05-2.23,7.84s-3.18-1.27-5.89-1.9c-0.48-0.12-0.9,0.3-1.29,1.09	c-5.39-2.62-15.45-7.66-16-9.05s-8.12-1.71-11.68-1.75c-1.31-2.74,2.76-15,2.76-15s3.66,1.91,11.77,2.87	S561.09,424.46,561.09,424.46z" class="st0"/><path d="M534.04,523.56c-2.23,2.23-16.71-8.59-20.68-9.23s-18.4-61.08-18.4-61.08l2.17-34.06l-8.46-31.34l-1.1-4.1	c0,0,0.84-2.5,4.24,0s11.66,13.16,13.89,13.95s4.93,2.4,8.27,6.22s4.93,4.45,4.93,4.45s3.82,9.71,3.66,12.09s1.28,18.62,3,20.05	s4.61,14.48,4.61,14.48s5.26,18.33,6.37,23.56c0.07,0.31,0.12,0.57,0.15,0.78C537.38,483.15,536.27,521.33,534.04,523.56z" class="st0"/><path d="M509.22,447.72l10.5,2.81c0,0,2,18.14,2.74,19.1s3.3,38.18,3.3,38.18l-16.54-7.48l-6.21-20V458.2	L509.22,447.72z" class="st10"/><path d="M430.94,742.17c-0.68,1.95-1.18,3.96-1.51,6c-2,10.84-2.41,28-2.41,28s2,8.91,1.38,10.4	c-0.57,2.37-0.94,4.78-1.11,7.21c-0.17,1.56-0.27,2.75-0.27,2.75l-19.42-1.27c0,0,0-1.15,0.06-2.91c0.13-3.92,0.54-10.82,1.85-14.48	s-0.12-19.64-1.13-28.9c-0.43-4-0.78-6.74-0.78-6.74S434.21,733.65,430.94,742.17z" class="st9"/><path d="M506.73,747.39l-2.39,23.23c0,0,0.63,7.42,0,10.6c-0.36,1.81-0.73,5.67-1,8.67c-0.18,2.27-0.3,4.06-0.3,4.06	s-14.85,10.4-18.24,1.27c-0.4-1.11-0.69-2.25-0.84-3.42c-1.42-9.53,2.74-23.52,2.74-23.52v-29.89l20.58,3.36L506.73,747.39z" class="st9"/><path d="M430.94,742.17c-0.68,1.95-1.18,3.96-1.51,6c-6.67,2.82-14.14,3.1-21,0.79c-0.43-4-0.78-6.74-0.78-6.74	S434.21,733.65,430.94,742.17z" class="st10"/><path d="M507.31,741.74l-0.58,5.63c-7.2,3.3-14.89,1.28-20-1v-8L507.31,741.74z" class="st10"/><path d="M424.44,480.6c0,0-1.69,12.52-3.6,15.07s-1.06,6.15-3,6.57s-2.55,9.76-2.55,9.76l-1.62,20.58	c0,0-0.43,4.24-2.76,5.3s0,6.79,0,6.79s-2.5,4.88-1,7.64s-3,15.48-3,15.48s-1.91,24.61,0,28c1.72,3.37,2.75,7.05,3,10.82	c0,2.12,1.06,41.79,1.06,41.79s-2.55,16.13-3.4,19.1s2.34,9.54,0.22,12.94s-1.7,11-1.7,11s-3.28,29.95-1.37,40.95	s-0.61,13.36-0.61,13.36c9.46,4.99,20.88,4.51,29.88-1.27c0,0,0-21.64,2.55-25.46s2.13-14.63,2.13-14.63s0.63-9.55,2.54-11.46	s1.46-10.37,1.46-10.37s1.69-5.52,3.6-10s3-17,3-17c0.66-2.2,1.68-4.28,3-6.16c2.13-3,0-9.54,0-9.54s-2.33-4.25-0.84-8.49	s9.75-38.61,9.75-38.61l3.19-12.3l4.66,15.7c0,0-0.63,11.24,0,14.42s5.09,10,5.09,10v33.31c0,0,0.43,22.49,2.13,26.09	s2.54,17,2.54,17s5.73,39.25,2.12,45c0,0,16.34,11.66,29.28,2.12c0,0-2.76-7.85,0-10.61s4.66-37.34,4.66-37.34s1.7-13.79,1.49-17	s-2.33-18.24-1.06-21.42s3-63,3-63l2.12-26.51v-21.7c0.01-11.75-1.61-23.44-4.8-34.74c-3.59-12.65-8.56-27.16-12.74-28.07	C502.79,483.71,436.96,491,424.44,480.6z" class="st11"/><path d="M427.29,793.72c-0.17,1.56-0.27,2.75-0.27,2.75l-19.42-1.27c0,0,0-1.15,0.06-2.91	c9.11-8.08,18.19,1.43,18.19,1.43H427.29z" class="st10"/><path d="M428.5,794.39v11.78c0,0-4,8-5.41,9.65c-0.77,0.94-1.21,4.55-1.45,7.56c-0.19,2.4-0.25,4.42-0.25,4.42	s2.55,10.19-17.39,9.76s-11.88-15.17-11.88-15.17l0.11-0.19c1-1.86,9.07-16.3,10-17.1s1.7-6.11,1.7-6.11l3.71-6	c9.13-8.16,18.25,1.38,18.25,1.38L428.5,794.39z" class="st12"/><path d="M421.39,827.76c0,0,2.55,10.19-17.39,9.76s-11.88-15.13-11.88-15.13l0.11-0.19c0.55,3,2.9,6.11,10.39,5.71	c10.15-0.53,16.34-3.12,19-4.53C421.45,825.74,421.39,827.76,421.39,827.76z" class="st10"/><path d="M503.37,789.87c-0.18,2.27-0.3,4.06-0.3,4.06s-14.85,10.4-18.24,1.27c-0.4-1.11-0.69-2.25-0.84-3.42	c0.3-0.22,0.58-0.46,0.84-0.72c2.43-3.6,15.37-3.71,16-2C501.22,790.04,502.45,790.04,503.37,789.87z" class="st10"/><path d="M497.24,841.24c-14,0.88-16.41-7.73-16-14c0.1-1.72,0.44-3.42,1-5.05c1.7-4.65,1.52-13.49,1.52-13.49	l-0.67-15.91c0.53,0.21,1.81-1.06,1.81-1.06c2.43-3.6,15.37-3.71,16-2s3.61,0.55,3.61,0.55s-0.64,10.82,3.81,19.51	c2.61,5.43,4.17,11.3,4.6,17.3c0.06,0.8,0.07,1.26,0.07,1.26S515.79,840.07,497.24,841.24z" class="st12"/><path d="M497.24,841.24c-14,0.88-16.41-7.73-16-14c0,0,3.63,6.17,16.56,4.69c5.33-0.49,10.49-2.15,15.1-4.87	c0.06,0.8,0.07,1.26,0.07,1.26S515.79,840.07,497.24,841.24z" class="st10"/><g class="st13"><path d="M511.67,499.32c-2.87-8.2-6-15-8.84-15.57l-2.53,0.26c2.64,1.42,5.54,7.74,8.19,15.31c5.81,16.8,8.75,34.46,8.7,52.24v16.7 l-2.12,26.52c0,0-1.7,59.82-3,63s0.85,18.24,1.06,21.43s-1.49,17-1.49,17s-1.91,34.58-4.66,37.33s0,10.61,0,10.61 c-2.91,2.16-6.38,3.44-10,3.69c4.71,0.41,9.4-0.9,13.21-3.69c0,0-2.76-7.85,0-10.61s4.66-37.33,4.66-37.33s1.7-13.79,1.49-17 s-2.33-18.25-1.06-21.43s3-63,3-63l2.12-26.52v-16.7C520.44,533.78,517.49,516.12,511.67,499.32z"/></g><g class="st13"><path d="M408,745.78c0,0,2.52-2.34,0.61-13.37s1.27-40.94,1.27-40.94s-0.42-7.64,1.7-11s-1.06-10-0.22-12.94s3.4-19.1,3.4-19.1 s-1.09-39.69-1.09-41.82c-0.25-3.77-1.27-7.45-3-10.81c-1.91-3.4,0-28,0-28s4.45-12.73,3-15.48s1-7.64,1-7.64s-2.33-5.73,0-6.79 s2.76-5.3,2.76-5.3l1.69-20.58c0,0,0.64-9.33,2.55-9.76s1.06-4,3-6.57c1.43-1.91,2.75-9.44,3.31-13.08c-1.27-0.48-2.46-1.16-3.52-2 c0,0-1.7,12.51-3.61,15.06s-1.06,6.15-3,6.57s-2.54,9.76-2.54,9.76l-1.64,20.59c0,0-0.43,4.24-2.76,5.3s0,6.79,0,6.79 s-2.5,4.88-1,7.64s-3,15.48-3,15.48s-1.91,24.61,0,28c1.73,3.36,2.75,7.04,3,10.81c0,2.13,1.06,41.79,1.06,41.79 s-2.55,16.13-3.39,19.1s2.33,9.54,0.21,12.94s-1.7,11-1.7,11s-3.21,29.96-1.3,40.96s-0.61,13.37-0.61,13.37 c4.83,2.57,10.28,3.73,15.74,3.35C415.75,748.89,411.68,747.75,408,745.78z"/></g><path d="M489.8,282.51c2.63,2.46,4.34,5.73,6.61,8.53s5.48,5.27,9.08,5.08c1.05-0.16,2.12-0.25,3.18-0.27	c1.26,0.17,2.45,0.69,3.43,1.5c4.34,3.24,6.43,8.7,7.4,14s1,10.82,2.44,16.06c0.48,1.78,1.19,3.64,2.7,4.69	c1.95,1.34,4.54,0.93,6.91,0.89c3.14-0.06,6.45,0.71,8.72,2.88s3.14,6,1.36,8.56c-0.51,0.56-0.89,1.22-1.12,1.94	c-0.02,0.96,0.34,1.88,1,2.57l6.54,8.9c1.32,1.78,2.69,3.78,2.53,6c-0.19,2.59-2.44,4.54-5.03,4.35c-1.26-0.09-2.44-0.69-3.25-1.66	c0.71,2.21-1.47,4.5-3.77,4.8s-4.54-0.73-6.63-1.74l-0.17,3.77c-1.92,1-3.95-1-5.48-2.56s-4.68-2.46-5.41-0.42	c-0.23,0.88,0,1.82,0.62,2.48c2.67,3.33,8.93,2.48,10.77,6.34c1.19,2.5-0.59,5.7-3.19,6.65s-5.59,0-7.82-1.6s-4.41-4.39-7.32-4.37	c-3.63,0-5.8,4.2-9.19,5.51c-3.19,1.22-6.84-0.37-9.33-2.71s-4.22-5.37-6.52-7.91c-5.92-6.53-14.89-9.12-23.25-11.91	s-17.21-6.59-21.53-14.27c-1.32-2.37-2.16-5-3.8-7.17c-2.82-3.68-7.56-5.4-10.65-8.85c-3.49-4.04-4.31-9.75-2.09-14.61	c1.46-3.09,4-5.48,6.09-8.22c3.48-4.7,5.38-10.38,5.43-16.22c0-2.2-0.23-4.47,0.47-6.56c1.07-3.16,4.17-5.29,7.41-6.1	s6.64-0.52,10-0.23c3.54,0.32,7.39,1.12,10.94,1c2.42-0.11,4.28-2,6.62-2.64C479.58,277.56,485.95,278.66,489.8,282.51z" class="st14"/><g class="st13"><path d="M517.78,308.84c1,5.33,1,10.82,2.45,16.05c0.29,1.3,0.83,2.52,1.59,3.61c-0.12-0.35-0.23-0.71-0.32-1.06 c-1.39-5.24-1.47-10.73-2.44-16.06c-0.53-3.23-1.62-6.35-3.21-9.22C516.74,304.31,517.38,306.55,517.78,308.84z"/><path d="M539.92,341.91c-0.52,0.57-0.91,1.26-1.13,2c-0.02,0.95,0.34,1.87,1,2.56c0.09,0.12,0.17,0.24,0.26,0.35 c-0.01-0.12-0.01-0.25,0-0.37c0.23-0.72,0.62-1.38,1.13-1.94c1.56-2.29,1.07-5.5-0.61-7.72 C541.11,338.51,540.87,340.38,539.92,341.91z"/><path d="M530.85,377.93c0.12,2.38-1.31,4.56-3.54,5.4c-2.61,0.94-5.59,0-7.82-1.61s-4.41-4.38-7.31-4.36c-3.64,0-5.8,4.2-9.2,5.5 c-3.19,1.23-6.84-0.37-9.33-2.71s-4.22-5.37-6.51-7.9c-5.92-6.53-14.89-9.13-23.26-11.92s-17.16-6.57-21.49-14.22 c0.39,0.85,0.79,1.69,1.24,2.5c4.32,7.68,13.16,11.48,21.52,14.27s17.34,5.38,23.26,11.91c2.3,2.54,4,5.57,6.51,7.91 s6.14,3.93,9.33,2.71c3.4-1.31,5.56-5.48,9.2-5.51c2.9,0,5,2.64,7.32,4.37s5.21,2.55,7.81,1.6s4.39-4.15,3.2-6.65 C531.55,378.74,531.23,378.3,530.85,377.93z"/><path d="M548.58,359.26c0.22,0.66,0.32,1.36,0.28,2.05c-0.19,2.59-2.45,4.54-5.04,4.35c-1.26-0.09-2.43-0.69-3.25-1.65 c0.71,2.2-1.47,4.49-3.77,4.8s-4.54-0.73-6.63-1.74c-0.06,1.25-0.11,2.51-0.17,3.76c-1.92,1-4-1-5.47-2.55s-4.68-2.47-5.42-0.42 c-0.23,0.88,0.01,1.81,0.62,2.47c0.17,0.21,0.35,0.41,0.55,0.59c0.01-0.18,0.04-0.35,0.1-0.52c0.74-2,3.89-1.12,5.42,0.42 s3.55,3.57,5.48,2.56c0-1.26,0.11-2.51,0.16-3.77c2.09,1,4.34,2,6.64,1.74s4.48-2.59,3.76-4.8c1.68,1.98,4.65,2.23,6.64,0.55 c0.96-0.81,1.56-1.98,1.65-3.24C550.14,362.2,549.59,360.58,548.58,359.26z"/><path d="M438.55,338.89c-2.81-3.68-7.56-5.39-10.64-8.85c-0.43-0.48-0.82-0.99-1.17-1.54c0.55,1.5,1.38,2.89,2.44,4.09 c3.08,3.45,7.83,5.17,10.64,8.85c0.4,0.52,0.75,1.07,1.07,1.64C440.26,341.6,439.48,340.2,438.55,338.89z"/></g><path d="M457.46,336.78c0,0,2.33,25.88-8.28,33.72s22.7,29.28,22.7,29.28l25.25-5.52c0,0-12.31-11.45-12.31-16.33	s2.12-32.25,5.52-35.43S457.46,336.78,457.46,336.78z" class="st9"/><path d="M450.08,336.78l-5.77,12.61c0,0-8.6,5.1-9.23,5.57s-7.48,8.28-7.48,8.28l-16.87,10.82c0,0-0.41-0.77-1-1.86	c-1.15-2.18-2.46-4.27-3.92-6.26c-1.43-1.59,0-18.45,0-18.45s3.34-3.82,2.15-10.66s-1.35-33.73-1.35-33.73s-1.27-22.6,0.48-27.37	s-4-19.89-4-19.89s-16.22-16.12-15.11-19.45s13.53,0,13.53,0s4.93,2.55,7.47,2.71c1.54,0.09,9.77,0.13,16.08,0.14h7.47	c0,0,5.25,18.29,4.62,20.2c-0.13,0.37-0.26,0.74-0.38,1.1c-0.51,1.47-0.9,2.78-0.26,3.67c0.79,1.12,2.55,14.64,2.55,14.64	l1.75,14.64c0,0,2.7,11.45,2.54,13.05s-4.14,4.93-2.39,7.95s2.4,12.25,2.4,12.25s2.92,6.77,5.81,9.35	C449.45,336.35,449.75,336.59,450.08,336.78z" class="st0"/><circle cx="476.92" cy="323.44" r="30.55" class="st10"/><circle cx="476.92" cy="322.17" r="30.55" class="st9"/><path d="M509.22,447.72c-2.76,3-3.39,32-1.76,34.58s-8.21,7.64-13.94,7.42s-21.41,4.67-21.41,4.67s-31.41-8.49-38-4.24	s-15.91-7.64-13.15-11.88s-3-10.18-3.82-12.51c-0.19-0.99-0.31-1.99-0.34-3l0,0c-0.77-10.68-1.57-44.9-1.57-44.9v-39.29l28.86-20.37	c4.6,2.33,9.07,4.92,13.39,7.75c3.07,1.98,5.96,4.21,8.66,6.67c7.86,7.43,27.37,15.28,27.37,15.28s21.43,25.67,24.18,28.22	S511.97,444.75,509.22,447.72z" class="st15"/><path d="M415.24,417.81v-33.78c0,0,0.88,61.53,1.57,78.68C416.04,452.03,415.24,417.81,415.24,417.81z" class="st10"/><path d="M416.93,465.25c0.23,0.56,0.31,1.18,0.22,1.78C417.08,467.33,417,466.67,416.93,465.25z" class="st10"/><path d="M457.67,376.87c-1.86,1.92-3.42,4.12-4.61,6.52c-1.59,3.5-37.82,0.64-37.82,0.64v-5.46l28.86-20.37	c4.6,2.33,9.07,4.92,13.39,7.75C457.67,371.93,457.67,376.87,457.67,376.87z" class="st10"/><path d="M416.93,462.7c0.23,0.56,0.31,1.18,0.22,1.78C417.08,464.79,417,464.13,416.93,462.7z" class="st10"/><path d="M450.08,336.78l-5.77,12.61c0,0-8.6,5.1-9.23,5.57s-7.48,8.28-7.48,8.28l-16.87,10.82c0,0-0.41-0.77-1-1.86	c4.59-5.57,9.28-11.5,12-13.58c5.41-4.13-0.16-4.61,0-5.41s11.94-5.09,15.12-8.11c2.59-2.47,9.79-7.28,12.34-9	C449.46,336.36,449.76,336.59,450.08,336.78z" class="st10"/><path d="M450.08,336.78c0,0-10.07,6.52-13.25,9.54s-15,7.32-15.12,8.12s5.41,1.27,0,5.41s-18.61,23.54-23.39,25	s-37.38,15-37.38,15s-10.66,10-12.25,10c-1.59,0,9.7,10.82,9.7,10.82s10.18,8.12,11.3,9.39s28.98,16.33,28.98,16.33	s4.78,1.43,5.25,2.86s6.84,5.41,6.84,5.41s7.11,8.17,6.42,11.08s-1.91-83-1.91-83s36.23,2.86,37.82-0.64	c1.19-2.4,2.75-4.6,4.61-6.52c0,0-0.1-29.43-2.13-31.61S450.12,339.48,450.08,336.78z" class="st0"/><path d="M365.87,406.62c0,0,9.54,10.34,14,12.09c2.8,1.26,5.02,3.53,6.2,6.37c0,0,5.25,3,8.12,3.5s7.16,4.77,7.16,4.77	s10.66,3,10.66,5.25s4.3,5.26,4.3,5.26l-1.07-61.1c0,0-17.71,2.22-22.8,9.7S365.87,406.62,365.87,406.62z" class="st10"/><path d="M386.67,412.39c0.8-0.48,22.52-28.46,22.52-28.46l4-0.82c0,0-10.31,15.44-10.15,16.71	S386.67,412.39,386.67,412.39z" class="st10"/><path d="M395.78,421.58c0,0,5.73-13.21,7.32-15.44s10.15-17.18,10.15-17.18c0.24,1.26,0.24,2.56,0,3.82	C412.8,394.21,395.78,421.58,395.78,421.58z" class="st10"/><path d="M434.12,323.09c0,0-12.73,23.23-11.61,24.35S434.12,323.09,434.12,323.09z" class="st10"/><path d="M438.58,332.32c0,0-10.5,15.35-9.55,15.15S438.58,332.32,438.58,332.32z" class="st10"/><path d="M429.03,244.66l-20.05,1.43c0,0,0-0.65-0.07-1.77c-0.28-6.62-1.29-29.7-1.83-32.28c-0.64-3-1.28-8.43-1.28-8.43	s-10.82-1.59-10.66-3.34s-13.84-20.37-3.18-20c8.32,0.25,22.54,10.08,28.39,14.39c1.55,1.14,2.36,3.03,2.13,4.94	c-0.17,1.26-0.23,2.53-0.18,3.8c0.13,2.63,0.05,5.27-0.21,7.89c-0.21,2.27-0.12,4.87,0.9,6.69c1.48,2.65,3.67,13.64,5,20.67	C428.61,242.12,429.03,244.66,429.03,244.66z" class="st9"/><path d="M437.15,260.09l-0.38,1.09c-4.35-4.31-31.6-7.06-31.6-7.06c-2.39-2.78-0.25-4,2.3-7.4	c1.49-2,10.42-4.84,17.59-6.85h7.47C432.53,239.87,437.78,258.18,437.15,260.09z" class="st10"/><path d="M429.03,244.66l-20.05,1.43c0,0,0-0.65-0.07-1.77c3.15-1.85,10.24-4.07,16.15-5.72h2.9	C428.61,242.12,429.03,244.66,429.03,244.66z" class="st10"/><path d="M437.15,259.45c-0.13,0.37-0.26,0.74-0.38,1.1c-4.35-4.32-31.6-7.07-31.6-7.07c-2.39-2.78-0.25-4,2.3-7.39	c1.49-2,10.42-4.85,17.59-6.86h7.47C432.53,239.23,437.78,257.54,437.15,259.45z" class="st0"/><path d="M454.49,416.96c0,0-2.23,42.8,0,44.87S454.49,416.96,454.49,416.96z" class="st10"/><path d="M470.24,434.94c0,0-0.8,47.1,0,47.57S470.24,434.94,470.24,434.94z" class="st10"/><path d="M488.67,440.51c0,0,3,32.46,5.73,33.73S488.67,440.51,488.67,440.51z" class="st10"/><path d="M535.95,479.19c-0.91-0.15-1.78-0.49-2.55-1c-2.7-1.75-5.73-20.53-9.7-23.07s-18.3-27.53-18.3-27.53	s-5.57-10-7.8-12.57s-1.11-14-1.11-14s-5.93-6.83-8.44-12.57c-0.62-1.28-0.99-2.67-1.1-4.09c0,0,0.85-2.51,4.24,0	s11.66,13.16,13.89,13.95s4.93,2.39,8.28,6.21s4.93,4.46,4.93,4.46s3.82,9.7,3.66,12.09s1.27,18.61,3,20.05s4.61,14.47,4.61,14.47	S534.84,473.96,535.95,479.19z" class="st10"/><path d="M523.72,419.65c0-0.2,0-0.43,0-0.66c0.11,0.47,0.17,0.96,0.17,1.44C523.8,420.18,523.74,419.92,523.72,419.65z" class="st10"/><path d="M536.83,474.32c-0.65,1.13-1.26,2.16-1.78,3c-2.63-2.71-5.59-20.39-9.44-22.85c-1.35-1.13-2.53-2.46-3.5-3.93	v-21c0.79-1.34,1.46-2.75,2-4.21c0.47,5.68,1.55,14.1,2.79,15.12c1.75,1.43,4.61,14.48,4.61,14.48S534.93,466.97,536.83,474.32z" class="st10"/><path d="M536.59,478.55c-0.91-0.14-1.78-0.48-2.55-1c-2.71-1.75-5.73-20.52-9.71-23.07s-18.29-27.52-18.29-27.52	s-5.57-10-7.8-12.57s-1.11-14-1.11-14s-5.93-6.84-8.44-12.57c-0.62-1.29-0.99-2.68-1.1-4.1c0,0,0.84-2.5,4.24,0	s11.66,13.16,13.89,13.95s4.93,2.4,8.27,6.22s4.93,4.45,4.93,4.45s3.82,9.71,3.66,12.09s1.28,18.62,3,20.05s4.61,14.48,4.61,14.48	S535.48,473.32,536.59,478.55z" class="st0"/><circle cx="504.13" cy="416.97" r="2.15" class="st16"/><circle cx="518.25" cy="436.3" r="2.15" class="st16"/><path d="M534.67,430.6c0,0-10.35-4.73-8.76-2.18S534.67,430.6,534.67,430.6z" class="st10"/><path d="M534.67,437.49c0,0-10.51-2.86-8.28-1.19S534.67,437.49,534.67,437.49z" class="st10"/><path d="M532.93,445.05c0,0-7.16-5.18-5.41-3.27S532.93,445.05,532.93,445.05z" class="st10"/><path d="M540.4,450.53c0,0-7.3,14.36-3.81,15.3S540.4,450.53,540.4,450.53z" class="st10"/><path d="M436.46,686.16c0,0-16.76,15.91-11.88,15.7S436.46,686.16,436.46,686.16z" class="st10"/><path d="M412.91,708.23c0.85,0,17.82-1.7,13.36-2.55S412.91,708.23,412.91,708.23z" class="st10"/><path d="M495.43,683.62c0,0,18,0.63,17.61,2.54S495.43,683.62,495.43,683.62z" class="st10"/><path d="M492.46,690.83c0,0,10.39,7.85,12.73,5.3S492.46,690.83,492.46,690.83z" class="st10"/><path d="M442.67,578.39c-0.13,0.57-0.35,1.11-0.66,1.61c-0.12,0.19-0.28,0.35-0.46,0.48c-2.13,1.48-7.64,4.24-8.49,4	c-0.39-0.1-1.91-0.56-3.58-1c-1.95-0.57-4.11-1.18-4.92-1.29s-1.28-1.4-1.4-2.66s0-2.24,0.53-2.43c0.22-0.17,0.38-0.4,0.45-0.66	c0.11-0.29,0.2-0.59,0.28-0.89l0.08-0.3c0.28-1.16,0.51-2.63,0.67-3.84c0.09-0.65,0.15-1.23,0.2-1.62c0-0.21,0-0.37,0-0.46l0,0	v-0.08l1.4-0.07h1.33c3.6-0.15,9.78-0.31,12.13,0.12c1,0.2,1.77,1.2,2.21,2.54c0.29,0.93,0.45,1.9,0.5,2.87	C443.03,575.94,442.94,577.18,442.67,578.39z" class="st9"/><path d="M515.32,585.78c0,0.07,0,0.14,0,0.21c0,2.17-0.15,3.81-0.15,4.08c0,0.84-22.06,6.79-27.57,6.36	c-3.62-0.28-0.93-2.76,1.09-5.32c0.7-0.79,1.24-1.71,1.6-2.71c0.1-0.36,0.1-0.73,0-1.09c-0.11-0.4-0.21-0.76-0.28-1.09l0,0	c-0.52-2.29-0.26-3,0.28-3.56c0.33-0.41,0.57-0.87,0.73-1.37c0.17-0.46,0.27-0.93,0.31-1.42c0.13-1.09-0.16-2.19-0.81-3.07	c-1.7-2.26,6.37-3.47,6.37-3.47h15.33c1.5,0,2.3,2.12,2.7,4.86c0,0.03,0,0.06,0,0.09c0.11,0.8,0.2,1.65,0.25,2.52	s0.09,1.64,0.1,2.44S515.32,584.97,515.32,585.78z" class="st9"/><path d="M448.33,649.89c0,0-17,4-15.27,3c0.65-0.41,0.8-1.79,0.74-3.35c-0.03-0.77-0.09-1.54-0.2-2.31	c-0.22-1.77-0.54-3.25-0.54-3.25s8.91-1.91,12.09-1.06c1.17,0.41,2.06,1.37,2.39,2.56c0.05,0.11,0.09,0.23,0.13,0.35	C448.08,647.15,448.3,648.51,448.33,649.89z" class="st9"/><path d="M461.23,313.71c2.33-0.79,4.38-2.21,6.62-3.23s4.85-1.64,7.12-0.7c1.16,0.55,2.21,1.29,3.12,2.19	c2,1.77,4,3.54,5.88,5.43c1.82,2.06,3.88,3.9,6.13,5.47c5.25,3.21,11.92,2.49,18,1.53c1.23-0.13,2.43-0.47,3.55-1	c2.67-1.46,3.7-5,3.07-7.95s-2.54-5.52-4.57-7.79c-5.83-6.52-12.93-11.77-20.87-15.44c-8.42-3.87-18.44-5.8-26.84-1.91	c-2.55,1.24-4.91,2.85-7,4.78c-2.92,2.6-10.47,9.21-8.8,13.68C448.48,313.8,456.88,315.17,461.23,313.71z" class="st10"/><path d="M461.23,313.07c2.33-0.78,4.38-2.21,6.62-3.23s4.85-1.63,7.12-0.7c1.15,0.56,2.21,1.3,3.12,2.19	c2,1.77,4,3.54,5.88,5.43c1.82,2.06,3.87,3.9,6.13,5.47c5.25,3.21,11.92,2.49,18,1.53c1.23-0.13,2.43-0.47,3.55-1	c2.67-1.45,3.7-5,3.07-7.95s-2.54-5.52-4.57-7.79c-5.83-6.52-12.93-11.77-20.87-15.43c-8.42-3.87-18.44-5.8-26.84-1.92	c-2.55,1.25-4.91,2.86-7,4.78c-2.92,2.6-10.47,9.22-8.8,13.69C448.48,313.17,456.88,314.54,461.23,313.07z" class="st14"/><path d="M511.67,321.44c-1.11,0.53-2.31,0.87-3.54,1c-6.08,1-12.74,1.67-18-1.53c-2.27-1.59-4.34-3.44-6.16-5.52	c-1.88-1.9-3.89-3.66-5.88-5.43c-0.91-0.9-1.97-1.64-3.12-2.2c-2.28-0.93-4.89-0.32-7.13,0.71s-4.28,2.44-6.61,3.23	c-4.35,1.46-12.75,0.09-14.63-4.92c-0.09-0.24-0.15-0.49-0.19-0.75c-0.1,0.67-0.04,1.36,0.19,2c1.88,5,10.28,6.38,14.63,4.92	c2.33-0.79,4.38-2.21,6.61-3.23s4.85-1.64,7.13-0.7c1.16,0.55,2.21,1.29,3.12,2.19c2,1.77,4,3.54,5.88,5.43	c1.82,2.06,3.88,3.9,6.13,5.47c5.25,3.21,11.91,2.49,18,1.53c1.23-0.13,2.42-0.47,3.54-1c2.36-1.28,3.43-4.16,3.23-6.86	C514.85,318.09,513.64,320.23,511.67,321.44z" class="st10"/><path d="M425.53,569.89c-0.24,1.92-0.61,3.82-1.11,5.69c0.45-1.9,0.79-3.82,1-5.76L425.53,569.89z" class="st10"/><path d="M441.55,580.52c-2.13,1.48-7.64,4.24-8.49,4s-7-2.12-8.5-2.33s-1.89-4.67-0.87-5.09	c0.22-0.17,0.38-0.4,0.45-0.66c-0.1,0.3-0.22,0.6-0.36,0.89c-1.16,2.5,1,4.67,1,4.67l8.82,2.28l8.31-4.54	c2-2.75-0.24-9.09-1.38-10.12s-14.77,0-14.77,0l-0.3-0.29l0,0v-0.08l1.4-0.07h1.33c3.6-0.15,9.78-0.31,12.13,0.12	C443.67,569.91,443.67,579.04,441.55,580.52z" class="st10"/><path d="M512.25,573.31h-15.33c0,0-8.07,1.21-6.37,3.47s0.38,5.22-0.23,5.86s-0.87,1.49,0,4.67s-8.24,8.7-2.73,9.12	s27.57-5.52,27.57-6.36S516.35,573.31,512.25,573.31z M514.32,589.77c0,0.8-20.79,6.39-26,6s3.39-5.59,2.57-8.59s-0.58-3.8,0-4.4	s1.82-3.4,0.22-5.53s6-3.27,6-3.27h14.45C515.44,573.97,514.32,588.97,514.32,589.77z" class="st10"/><path d="M445.15,642.89c-3.18-0.85-12.09,1.06-12.09,1.06s1.7,7.85,0,8.91s15.28-3,15.28-3	S448.34,643.74,445.15,642.89z M433.32,652.69c1.64-1,0-8.61,0-8.61s8.61-1.84,11.68-1s3.07,6.76,3.07,6.76	S431.67,653.71,433.32,652.69L433.32,652.69z" class="st10"/><path d="M515.31,583.22l-25.27,3l0,0l25.17-5.42C515.26,581.59,515.3,582.39,515.31,583.22z" class="st10"/><polygon points="489.81 585.62 516.06 579.97 516.62 582.43" class="st11"/><path d="M515.32,585.78c0,0.07,0,0.14,0,0.21l-26.65,5.12c0.7-0.79,1.24-1.71,1.6-2.71L515.32,585.78z" class="st10"/><polygon points="485.81 588.24 517.81 584.88 486.66 590.87" class="st11"/><path d="M514.95,578.17l-23.59,1.68c-0.04,0.48-0.14,0.96-0.31,1.42l23.91-3L514.95,578.17z" class="st10"/><polygon points="489.81 579.33 516.62 577.42 489.41 580.84" class="st11"/><path d="M442.99,574.68l-18.49,0.6c0.28-1.16,0.51-2.63,0.67-3.84l17.32,0.37	C442.78,572.74,442.94,573.71,442.99,574.68z" class="st10"/><polygon points="423.12 570.76 448.34 571.29 445.26 573.98 423.12 574.69" class="st11"/><path d="M442.67,578.39c-0.13,0.57-0.35,1.11-0.66,1.61l-12.53,3.47c-1.95-0.57-4.11-1.18-4.92-1.29	s-1.28-1.4-1.4-2.66L442.67,578.39z" class="st10"/><polygon points="419.81 579.13 449.19 577.42 422.25 584.88" class="st11"/><path d="M447.67,645.8l-13.87,3.71c-0.03-0.77-0.09-1.54-0.2-2.31c3.87-0.52,10.32-1.31,13.94-1.75	C447.59,645.56,447.63,645.68,447.67,645.8z" class="st10"/><path d="M430.41,647.02c0.53-0.21,19.84-2.54,19.84-2.54l-19.84,5.3V647.02z" class="st11"/><circle cx="744.05" cy="95.31" r="21.63" class="st0"/><circle cx="840.06" cy="148.3" r="17.01" class="st0"/><circle cx="744.05" cy="95.31" r="21.63" class="st1"/><circle cx="840.06" cy="148.3" r="17.01" class="st1"/><circle cx="131.6" cy="148.3" r="54.59" class="st0"/><circle cx="131.6" cy="148.3" r="54.59" class="st1"/><circle cx="835.04" cy="72.34" r="6" class="st0"/><circle cx="835.04" cy="72.34" r="6" class="st1"/><path d="M318.67,762.39c0,0,6.22,8.13-2.87,20.41c-9.09,12.28-16.58,22.64-13.55,30.3c0,0,13.71-22.8,24.87-23.12	C338.28,789.66,330.92,776.11,318.67,762.39z" class="st0"/><path d="M318.67,762.39c0.54,0.79,0.97,1.64,1.27,2.55c10.89,12.8,16.69,24.74,6.23,25	c-9.75,0.27-21.45,17.71-24.25,22.11c0.09,0.34,0.2,0.67,0.33,1c0,0,13.71-22.8,24.87-23.12	C338.28,789.61,330.92,776.11,318.67,762.39z" class="st10"/><path d="M330.2,772.77c0,2.86-0.32,5.18-0.72,5.18c-0.4,0-0.71-2.32-0.71-5.18s0.4-1.52,0.79-1.52	S330.2,769.9,330.2,772.77z" class="st17"/><path d="M334.17,776.18c-2.51,1.37-4.71,2.2-4.89,1.85c-0.18-0.35,1.69-1.74,4.2-3.11s1.52-0.37,1.71,0	S336.67,774.81,334.17,776.18z" class="st17"/><path d="M285.8,762.39c0,0-6.22,8.13,2.87,20.41c9.09,12.28,16.58,22.64,13.55,30.3c0,0-13.71-22.8-24.87-23.12	C266.19,789.66,273.52,776.11,285.8,762.39z" class="st0"/><path d="M285.8,762.39c-0.54,0.79-0.97,1.64-1.27,2.55c-10.89,12.8-16.69,24.74-6.23,25	c9.75,0.27,21.45,17.71,24.25,22.11c-0.09,0.34-0.2,0.67-0.33,1c0,0-13.71-22.8-24.87-23.12	C266.19,789.61,273.52,776.11,285.8,762.39z" class="st10"/><path d="M274.24,772.77c0,2.86,0.32,5.18,0.72,5.18c0.4,0,0.71-2.32,0.71-5.18s-0.4-1.52-0.79-1.52	S274.24,769.9,274.24,772.77z" class="st17"/><path d="M270.27,776.18c2.51,1.37,4.7,2.2,4.89,1.85s-1.69-1.74-4.2-3.11s-1.52-0.37-1.71,0	S267.76,774.81,270.27,776.18z" class="st17"/><path d="M276.22,812.04c0,0,17.38-0.53,22.62-4.27s26.75-8.18,28.05-2.2s26.12,29.76,6.49,29.92s-45.6-3.06-50.83-6.24	C277.32,826.07,276.22,812.04,276.22,812.04z" class="st18"/><path d="M333.73,833.39c-19.62,0.16-45.6-3.06-50.83-6.24c-4-2.43-5.57-11.14-6.1-15.15h-0.58c0,0,1.1,14,6.33,17.21	s31.21,6.4,50.83,6.24c5.67,0,7.63-2.06,7.52-5.05C340.11,832.25,337.95,833.39,333.73,833.39z" class="st19"/><path d="M672.21,824.58c0,0-11.11-37.73,2.08-65.5c5.61-11.61,7.3-24.73,4.82-37.39c-1.22-6-2.99-11.87-5.29-17.55" class="st20"/><path d="M682.03,686.59c0,4.63-8.37,18-8.37,18s-8.38-13.41-8.38-18c0.16-4.63,4.04-8.25,8.66-8.09	C678.35,678.66,681.88,682.19,682.03,686.59z" class="st0"/><path d="M695.87,712.21c-2.51,3.88-16.83,10.58-16.83,10.58s0.26-15.8,2.77-19.68c2.51-3.88,7.7-4.99,11.58-2.48	C697.27,703.14,698.38,708.33,695.87,712.21L695.87,712.21z" class="st0"/><path d="M695.26,755.98c-4.12,2.08-19.87,0.64-19.87,0.64s8.21-13.51,12.33-15.6c4.14-2.08,9.19-0.41,11.27,3.73	c2.08,4.14,0.41,9.19-3.73,11.27l0,0V755.98z" class="st0"/><path d="M687.35,788.99c-3.72,2.75-19.48,4-19.48,4s5.8-14.7,9.52-17.45c3.72-2.76,8.97-1.99,11.73,1.73	c2.76,3.72,1.99,8.97-1.73,11.73L687.35,788.99z" class="st0"/><path d="M661.46,723.69c3.32,3.22,18.77,6.56,18.77,6.56s-3.79-15.35-7.1-18.57c-3.28-3.26-8.58-3.25-11.84,0.03	s-3.25,8.58,0.03,11.84c0.05,0.05,0.09,0.09,0.14,0.14L661.46,723.69z" class="st0"/><path d="M652.67,762.39c4.13,2.08,19.87,0.64,19.87,0.64s-8.2-13.51-12.33-15.6c-4.19-1.96-9.18-0.15-11.14,4.04	C647.19,755.49,648.77,760.28,652.67,762.39z" class="st0"/><path d="M649.34,801.23c3.71,2.75,19.47,4,19.47,4s-5.8-14.71-9.52-17.46c-3.72-2.76-8.97-1.98-11.73,1.73	s-1.98,8.97,1.73,11.73l0,0L649.34,801.23z" class="st0"/><path d="M682.03,686.59c0,4.63-8.37,18-8.37,18s-8.38-13.41-8.38-18c0.16-4.63,4.04-8.25,8.66-8.09	C678.35,678.66,681.88,682.19,682.03,686.59z" class="st0"/><path d="M695.87,712.21c-2.51,3.88-16.83,10.58-16.83,10.58s0.26-15.8,2.77-19.68c2.51-3.88,7.7-4.99,11.58-2.48	C697.27,703.14,698.38,708.33,695.87,712.21L695.87,712.21z" class="st0"/><path d="M695.26,755.98c-4.12,2.08-19.87,0.64-19.87,0.64s8.21-13.51,12.33-15.6c4.14-2.08,9.19-0.41,11.27,3.73	c2.08,4.14,0.41,9.19-3.73,11.27l0,0V755.98z" class="st0"/><path d="M687.35,788.99c-3.72,2.75-19.48,4-19.48,4s5.8-14.7,9.52-17.45c3.72-2.76,8.97-1.99,11.73,1.73	c2.76,3.72,1.99,8.97-1.73,11.73L687.35,788.99z" class="st0"/><path d="M661.46,723.69c3.32,3.22,18.77,6.56,18.77,6.56s-3.79-15.35-7.1-18.57c-3.28-3.26-8.58-3.25-11.84,0.03	s-3.25,8.58,0.03,11.84c0.05,0.05,0.09,0.09,0.14,0.14L661.46,723.69z" class="st0"/><path d="M652.67,762.39c4.13,2.08,19.87,0.64,19.87,0.64s-8.2-13.51-12.33-15.6c-4.19-1.96-9.18-0.15-11.14,4.04	C647.19,755.49,648.77,760.28,652.67,762.39z" class="st0"/><path d="M649.34,801.23c3.71,2.75,19.47,4,19.47,4s-5.8-14.71-9.52-17.46c-3.72-2.76-8.97-1.98-11.73,1.73	s-1.98,8.97,1.73,11.73l0,0L649.34,801.23z" class="st0"/><path d="M645.94,822.2c0,0,13.54-2.69,17.14-6.27s19.85-9.85,21.66-5.37s24.35,19.7,9,22.39s-36.09,3.58-40.6,1.79	S645.94,822.2,645.94,822.2z" class="st18"/><path d="M693.76,831.28c-15.34,2.69-36.09,3.59-40.6,1.8c-3.43-1.37-5.82-7.92-6.77-11l-0.45,0.09	c0,0,2.71,10.75,7.22,12.54s25.26,0.9,40.6-1.79c4.42-0.78,5.69-2.6,5.21-4.9C698.59,829.55,697.05,830.71,693.76,831.28z" class="st19"/><path d="M169.26,85.77v0.36c-0.01,0.06-0.01,0.13,0,0.19c0,0.16,0,0.31,0,0.47v0.1c0,0.13,0,0.26,0,0.39v0.11	c0,0.02,0,0.04,0,0.06v0.36v0.29l-0.09,0.7c0,0.16-0.05,0.31-0.08,0.46l0,0c0,0.08,0,0.15,0,0.23v0.14c0,0.04,0,0.08,0,0.12	c0,0.08,0,0.16-0.05,0.24s0,0.16-0.05,0.24s0,0.12,0,0.18s-0.05,0.21-0.07,0.31l0,0c-0.01,0.07-0.03,0.14-0.05,0.21	c-0.02,0.09-0.04,0.17-0.07,0.26c0,0.1-0.05,0.21-0.08,0.31c0,0.03,0,0.05,0,0.08c0,0.11-0.06,0.21-0.1,0.32	c-0.09,0.32-0.2,0.65-0.31,1c0,0.1-0.08,0.2-0.11,0.3s-0.05,0.12-0.07,0.17c-0.72,1.91-1.7,3.71-2.92,5.34l-0.23,0.3	c-0.58,0.75-1.21,1.47-1.88,2.14l-31.51,31.24l-31.2-31.2c-0.9-0.9-1.72-1.87-2.45-2.91c-0.46-0.64-0.88-1.31-1.27-2	c-2.11-3.82-3.04-8.19-2.67-12.54c0-0.4,0.08-0.8,0.14-1.2c0.1-0.67,0.23-1.37,0.39-2.1c0-0.14,0.07-0.28,0.11-0.41l0.06-0.22v-0.12	l0.09-0.32l0,0c0.07-0.24,0.15-0.48,0.23-0.72s0.07-0.22,0.11-0.33c0.16-0.47,0.34-0.93,0.54-1.39l0.12-0.27l0.18-0.41l0.32-0.66	l0,0l0,0c0-0.1,0.1-0.2,0.16-0.3c0.05-0.11,0.11-0.22,0.18-0.33c0.07-0.14,0.15-0.27,0.23-0.41c0.04-0.06,0.08-0.13,0.11-0.2	c0.03-0.03,0.05-0.07,0.07-0.11l0,0l0,0L97.19,74c0.06-0.09,0.11-0.18,0.17-0.26l0.4-0.6l0.14-0.2l0.18-0.25l0.19-0.26l0.24-0.31	l0.21-0.26l0.08-0.1l0.15-0.18c0.08-0.1,0.16-0.2,0.25-0.29c0.03-0.05,0.06-0.09,0.1-0.13l0,0l0.18-0.21l0.22-0.23	c0.19-0.21,0.39-0.42,0.6-0.62l0.24-0.24l0.37-0.35l0.25-0.23l0.3-0.26l0.19-0.17l0.2-0.16l0.39-0.32l0.2-0.16	c0.34-0.26,0.68-0.51,1-0.74l0.2-0.14l0.21-0.14l0.2-0.13l0.29-0.18l0.15-0.09l0.21-0.13c0.29-0.16,0.58-0.33,0.87-0.48l0.17-0.09	l0.27-0.14l0.22-0.1l0.23-0.11l0.22-0.11l0.22-0.1l0.23-0.1c0.3-0.13,0.61-0.25,0.91-0.36l0.23-0.09l0.24-0.09l0.22-0.07l0.18-0.06	l0.42-0.14l0.34-0.23l0.17-0.05h0.17l0.31-0.09l0.4-0.1c0.41-0.1,0.83-0.19,1.25-0.27h0.17h0.24h0.24h0.31h0.18	c0.4,0,0.8-0.09,1.21-0.12h0.21h3.14c0.33,0,0.65,0.06,1,0.09l0.44,0.06h0.29h0.24h0.24h0.16c0.42,0.08,0.83,0.17,1.24,0.27	l0.51,0.13h0.14l0.22,0.06l0.42,0.12l0.18,0.06l0.91,0.31l0.2,0.08l0.27,0.1l0.42,0.17l0.46,0.2l0.18,0.08l0.26,0.12l0.22,0.11	l0.22,0.1l0.28,0.15l0.22,0.11l0.51,0.28l0.21,0.12l0.74,0.45l0.2,0.13l0.21,0.14l0.2,0.14l0,0l0.14,0.09l0.87,0.64l0.2,0.16	l0.39,0.32l0.2,0.16l0.19,0.17l0.3,0.26l0.25,0.23l0.37,0.35l0.24,0.24l0.25-0.24c0.12-0.12,0.24-0.24,0.37-0.35	c0.08-0.08,0.16-0.16,0.25-0.23l0.29-0.26l0.2-0.17l0.19-0.16l0.4-0.32l0.2-0.16c0.34-0.26,0.68-0.51,1-0.74l0.21-0.14l0.21-0.14	l0.2-0.13l0.29-0.18l0.15-0.09l0.21-0.13c0.29-0.16,0.58-0.33,0.87-0.48l0.17-0.09l0.27-0.14l0.22-0.1l0.22-0.11l0.23-0.11l0.22-0.1	l0.23-0.1c0.3-0.13,0.6-0.25,0.91-0.36l0.22-0.09l0.25-0.09l0.22-0.07l0.18-0.06l0.42-0.14l0.21-0.06l0.18-0.05h0.17l0.3-0.09	l0.4-0.1c0.42-0.1,0.84-0.19,1.26-0.27h0.17h0.24h0.24h0.3h0.18c0.4,0,0.81-0.09,1.21-0.12h0.22h3.13l1,0.09l0.43,0.06h0.3h0.24	h0.24h0.16c0.41,0.08,0.83,0.17,1.24,0.27l0.51,0.13h0.14l0.22,0.06l0.42,0.12l0.18,0.06l0.91,0.31l0.2,0.08l0.27,0.1l0.41,0.17	l0.47,0.2l0.18,0.08l0.25,0.12l0.22,0.11l0.23,0.1l0.27,0.15l0.22,0.11l0.51,0.28l0.22,0.12l0.74,0.45l0.19,0.13l0.21,0.14	l0.22,0.16l0,0l0.13,0.09c0.3,0.21,0.59,0.42,0.87,0.64c0.07,0.05,0.14,0.1,0.2,0.16c0.14,0.1,0.27,0.21,0.4,0.32l0.2,0.16	l0.19,0.17l0.26,0.22l0.25,0.23l0.14,0.14l0,0l0,0l0.24,0.23l0.11,0.11l0.13,0.13l0.24,0.24l0.37,0.39c0.07,0.07,0.14,0.15,0.2,0.23	c0.12,0.12,0.23,0.25,0.35,0.38l0.36,0.43c0.41,0.51,0.79,1,1.15,1.56c0.07,0.05,0.15,0.11,0.21,0.17c0.06,0.07,0.11,0.15,0.16,0.23	l0.13,0.21l0.22,0.35l0.19,0.33l0.11,0.2l0.09,0.16l0.09,0.16l0.13,0.24l0.12,0.24c0.29,0.56,0.55,1.14,0.79,1.72l0.1,0.25	c0.09,0.24,0.18,0.48,0.26,0.72c0.03,0.07,0.06,0.15,0.08,0.22c0,0.11,0.07,0.21,0.1,0.31l0.09,0.28l0.06,0.18	c0,0.09,0.05,0.17,0.07,0.25l0.09,0.32c0.05,0.17,0.09,0.35,0.13,0.52s0.05,0.18,0.07,0.27s0.05,0.25,0.08,0.38	c0,0.06,0,0.11,0,0.17c0,0.07,0,0.14,0,0.22v0.17v0.15v0.13v0.14c0,0.09,0,0.18,0,0.27s0,0.19,0,0.28s0,0.2,0,0.3v0.3v0.16v0.31	c0,0,0,0.1,0,0.15s0,0.21,0,0.31l0,0c0,0.07,0,0.13,0,0.2c0,0.07,0,0.13,0,0.2c0,0.11,0,0.22,0,0.33l0,0c0,0.11,0,0.22,0,0.34	L169.26,85.77z" class="st3"/><path d="M169.26,85.77v0.36c-0.01,0.06-0.01,0.13,0,0.19c0,0.16,0,0.31,0,0.47v0.1c0,0.13,0,0.26,0,0.39v0.11	c0,0.02,0,0.04,0,0.06v0.36v0.29l-0.09,0.7c0,0.16-0.05,0.31-0.08,0.46l0,0c0,0.08,0,0.15,0,0.23v0.14c0,0.04,0,0.08,0,0.12	c0,0.08,0,0.16-0.05,0.24s0,0.16-0.05,0.24s0,0.12,0,0.18s-0.05,0.21-0.07,0.31l0,0c-0.01,0.07-0.03,0.14-0.05,0.21	c-0.02,0.09-0.04,0.17-0.07,0.26c0,0.1-0.05,0.21-0.08,0.31c0,0.03,0,0.05,0,0.08c0,0.11-0.06,0.21-0.1,0.32	c-0.09,0.32-0.2,0.65-0.31,1c0,0.1-0.08,0.2-0.11,0.3s-0.05,0.12-0.07,0.17c1.81-7.47-0.41-15.34-5.85-20.77	c-1.14-1.13-2.41-2.14-3.77-3c-0.4-0.25-0.8-0.49-1.21-0.71c-7.46-4.2-16.68-3.69-23.63,1.31c-1.03,0.72-1.99,1.54-2.88,2.43	c-0.84-0.83-1.74-1.6-2.7-2.3l0,0c-0.73-0.52-1.49-1.01-2.28-1.44c-6.62-3.63-14.63-3.63-21.25,0c-1.1,0.61-2.15,1.31-3.14,2.09	c-1.62,1.3-3.06,2.82-4.26,4.52c-0.44,0.62-0.85,1.26-1.22,1.91l0,0c-0.35,0.61-0.66,1.24-0.94,1.89c-0.16,0.35-0.31,0.71-0.45,1.07	c0-0.14,0.07-0.28,0.11-0.41l0.06-0.22v-0.12l0.09-0.32l0,0c0.07-0.24,0.15-0.48,0.23-0.72s0.07-0.22,0.11-0.33	c0.16-0.47,0.34-0.93,0.54-1.39l0.12-0.27l0.18-0.41l0.32-0.66l0,0l0,0c0-0.1,0.1-0.2,0.16-0.3c0.05-0.11,0.11-0.22,0.18-0.33	c0.07-0.14,0.15-0.27,0.23-0.41c0.04-0.06,0.08-0.13,0.11-0.2c0.03-0.03,0.05-0.07,0.07-0.11l0,0l0,0l0.15-0.24	c0.06-0.09,0.11-0.18,0.17-0.26l0.4-0.6l0.14-0.2l0.18-0.25l0.19-0.26l0.24-0.31l0.21-0.26l0.08-0.1l0.15-0.18	c0.08-0.1,0.16-0.2,0.25-0.29c0.03-0.05,0.06-0.09,0.1-0.13l0,0l0.18-0.21l0.22-0.23c0.19-0.21,0.39-0.42,0.6-0.62l0.24-0.24	l0.37-0.35l0.25-0.23l0.3-0.26l0.19-0.17l0.2-0.16l0.39-0.32l0.2-0.16c0.34-0.26,0.68-0.51,1-0.74l0.2-0.14l0.21-0.14l0.2-0.13	l0.29-0.18l0.15-0.09l0.21-0.13c0.29-0.16,0.58-0.33,0.87-0.48l0.17-0.09l0.27-0.14l0.22-0.1l0.23-0.11l0.22-0.11l0.22-0.1l0.23-0.1	c0.3-0.13,0.61-0.25,0.91-0.36l0.23-0.09l0.24-0.09l0.22-0.07l0.18-0.06l0.42-0.14l0.32-0.16l0.17-0.05h0.17l0.31-0.09l0.4-0.1	c0.41-0.1,0.83-0.19,1.25-0.27h0.17h0.24h0.24h0.31h0.18c0.4,0,0.8-0.09,1.21-0.12h0.21h3.14c0.33,0,0.65,0.06,1,0.09l0.44,0.06	h0.29h0.24h0.24h0.16c0.42,0.08,0.83,0.17,1.24,0.27l0.51,0.13h0.14l0.22,0.06l0.42,0.12l0.18,0.06l0.91,0.31l0.2,0.08l0.27,0.1	l0.42,0.17l0.46,0.2l0.18,0.08l0.26,0.12l0.22,0.11l0.22,0.1l0.28,0.15l0.22,0.11l0.51,0.28l0.21,0.12l0.74,0.45l0.2,0.13l0.21,0.14	l0.2,0.14l0,0l0.14,0.09l0.87,0.64l0.2,0.16l0.39,0.32l0.2,0.16l0.19,0.17l0.3,0.26l0.25,0.23l0.37,0.35l0.24,0.24l0.25-0.24	c0.12-0.12,0.24-0.24,0.37-0.35c0.08-0.08,0.16-0.16,0.25-0.23l0.29-0.26l0.2-0.17l0.19-0.16l0.4-0.32l0.2-0.16	c0.34-0.26,0.68-0.51,1-0.74l0.21-0.14l0.21-0.14l0.2-0.13l0.29-0.18l0.15-0.09l0.21-0.13c0.29-0.16,0.58-0.33,0.87-0.48l0.17-0.09	l0.27-0.14l0.22-0.1l0.22-0.11l0.23-0.11l0.22-0.1l0.23-0.1c0.3-0.13,0.6-0.25,0.91-0.36l0.22-0.09l0.25-0.09l0.22-0.07l0.18-0.06	l0.42-0.14l0.21-0.06l0.18-0.05h0.17l0.3-0.09l0.4-0.1c0.42-0.1,0.84-0.19,1.26-0.27h0.17h0.24h0.24h0.3h0.18	c0.4,0,0.81-0.09,1.21-0.12h0.22h3.13l1,0.09l0.43,0.06h0.3h0.24h0.24h0.16c0.41,0.08,0.83,0.17,1.24,0.27l0.51,0.13h0.14l0.22,0.06	l0.42,0.12l0.18,0.06l0.91,0.31l0.2,0.08l0.27,0.1l0.41,0.17l0.47,0.2l0.18,0.08l0.25,0.12l0.22,0.11l0.23,0.1l0.27,0.15l0.22,0.11	l0.51,0.28l0.22,0.12l0.74,0.45l0.19,0.13l0.21,0.14l0.22,0.16l0,0l0.13,0.09c0.3,0.21,0.59,0.42,0.87,0.64	c0.07,0.05,0.14,0.1,0.2,0.16c0.14,0.1,0.27,0.21,0.4,0.32l0.2,0.16l0.19,0.17l0.26,0.22l0.25,0.23l0.14,0.14l0,0l0,0l0.24,0.23	l0.11,0.11l0.13,0.13l0.24,0.24l0.37,0.39c0.07,0.07,0.14,0.15,0.2,0.23c0.12,0.12,0.23,0.25,0.35,0.38l0.36,0.43	c0.41,0.51,0.79,1,1.15,1.56c0.07,0.05,0.15,0.11,0.21,0.17c0.06,0.07,0.11,0.15,0.16,0.23l0.13,0.21l0.22,0.35l0.19,0.33l0.11,0.2	l0.09,0.16l0.09,0.16l0.13,0.24l0.12,0.24c0.29,0.56,0.55,1.14,0.79,1.72l0.1,0.25c0.09,0.24,0.18,0.48,0.26,0.72	c0.03,0.07,0.06,0.15,0.08,0.22c0,0.11,0.07,0.21,0.1,0.31l0.09,0.28l0.06,0.18c0,0.09,0.05,0.17,0.07,0.25l0.09,0.32	c0.05,0.17,0.09,0.35,0.13,0.52s0.05,0.18,0.07,0.27s0.05,0.25,0.08,0.38c0,0.06,0,0.11,0,0.17c0,0.07,0,0.14,0,0.22v0.17v0.15v0.13	v0.14c0,0.09,0,0.18,0,0.27s0,0.19,0,0.28s0,0.2,0,0.3v0.3v0.16v0.31c0,0,0,0.1,0,0.15s0,0.21,0,0.31l0,0c0,0.07,0,0.13,0,0.2	c0,0.07,0,0.13,0,0.2c0,0.11,0,0.22,0,0.33l0,0c0,0.11,0,0.22,0,0.34L169.26,85.77z" class="st4"/></svg>