<?xml version="1.0" encoding="UTF-8"?>
<svg xmlns="http://www.w3.org/2000/svg" xmlns:xlink="http://www.w3.org/1999/xlink" width="24pt" height="24pt" viewBox="0 0 24 24" version="1.1">
<g id="surface10076077">
<path style=" stroke:none;fill-rule:nonzero;fill:rgb(0%,0%,0%);fill-opacity:1;" d="M 12 23.160156 C 5.835938 23.160156 0.839844 18.164062 0.839844 12 C 0.839844 5.835938 5.835938 0.839844 12 0.839844 C 18.164062 0.839844 23.160156 5.835938 23.160156 12 C 23.160156 18.164062 18.164062 23.160156 12 23.160156 Z M 12 23.160156 "/>
<path style=" stroke:none;fill-rule:nonzero;fill:rgb(100%,100%,100%);fill-opacity:1;" d="M 6.945312 4 L 8.125 8.273438 L 8.125 10.324219 L 9.152344 10.324219 L 9.152344 8.273438 L 10.351562 4 L 9.316406 4 L 8.886719 5.945312 C 8.765625 6.511719 8.691406 6.917969 8.65625 7.15625 L 8.625 7.15625 C 8.574219 6.820312 8.496094 6.414062 8.390625 5.9375 L 7.976562 4 Z M 11.546875 5.613281 C 11.199219 5.613281 10.917969 5.683594 10.703125 5.820312 C 10.492188 5.957031 10.332031 6.179688 10.234375 6.480469 C 10.132812 6.78125 10.082031 7.179688 10.082031 7.679688 L 10.082031 8.351562 C 10.082031 8.84375 10.125 9.234375 10.214844 9.53125 C 10.300781 9.828125 10.449219 10.046875 10.660156 10.1875 C 10.867188 10.328125 11.15625 10.398438 11.523438 10.398438 C 11.878906 10.398438 12.164062 10.332031 12.371094 10.191406 C 12.578125 10.054688 12.730469 9.835938 12.820312 9.539062 C 12.914062 9.238281 12.960938 8.84375 12.960938 8.351562 L 12.960938 7.679688 C 12.960938 7.179688 12.914062 6.785156 12.820312 6.484375 C 12.722656 6.1875 12.570312 5.964844 12.367188 5.824219 C 12.160156 5.683594 11.886719 5.613281 11.546875 5.613281 Z M 13.503906 5.703125 L 13.503906 9.15625 C 13.503906 9.582031 13.574219 9.898438 13.71875 10.097656 C 13.867188 10.300781 14.09375 10.398438 14.398438 10.398438 C 14.839844 10.398438 15.171875 10.1875 15.394531 9.757812 L 15.414062 9.757812 L 15.507812 10.324219 L 16.320312 10.324219 L 16.320312 5.703125 L 15.28125 5.703125 L 15.28125 9.375 C 15.242188 9.460938 15.179688 9.53125 15.097656 9.585938 C 15.015625 9.640625 14.929688 9.667969 14.835938 9.667969 C 14.730469 9.667969 14.65625 9.625 14.609375 9.539062 C 14.566406 9.449219 14.542969 9.300781 14.542969 9.09375 L 14.542969 5.703125 Z M 11.523438 6.328125 C 11.667969 6.328125 11.769531 6.40625 11.828125 6.558594 C 11.886719 6.710938 11.914062 6.957031 11.914062 7.289062 L 11.914062 8.726562 C 11.914062 9.066406 11.886719 9.316406 11.828125 9.464844 C 11.769531 9.617188 11.667969 9.691406 11.523438 9.691406 C 11.378906 9.691406 11.277344 9.617188 11.222656 9.464844 C 11.164062 9.316406 11.140625 9.066406 11.140625 8.726562 L 11.140625 7.289062 C 11.140625 6.957031 11.167969 6.714844 11.226562 6.558594 C 11.28125 6.40625 11.382812 6.328125 11.523438 6.328125 Z M 6.398438 11.199219 C 5.519531 11.199219 4.800781 11.921875 4.800781 12.800781 L 4.800781 18.398438 C 4.800781 19.28125 5.519531 20 6.398438 20 L 17.601562 20 C 18.480469 20 19.199219 19.28125 19.199219 18.398438 L 19.199219 12.800781 C 19.199219 11.921875 18.480469 11.199219 17.601562 11.199219 Z M 12.039062 12.800781 L 12.882812 12.800781 L 12.882812 14.855469 L 12.890625 14.855469 C 12.964844 14.707031 13.074219 14.585938 13.214844 14.496094 C 13.355469 14.402344 13.507812 14.359375 13.667969 14.359375 C 13.875 14.359375 14.039062 14.414062 14.15625 14.523438 C 14.277344 14.636719 14.363281 14.8125 14.414062 15.058594 C 14.46875 15.304688 14.492188 15.648438 14.492188 16.085938 L 14.492188 16.703125 L 14.496094 16.703125 C 14.496094 17.28125 14.425781 17.710938 14.285156 17.984375 C 14.144531 18.257812 13.925781 18.394531 13.628906 18.394531 C 13.464844 18.394531 13.3125 18.355469 13.179688 18.28125 C 13.042969 18.203125 12.941406 18.097656 12.871094 17.96875 L 12.851562 17.96875 L 12.765625 18.335938 L 12.039062 18.335938 Z M 6.789062 12.996094 L 9.390625 12.996094 L 9.390625 13.703125 L 8.519531 13.703125 L 8.519531 18.335938 L 7.660156 18.335938 L 7.660156 13.703125 L 6.789062 13.703125 Z M 16.078125 14.359375 C 16.378906 14.359375 16.609375 14.417969 16.773438 14.527344 C 16.933594 14.636719 17.046875 14.808594 17.113281 15.042969 C 17.179688 15.277344 17.210938 15.597656 17.210938 16.007812 L 17.210938 16.679688 L 15.742188 16.679688 L 15.742188 16.875 C 15.742188 17.128906 15.75 17.3125 15.765625 17.4375 C 15.777344 17.5625 15.808594 17.65625 15.855469 17.710938 C 15.902344 17.769531 15.972656 17.796875 16.070312 17.796875 C 16.203125 17.796875 16.292969 17.746094 16.34375 17.644531 C 16.390625 17.542969 16.417969 17.375 16.421875 17.136719 L 17.179688 17.179688 C 17.183594 17.214844 17.1875 17.261719 17.1875 17.320312 C 17.1875 17.683594 17.085938 17.953125 16.890625 18.128906 C 16.691406 18.308594 16.414062 18.398438 16.054688 18.398438 C 15.621094 18.398438 15.316406 18.261719 15.140625 17.988281 C 14.96875 17.71875 14.882812 17.296875 14.882812 16.730469 L 14.882812 16.046875 C 14.882812 15.460938 14.972656 15.035156 15.152344 14.765625 C 15.332031 14.496094 15.640625 14.359375 16.078125 14.359375 Z M 9.128906 14.4375 L 10.007812 14.4375 L 10.007812 17.300781 C 10.007812 17.472656 10.027344 17.597656 10.066406 17.671875 C 10.105469 17.746094 10.167969 17.78125 10.257812 17.78125 C 10.332031 17.78125 10.40625 17.757812 10.476562 17.710938 C 10.546875 17.667969 10.597656 17.605469 10.632812 17.535156 L 10.632812 14.4375 L 11.511719 14.4375 L 11.511719 18.335938 L 10.820312 18.335938 L 10.746094 17.859375 L 10.726562 17.859375 C 10.539062 18.21875 10.257812 18.398438 9.886719 18.398438 C 9.625 18.398438 9.4375 18.316406 9.3125 18.144531 C 9.191406 17.976562 9.128906 17.710938 9.128906 17.351562 Z M 16.058594 14.953125 C 15.964844 14.953125 15.894531 14.984375 15.851562 15.039062 C 15.808594 15.09375 15.777344 15.183594 15.761719 15.308594 C 15.746094 15.433594 15.742188 15.621094 15.742188 15.875 L 15.742188 16.15625 L 16.382812 16.15625 L 16.382812 15.875 C 16.382812 15.625 16.375 15.4375 16.359375 15.308594 C 16.34375 15.179688 16.308594 15.085938 16.265625 15.035156 C 16.222656 14.980469 16.152344 14.953125 16.058594 14.953125 Z M 13.273438 14.984375 C 13.1875 14.984375 13.109375 15.015625 13.039062 15.085938 C 12.96875 15.152344 12.914062 15.238281 12.886719 15.34375 L 12.886719 17.558594 C 12.925781 17.628906 12.972656 17.679688 13.035156 17.710938 C 13.097656 17.746094 13.164062 17.765625 13.234375 17.765625 C 13.328125 17.765625 13.402344 17.730469 13.457031 17.664062 C 13.511719 17.59375 13.554688 17.480469 13.578125 17.320312 C 13.601562 17.15625 13.609375 16.933594 13.609375 16.648438 L 13.609375 16.148438 C 13.609375 15.84375 13.601562 15.609375 13.582031 15.441406 C 13.5625 15.277344 13.527344 15.15625 13.480469 15.085938 C 13.433594 15.019531 13.363281 14.984375 13.273438 14.984375 Z M 13.273438 14.984375 "/>
</g>
</svg>
